<?xml version="1.0" encoding="UTF-8"?>
<svg version="1.1" xmlns="http://www.w3.org/2000/svg" width="1024" height="1024">
<path d="M0 0 C337.92 0 675.84 0 1024 0 C1024 337.92 1024 675.84 1024 1024 C686.08 1024 348.16 1024 0 1024 C0 686.08 0 348.16 0 0 Z " fill="#00101C" transform="translate(0,0)"/>
<path d="M0 0 C-3.58704118 4.40059691 -7.40186765 8.44837998 -11.4765625 12.3984375 C-11.97202576 12.88129211 -12.46748901 13.36414673 -12.97796631 13.8616333 C-15.04524011 15.87496746 -17.11337503 17.88683243 -19.20117188 19.87890625 C-26.17485011 26.54786696 -32.74160977 32.83602617 -33.4375 43 C-32.52379056 56.59814644 -22.9805447 64.25794011 -13.65234375 73.1875 C-12 75 -12 75 -12 77 C-12.69746338 77.20979492 -13.39492676 77.41958984 -14.11352539 77.63574219 C-46.2231969 87.43966054 -72.31910647 102.21275515 -96 126 C-96.82346924 126.79664063 -96.82346924 126.79664063 -97.66357422 127.609375 C-101.78767322 131.63288622 -105.43468455 135.81778023 -108.875 140.4375 C-109.38893311 141.12706787 -109.90286621 141.81663574 -110.43237305 142.52709961 C-115.64027769 149.66056167 -119.97245284 157.15043312 -124 165 C-124.31807617 165.61166016 -124.63615234 166.22332031 -124.96386719 166.85351562 C-144.51408188 204.89165539 -145.8625722 249.6582963 -133 290 C-126.73715252 307.83197816 -117.51940512 324.77795578 -105 339 C-104.29359375 339.8146875 -103.5871875 340.629375 -102.859375 341.46875 C-100.61042037 344.01651678 -98.31775526 346.5147431 -96 349 C-95.26394531 349.80179687 -94.52789062 350.60359375 -93.76953125 351.4296875 C-81.43508864 364.36329064 -66.55333375 373.4487241 -51 382 C-51.65307332 388.09710285 -52.79750715 393.93864258 -54.20556641 399.90307617 C-54.42855408 400.86227966 -54.65154175 401.82148315 -54.88128662 402.80975342 C-55.61743146 405.97176053 -56.35942452 409.13236337 -57.1015625 412.29296875 C-57.62177656 414.52127078 -58.14165788 416.74965052 -58.66122437 418.97810364 C-59.75327768 423.65826809 -60.84798204 428.33780128 -61.94482422 433.0168457 C-63.3300204 438.92603794 -64.71082853 444.83624321 -66.08995438 450.74685478 C-68.93062458 462.92112804 -71.78443513 475.09225007 -74.65002441 487.26068115 C-75.68508577 491.6570938 -76.71401504 496.05490088 -77.73997688 500.45344448 C-78.53689236 503.86229122 -79.34305164 507.26892596 -80.1484375 510.67578125 C-80.41806305 511.83965866 -80.6876886 513.00353607 -80.96548462 514.2026825 C-81.21067841 515.23061417 -81.45587219 516.25854584 -81.70849609 517.31762695 C-81.91252045 518.18595657 -82.1165448 519.05428619 -82.32675171 519.94892883 C-83 522 -83 522 -85 524 C-87.625 523.625 -87.625 523.625 -90 523 C-90.29132813 522.04480469 -90.58265625 521.08960938 -90.8828125 520.10546875 C-95.96254038 503.88698435 -103.06184243 490.4235941 -118.17578125 481.46484375 C-130.06168937 475.29995364 -142.02445445 473.75102465 -155.25 473.4375 C-157.65368998 473.36207108 -160.05733713 473.28526365 -162.4609375 473.20703125 C-164.16588379 473.15409912 -164.16588379 473.15409912 -165.90527344 473.10009766 C-182.1882775 472.5734306 -198.27781541 471.2612204 -210.875 459.75 C-216.56873355 453.60460009 -220.12092246 445.74966779 -220.1328125 437.3671875 C-220.13410156 436.47773437 -220.13539063 435.58828125 -220.13671875 434.671875 C-220.13285156 433.74890625 -220.12898438 432.8259375 -220.125 431.875 C-220.12886719 430.97523438 -220.13273437 430.07546875 -220.13671875 429.1484375 C-220.13011511 424.55230392 -219.89968021 420.22270119 -219.1875 415.6796875 C-218.76364461 411.83769236 -218.83047472 411.26170062 -221.0546875 407.828125 C-222.45074219 406.55195312 -222.45074219 406.55195312 -223.875 405.25 C-228.77057107 400.69534613 -228.77057107 400.69534613 -230.015625 396.921875 C-229.99660649 393.36541437 -229.34809745 392.48344514 -226.875 390 C-225.91207031 388.98679687 -225.91207031 388.98679687 -224.9296875 387.953125 C-223.97449219 386.98632812 -223.97449219 386.98632812 -223 386 C-221.14669086 384.04820583 -219.59235663 382.18949036 -218 380 C-218.31095488 377.85840154 -218.31095488 377.85840154 -219 376 C-220.30324219 375.87044922 -220.30324219 375.87044922 -221.6328125 375.73828125 C-228.63704762 374.88429733 -233.19725548 374.32196015 -238 369 C-240.5047697 365.24284545 -240.12430414 363.63498254 -239.5546875 359.328125 C-238.85570226 356.39435597 -237.53669013 354.33723661 -235.92578125 351.82421875 C-233.5415479 347.12617244 -233.67483528 341.96271918 -235 337 C-236.22976563 336.75765625 -237.45953125 336.5153125 -238.7265625 336.265625 C-240.35951768 335.9277722 -241.99232246 335.58919192 -243.625 335.25 C-244.43324219 335.09273438 -245.24148437 334.93546875 -246.07421875 334.7734375 C-252.44914658 333.42589178 -256.96124504 331.36936388 -261.3125 326.3125 C-263.50211026 322.01437616 -264.34250164 318.81637376 -264 314 C-261.07818526 305.13309243 -256.51465885 296.74897462 -252.3125 288.4375 C-251.68745415 287.19496959 -251.06253733 285.95237427 -250.43774414 284.7097168 C-246.99674525 277.87964539 -243.50679727 271.07651567 -239.9375 264.3125 C-239.55585693 263.58393799 -239.17421387 262.85537598 -238.78100586 262.10473633 C-236.41703153 257.61138055 -233.97805995 253.16764658 -231.49609375 248.73828125 C-230.28881557 246.53398939 -229.08178233 244.32956336 -227.875 242.125 C-227.29355225 241.11477783 -226.71210449 240.10455566 -226.11303711 239.0637207 C-221.42740969 230.41023707 -220.5465658 222.41200076 -222.83984375 212.80859375 C-223.38318359 211.13990234 -223.38318359 211.13990234 -223.9375 209.4375 C-224.29714844 208.30183594 -224.65679687 207.16617188 -225.02734375 205.99609375 C-225.34832031 205.00738281 -225.66929687 204.01867187 -226 203 C-233.76795139 178.75004919 -219.63641172 144.97762456 -208.78491211 123.89257812 C-193.70018341 95.53986304 -171.87036692 70.02662502 -146 51 C-145.42926758 50.57380371 -144.85853516 50.14760742 -144.27050781 49.70849609 C-135.52940274 43.19334079 -126.47393556 37.3884944 -117 32 C-116.36819824 31.63551758 -115.73639648 31.27103516 -115.08544922 30.89550781 C-88.6388877 15.7583751 -59.87748575 7.05277297 -30 2 C-29.21512207 1.86577637 -28.43024414 1.73155273 -27.62158203 1.59326172 C-18.3522024 0.05089595 -9.36764918 -0.23917402 0 0 Z " fill="#EF6D17" transform="translate(494,117)"/>
<path d="M0 0 C57.94823963 -3.11054169 119.28407636 25.37969145 161.765625 63.3359375 C195.33207413 93.85282185 224.82047582 136.80599674 227.35546875 183.5234375 C227.69202367 193.55411026 227.35416249 202.69401087 223.77929688 212.15795898 C221.2621662 218.97877356 220.6222436 225.38781222 223.25488281 232.29003906 C225.01773012 235.9318863 226.9091778 239.46558318 228.875 243 C229.57090218 244.29120653 230.26456625 245.58362165 230.95605469 246.87719727 C232.3266754 249.43387187 233.70851365 251.98384409 235.10253906 254.52783203 C237.53199761 258.9735036 239.89671229 263.45120951 242.25 267.9375 C242.63687988 268.66912354 243.02375977 269.40074707 243.42236328 270.15454102 C247.58296326 278.04129734 251.55687489 286.02030149 255.50390625 294.015625 C256.95194127 296.93902677 258.43058104 299.82705855 260.02734375 302.671875 C263.59867651 309.15909593 265.41159418 314.55595206 264 322 C261.37988376 327.33727381 257.75125057 330.78433114 252.3125 333.1875 C248.64189361 334.08783742 245.13507673 334.37665517 241.3671875 334.55859375 C238.46601513 335.09957144 237.07697105 335.90899536 235 338 C233.71922145 342.45777471 234.34104531 346.67652199 236.38671875 350.78515625 C236.93972656 351.70167969 237.49273438 352.61820312 238.0625 353.5625 C240.70422306 357.99883778 241.82489959 360.93193602 240.82421875 366.0546875 C239.11613233 370.08609526 235.84497893 372.07751054 232 374 C229.18056784 374.31327024 226.36021918 374.51029964 223.53125 374.71875 C221.00925996 374.85132612 221.00925996 374.85132612 219 376 C219.10932979 380.4825215 220.25880093 382.58752596 223.375 385.625 C224.5789026 386.75474022 225.78675776 387.88029571 227 389 C229.23648906 391.38077867 229.90080768 392.5635538 230.625 395.75 C229.5671404 401.25086993 225.38215264 404.88373684 221.28515625 408.5234375 C219.64653771 410.1079021 219.64653771 410.1079021 219.75 413.4375 C219.87570901 416.75995353 219.87570901 416.75995353 220.50292969 418.96044922 C223.0785664 429.52865604 221.84741739 442.88810725 216.7109375 452.3828125 C210.34265184 462.70147856 202.01133907 467.58701989 190.43359375 470.5546875 C180.61332401 472.76818237 170.60888058 472.73507974 160.58276367 473.00854492 C139.45606094 473.62330631 121.18438138 476.98501998 106 493 C99.84548803 500.30623351 96.16438511 508.48652179 93.16796875 517.50390625 C92.4375 519.6875 92.4375 519.6875 91 523 C88.91015625 523.70703125 88.91015625 523.70703125 87 524 C84.13887326 519.83066576 82.92904014 515.60369276 81.78515625 510.74609375 C81.47313766 509.46681755 81.47313766 509.46681755 81.15481567 508.16169739 C80.44869818 505.25565606 79.75531394 502.34673972 79.0625 499.4375 C78.56014377 497.35046743 78.05727756 495.26355756 77.55395508 493.17675781 C76.55063019 489.00972985 75.5512578 484.84178686 74.55580044 480.67287254 C72.65147915 472.69926474 70.7257523 464.73097689 68.79298878 456.76421833 C66.94372407 449.13980514 65.10296602 441.51336713 63.26768017 433.8855772 C62.11257502 429.08534314 60.95434551 424.28591409 59.78860474 419.48825073 C58.67522716 414.90437552 57.57213358 410.31814041 56.47652817 405.72998619 C56.06559663 404.01670376 55.65106149 402.30428127 55.23276138 400.59278297 C54.65616082 398.23104514 54.09253264 395.8665671 53.53198242 393.50097656 C53.36020005 392.8103736 53.18841768 392.11977064 53.01142979 391.40824032 C52.13582516 387.64476882 51.70584897 384.69055218 53 381 C55.44921875 379.33203125 55.44921875 379.33203125 58.6875 377.8125 C71.43899532 371.46512052 82.4108172 362.43909937 93 353 C93.77730469 352.30777344 94.55460938 351.61554688 95.35546875 350.90234375 C121.5040986 326.18260078 140.4960011 287.01938112 142 251 C142.04769531 249.91509277 142.09539062 248.83018555 142.14453125 247.71240234 C143.31846136 215.93662993 137.07026446 188.03480063 122 160 C121.68450195 159.39849121 121.36900391 158.79698242 121.04394531 158.17724609 C115.99592875 148.58601463 109.98753967 140.24568393 103 132 C102.55785156 131.47664062 102.11570312 130.95328125 101.66015625 130.4140625 C77.64574921 102.33787148 45.3277471 86.06160889 10 77 C12.30811878 73.34078729 14.41250838 70.36733046 17.8125 67.6875 C26.00482285 60.73319609 31.23722801 53.24633395 32.375 42.4375 C30.85404107 28.49537646 18.90141348 19.76254461 9.4375 10.4375 C7.64229344 8.66763157 5.84919376 6.89562256 4.05859375 5.12109375 C3.27798584 4.3520874 2.49737793 3.58308105 1.69311523 2.79077148 C0 1 0 1 0 0 Z " fill="#097992" transform="translate(530,117)"/>
<path d="M0 0 C2.73828125 2.21484375 2.73828125 2.21484375 5.3125 4.9375 C6.17488281 5.83339844 7.03726563 6.72929687 7.92578125 7.65234375 C10.42903322 10.48559128 10.93044683 11.45351082 11.41015625 15.22265625 C10.86638548 20.23052613 8.9816271 22.07079047 5.4375 25.4375 C4.92380859 25.97826172 4.41011719 26.51902344 3.88085938 27.07617188 C1.00265142 29.90432404 -0.51600557 30.92020916 -4.6015625 31.59375 C-8.55477122 30.90307445 -9.99778309 29.86735801 -12.8125 27.0625 C-16.81963014 23.15192721 -18.45756792 21.88217579 -24.08886719 21.82299805 C-25.15047058 21.81016281 -26.21207397 21.79732758 -27.30584717 21.78410339 C-28.45788635 21.77671646 -29.60992554 21.76932953 -30.796875 21.76171875 C-32.56916473 21.74961113 -32.56916473 21.74961113 -34.3772583 21.73725891 C-36.88234994 21.7234083 -39.38746052 21.71269054 -41.89257812 21.70483398 C-45.72041721 21.68763294 -49.54739024 21.64375513 -53.375 21.59960938 C-55.80728531 21.5894817 -58.23957797 21.58096583 -60.671875 21.57421875 C-61.81581726 21.55671066 -62.95975952 21.53920258 -64.1383667 21.52116394 C-71.54037746 21.54132298 -75.46729925 22.50315241 -80.85229492 27.83349609 C-82.45314196 30.85538859 -82.37188187 33.25589241 -82.36328125 36.6640625 C-82.36263672 37.95054687 -82.36199219 39.23703125 -82.36132812 40.5625 C-82.34888062 41.56216797 -82.34888062 41.56216797 -82.33618164 42.58203125 C-82.31249538 44.62539823 -82.31563736 46.66746725 -82.32226562 48.7109375 C-82.82436778 55.45699401 -82.82436778 55.45699401 -80 61 C-77.73206116 61.31243288 -77.73206116 61.31243288 -75.1875 61.375 C-70.62912312 61.74993143 -68.18372041 62.51780581 -65 66 C-62.51935043 69.70067714 -62.67725528 73.53180842 -62.6640625 77.8359375 C-62.6540773 78.97139511 -62.6540773 78.97139511 -62.64389038 80.12979126 C-62.63378401 81.72842995 -62.62907274 83.32711065 -62.62939453 84.92578125 C-62.62502675 87.36008952 -62.58870456 89.79257543 -62.55078125 92.2265625 C-62.54491135 93.783848 -62.54094312 95.34114207 -62.5390625 96.8984375 C-62.52469147 97.62050385 -62.51032043 98.34257019 -62.49551392 99.08651733 C-62.54119059 104.18892292 -63.59309634 107.19745591 -67 111 C-73.29194078 114.07700775 -80.42659443 113.3356246 -87.27709961 113.31567383 C-89.55956364 113.31250408 -91.84074177 113.33604283 -94.12304688 113.36132812 C-95.58333171 113.36360058 -97.04362001 113.36430487 -98.50390625 113.36328125 C-100.48112671 113.36775269 -100.48112671 113.36775269 -102.49829102 113.37231445 C-107.1060268 112.8824032 -109.76288567 111.51202863 -112.6875 107.9375 C-114.27621253 104.38181006 -114.92484262 100.93689813 -115.5703125 97.109375 C-115.79334973 95.02273838 -115.79334973 95.02273838 -117 94 C-119.10410151 93.86889484 -121.21263603 93.80859361 -123.32055664 93.77539062 C-123.98084869 93.76400055 -124.64114075 93.75261047 -125.32144165 93.74087524 C-132.25235566 93.62993725 -139.18435142 93.58273111 -146.1159668 93.54003906 C-149.40165815 93.51781214 -152.68620491 93.47612503 -155.97143555 93.41699219 C-159.9408993 93.34568165 -163.90929071 93.30917385 -167.87936211 93.29692078 C-169.38844271 93.28655225 -170.89749303 93.26420376 -172.40620613 93.22932434 C-182.31509865 92.86325301 -182.31509865 92.86325301 -190.80249023 97.41992188 C-191.87997077 98.60277856 -192.94738563 99.79496173 -194 101 C-197.51789787 103.34526525 -198.85764499 103.5158599 -203 103 C-205.66796875 101.171875 -205.66796875 101.171875 -208.1875 98.75 C-209.44626953 97.56664062 -209.44626953 97.56664062 -210.73046875 96.359375 C-211.47941406 95.58078125 -212.22835938 94.8021875 -213 94 C-213.61488281 93.38640625 -214.22976563 92.7728125 -214.86328125 92.140625 C-216.65857174 88.75980305 -216.00899259 86.62142303 -215 83 C-213.32606928 80.7352702 -211.87545632 79.0296898 -209.875 77.125 C-209.41351563 76.6403125 -208.95203125 76.155625 -208.4765625 75.65625 C-206.08697595 73.30605224 -203.85600001 71.94135904 -200.7578125 70.6796875 C-196.27948951 71.06141565 -195.85168186 71.9188811 -192.76513672 74.96899414 C-186.05166167 80.48966011 -179.23550488 80.03845424 -171 79.81640625 C-169.47211026 79.80399603 -167.94418918 79.79501716 -166.41625977 79.78929138 C-162.42448852 79.76460596 -158.4350675 79.69106003 -154.44415283 79.60760498 C-151.17473164 79.5472703 -147.90544794 79.52104464 -144.6355896 79.49662876 C-137.89078952 79.44616106 -131.14604502 79.37383248 -124.40234375 79.24047852 C-123.21116943 79.21856949 -122.01999512 79.19666046 -120.79272461 79.17408752 C-118.04516685 79.18537515 -118.04516685 79.18537515 -116 78 C-115.49692556 75.81312547 -115.49692556 75.81312547 -115.1875 73.25 C-114.53128827 69.82202829 -113.98986316 67.98430425 -112.0625 65 C-108.22075295 62.49110397 -104.83174133 61.96146275 -100.328125 61.359375 C-98.04467842 61.24166406 -98.04467842 61.24166406 -97 60 C-96.63500443 55.74937644 -96.5571962 51.49312978 -96.48510742 47.22924805 C-96.45371315 45.80040618 -96.40621738 44.37181486 -96.34155273 42.9440918 C-96.00247322 35.34888766 -95.83949874 29.48329503 -101.03515625 23.37109375 C-102.14129272 22.30072876 -102.14129272 22.30072876 -103.26977539 21.20874023 C-105.53438746 18.31782088 -105.41394388 16.58628983 -105 13 C-103.11856401 9.9217926 -100.56296665 7.52664931 -98 5 C-97.48695313 4.46503906 -96.97390625 3.93007813 -96.4453125 3.37890625 C-93.9330861 0.98210647 -92.01705125 0.00378917 -88.625 -0.75 C-84.06567219 0.1933092 -81.98057936 2.17998668 -78.69921875 5.37109375 C-75.76366707 8.18517432 -73.66321531 8.15167719 -69.69921875 8.24047852 C-68.59046387 8.26622452 -67.48170898 8.29197052 -66.33935547 8.3184967 C-61.24151737 8.40282591 -56.14372356 8.46863172 -51.04541016 8.51489258 C-48.36194392 8.54153049 -45.68028028 8.59009715 -42.99755859 8.65844727 C-39.12283994 8.75006458 -35.25064105 8.78858038 -31.375 8.81640625 C-30.18608154 8.85455948 -28.99716309 8.89271271 -27.7722168 8.93202209 C-18.75244914 8.91115487 -14.43262808 6.11767851 -8 0 C-4.99055953 -1.50472024 -3.21050278 -0.87203669 0 0 Z " fill="#F58D12" transform="translate(601,269)"/>
<path d="M0 0 C53.82889785 0 53.82889785 0 63.34375 9.06640625 C69.37756102 16.11059601 70.66220249 23.98885238 70 33 C68.68418537 42.34083792 63.26279969 48.98553232 55.85913086 54.63305664 C55.24561768 55.08414795 54.63210449 55.53523926 54 56 C54.38744385 56.68924561 54.7748877 57.37849121 55.17407227 58.08862305 C68.82504288 82.38519971 68.82504288 82.38519971 75 94 C66.75 94 58.5 94 50 94 C49.10796875 92.27652344 48.2159375 90.55304688 47.296875 88.77734375 C46.11465935 86.49735642 44.93236346 84.21741069 43.75 81.9375 C42.87021484 80.2369043 42.87021484 80.2369043 41.97265625 78.50195312 C38.40967905 71.6162609 38.40967905 71.6162609 34.578125 64.87890625 C33 62 33 62 33 59 C29.04 59 25.08 59 21 59 C21 70.55 21 82.1 21 94 C14.07 94 7.14 94 0 94 C0 62.98 0 31.96 0 0 Z " fill="#FCFCFC" transform="translate(526,719)"/>
<path d="M0 0 C2.51632512 1.51851591 4.42138676 3.4401424 6.4375 5.5625 C6.97826172 6.07619141 7.51902344 6.58988281 8.07617188 7.11914062 C10.73266177 9.82264804 11.90061519 11.60841471 12.84765625 15.33984375 C11.89332614 19.46061477 10.98264813 20.17572978 8.01342773 22.99853516 C3.13923818 28.34635958 2.82766403 32.64504099 2.9375 39.68359375 C2.92984619 40.77914078 2.92219238 41.87468781 2.91430664 43.00343323 C2.90888897 45.30872293 2.92346802 47.61413773 2.95703125 49.91918945 C2.99986151 53.42616064 2.95740346 56.92492332 2.90625 60.43164062 C2.45979925 73.73761048 2.45979925 73.73761048 8 85.28515625 C8.721875 85.92461182 9.44375 86.56406738 10.1875 87.22290039 C12.44389368 89.43522388 12.791346 90.87993142 13 94 C9.50764684 100.20862783 4.2354352 105.5881581 -2 109 C-6.11074526 108.71152665 -8.1713439 107.34820311 -11.125 104.5625 C-15.19745279 100.76735431 -17.66247208 98.76029916 -23.35424805 98.66186523 C-24.44936203 98.63942245 -25.54447601 98.61697968 -26.67277527 98.59385681 C-27.85712662 98.58222 -29.04147797 98.57058319 -30.26171875 98.55859375 C-31.48147903 98.54482193 -32.70123932 98.53105011 -33.95796204 98.51686096 C-36.54281058 98.49356548 -39.1277195 98.47631208 -41.71264648 98.46459961 C-45.65526028 98.4377198 -49.59517357 98.36283519 -53.53710938 98.28710938 C-56.04946112 98.27044819 -58.56183407 98.25668311 -61.07421875 98.24609375 C-62.83556404 98.20131142 -62.83556404 98.20131142 -64.63249207 98.15562439 C-70.47701546 98.18680571 -74.13009343 98.48270408 -78.62036133 102.42211914 C-79.75267914 103.60926775 -80.87992218 104.80129607 -82 106 C-85.84308764 108.56205842 -87.4340304 108.67366765 -92 108 C-94.23938503 106.39984241 -96.15039298 104.66172914 -98.10546875 102.7265625 C-102.34952929 98.85877949 -106.28053437 98.69054652 -111.85449219 98.66186523 C-113.03578201 98.64456108 -113.03578201 98.64456108 -114.24093628 98.62690735 C-116.84293621 98.59263511 -119.44469905 98.57410479 -122.046875 98.55859375 C-122.93789162 98.55169085 -123.82890823 98.54478794 -124.74692535 98.53767586 C-129.4634468 98.50185492 -134.17984887 98.47830883 -138.89648438 98.46459961 C-143.75689882 98.44806207 -148.61585566 98.38964958 -153.47578049 98.32145596 C-157.22315777 98.27657766 -160.97018864 98.26309826 -164.71781158 98.25798225 C-166.50875086 98.25010833 -168.29968004 98.23052286 -170.09035492 98.19875908 C-181.28622389 97.64951886 -181.28622389 97.64951886 -190.97363281 102.42211914 C-191.99992117 103.59972121 -193.01132748 104.79064436 -194 106 C-197.5341027 108.35606847 -198.83673905 108.55886138 -203 108 C-205.921875 105.91796875 -205.921875 105.91796875 -208.75 103.1875 C-209.69359375 102.29417969 -210.6371875 101.40085937 -211.609375 100.48046875 C-215.98185258 95.94366604 -215.98185258 95.94366604 -216.0625 91.75 C-214.62268883 86.66831352 -211.91190067 84.37693989 -208 81 C-207.175 80.195625 -206.35 79.39125 -205.5 78.5625 C-201.89205878 76.30753674 -200.19845098 76.1603098 -196 77 C-194.77861083 78.30219642 -193.59230731 79.63757832 -192.4284668 80.99145508 C-185.59536475 87.214485 -177.06930862 86.05299304 -168.39453125 85.88671875 C-166.58331771 85.87939969 -164.77208912 85.87520446 -162.96086121 85.87397766 C-159.17873798 85.86324905 -155.39814422 85.82630236 -151.61645508 85.76831055 C-146.7776692 85.69459861 -141.94019175 85.66905866 -137.10089588 85.66089153 C-133.36638003 85.65229413 -129.63213283 85.62715779 -125.89774132 85.59613991 C-124.11363606 85.58160484 -122.32950342 85.57009548 -120.54535866 85.56171227 C-118.05165421 85.54573386 -115.55905664 85.50967201 -113.06567383 85.4675293 C-112.33462433 85.46574677 -111.60357483 85.46396423 -110.85037231 85.46212769 C-104.04598858 85.30636547 -99.73613377 83.03232293 -95.0625 78.25 C-92.22636156 75.72599824 -91.38476106 75.04809513 -87.5 74.5625 C-83.20209031 76.32771291 -80.86088045 78.7558139 -77.796875 82.1875 C-74.7705284 85.24016266 -71.7944059 85.13765691 -67.70581055 85.19287109 C-66.62426193 85.20893402 -65.54271332 85.22499695 -64.4283905 85.24154663 C-59.48717917 85.28603961 -54.5461011 85.32705228 -49.60473633 85.35009766 C-46.99852576 85.36666565 -44.39236077 85.3939663 -41.78637695 85.43212891 C-38.02791785 85.48687877 -34.27052286 85.50876921 -30.51171875 85.5234375 C-29.34903976 85.54610687 -28.18636078 85.56877625 -26.9884491 85.59213257 C-20.1531167 85.67167069 -20.1531167 85.67167069 -14.28051758 82.59228516 C-11.33609854 79.24533715 -10.87270011 77.73819645 -10.77539062 73.40185547 C-10.75287231 72.44681122 -10.730354 71.49176697 -10.70715332 70.50778198 C-10.63608572 66.12310686 -10.57859201 61.73860239 -10.54003906 57.35351562 C-10.51346757 55.04503594 -10.47258212 52.73667416 -10.41699219 50.42871094 C-10.33764603 47.09521634 -10.30469017 43.76398957 -10.28125 40.4296875 C-10.23176208 38.89331131 -10.23176208 38.89331131 -10.18127441 37.32589722 C-10.19652387 31.82294745 -10.72654983 28.67948491 -14.41992188 24.47314453 C-15.61032168 23.31238677 -16.80336428 22.15432803 -18 21 C-20 18 -20 18 -20 15.25 C-18.63607299 10.81723723 -16.23045607 8.24555166 -13 5 C-12.51015625 4.48695313 -12.0203125 3.97390625 -11.515625 3.4453125 C-7.70425984 -0.18163176 -5.1284313 -0.65859855 0 0 Z " fill="#EF7417" transform="translate(601,335)"/>
<path d="M0 0 C8.91 0 17.82 0 27 0 C34.40238425 23.08838897 41.78481154 46.18278621 49.00628662 69.32852173 C49.62711285 71.31789604 50.24889853 73.3069712 50.87164307 75.29574585 C51.7390156 78.06734168 52.60256206 80.84009802 53.46484375 83.61328125 C53.85280876 84.85061508 53.85280876 84.85061508 54.24861145 86.11294556 C56 91.77043715 56 91.77043715 56 94 C48.41 94 40.82 94 33 94 C31.02 86.74 29.04 79.48 27 72 C13.14 71.505 13.14 71.505 -1 71 C-1.66 74.63 -2.32 78.26 -3 82 C-3.48583646 84.05027634 -3.99733955 86.0951567 -4.5625 88.125 C-4.81128906 89.03507813 -5.06007813 89.94515625 -5.31640625 90.8828125 C-6 93 -6 93 -7 94 C-8.63472882 94.08700342 -10.27314055 94.10701063 -11.91015625 94.09765625 C-12.89951172 94.09443359 -13.88886719 94.09121094 -14.90820312 94.08789062 C-15.94912109 94.07951172 -16.99003906 94.07113281 -18.0625 94.0625 C-19.10728516 94.05798828 -20.15207031 94.05347656 -21.22851562 94.04882812 C-23.81906936 94.03699911 -26.40949746 94.01967834 -29 94 C-26.75287261 85.45434044 -24.19083002 77.0225047 -21.54296875 68.59375 C-21.11305695 67.22014545 -20.68331724 65.84648703 -20.2537384 64.47277832 C-19.12844779 60.87602442 -18.00072613 57.28003732 -16.87249756 53.6842041 C-15.74349589 50.08423496 -14.61702077 46.48347549 -13.49023438 42.8828125 C-9.01373572 28.58213878 -4.52066084 14.2867827 0 0 Z " fill="#FBFBFC" transform="translate(454,719)"/>
<path d="M0 0 C2.95083724 2.04999456 5.44091382 4.488207 8 7 C8.99 7.845625 9.98 8.69125 11 9.5625 C13 12 13 12 13.75 14.8125 C12.76674475 18.99133483 10.65588221 21.11207349 7.7265625 24.16796875 C3.91348739 28.21396926 3.72737281 31.221244 3.8046875 36.51171875 C3.80893234 37.60405571 3.80893234 37.60405571 3.81326294 38.71846008 C3.82444743 41.04164137 3.84954834 43.36443547 3.875 45.6875 C3.88503206 47.2636663 3.89415752 48.83983865 3.90234375 50.41601562 C3.92438104 54.27749267 3.95889859 58.13868071 4 62 C5.35109863 62.17305664 5.35109863 62.17305664 6.72949219 62.34960938 C7.90672852 62.51267578 9.08396484 62.67574219 10.296875 62.84375 C11.46573242 63.00037109 12.63458984 63.15699219 13.83886719 63.31835938 C18.14320715 64.24651177 19.51858404 65.45512006 22 69 C23.50343913 72.00687826 23.20416325 75.12152293 23.23828125 78.421875 C23.246353 79.15948059 23.25442474 79.89708618 23.26274109 80.65704346 C23.27658051 82.22055716 23.28730331 83.78410106 23.29516602 85.34765625 C23.31233516 87.72715445 23.35621387 90.10524693 23.40039062 92.484375 C23.41052183 94.00519814 23.4190366 95.52603307 23.42578125 97.046875 C23.44328934 97.75334167 23.46079742 98.45980835 23.47883606 99.18768311 C23.45674961 104.27448561 22.33600101 107.17811299 19 111 C14.52881237 113.96591911 10.92962243 114.38431515 5.625 114.3984375 C4.93744629 114.40130768 4.24989258 114.40417786 3.54150391 114.40713501 C2.09602021 114.40916541 0.65050838 114.40370751 -0.79492188 114.39111328 C-2.99412083 114.37504296 -5.19148248 114.39099482 -7.390625 114.41015625 C-8.80208735 114.40817363 -10.21354856 114.40432957 -11.625 114.3984375 C-13.53152344 114.39336182 -13.53152344 114.39336182 -15.4765625 114.38818359 C-20.53910042 113.83043447 -23.62553812 112.2782223 -27.33959961 108.82421875 C-29.49771168 105.1534291 -29.59395542 101.95589476 -29.56640625 97.8125 C-29.57260483 97.03237549 -29.57880341 96.25225098 -29.58518982 95.44848633 C-29.5922712 93.80453739 -29.58914331 92.16051649 -29.57641602 90.51660156 C-29.56253936 88.00711733 -29.59665103 85.50135767 -29.63476562 82.9921875 C-29.63571684 81.39062409 -29.63385787 79.78905604 -29.62890625 78.1875 C-29.64216446 77.44153564 -29.65542267 76.69557129 -29.66908264 75.92700195 C-29.59787371 71.92579803 -29.16164135 70.19650774 -26.58691406 67.06640625 C-22.16401597 63.53343065 -18.41026118 62.56783838 -12.92578125 61.5625 C-12.29027344 61.376875 -11.65476562 61.19125 -11 61 C-8.90185583 56.80371166 -9.77311473 51.34965151 -9.75976562 46.73364258 C-9.75008577 44.70547061 -9.71907468 42.67832358 -9.6875 40.65039062 C-9.68234375 39.36712891 -9.6771875 38.08386719 -9.671875 36.76171875 C-9.6625293 35.58569092 -9.65318359 34.40966309 -9.64355469 33.19799805 C-10.30044622 27.30442124 -13.80701003 23.98655697 -17.890625 20.0390625 C-19.68199213 16.74647926 -18.96056353 14.53609841 -18 11 C-15.78515625 8.1640625 -15.78515625 8.1640625 -13.0625 5.625 C-12.16660156 4.77164062 -11.27070313 3.91828125 -10.34765625 3.0390625 C-6.7897853 -0.0511349 -4.71489238 -0.69850258 0 0 Z " fill="#E2461C" transform="translate(515,469)"/>
<path d="M0 0 C-3.58704118 4.40059691 -7.40186765 8.44837998 -11.4765625 12.3984375 C-11.97202576 12.88129211 -12.46748901 13.36414673 -12.97796631 13.8616333 C-15.04524011 15.87496746 -17.11337503 17.88683243 -19.20117188 19.87890625 C-26.17485011 26.54786696 -32.74160977 32.83602617 -33.4375 43 C-32.52379056 56.59814644 -22.9805447 64.25794011 -13.65234375 73.1875 C-12 75 -12 75 -12 77 C-12.69746338 77.20979492 -13.39492676 77.41958984 -14.11352539 77.63574219 C-44.5238259 86.92079835 -71.4535687 100.61503836 -93.640625 123.75390625 C-96 126 -96 126 -99 127 C-98.61402985 124.20171644 -98.19863427 123.1794116 -96.0625 121.25 C-94 120 -94 120 -92 120 C-91.67 118.35 -91.34 116.7 -91 115 C-90.01 115 -89.02 115 -88 115 C-87.01 113.515 -87.01 113.515 -86 112 C-85.34 112 -84.68 112 -84 112 C-83.67 111.01 -83.34 110.02 -83 109 C-81.68791869 108.29242324 -80.35092047 107.63026669 -79 107 C-77.1629882 105.47508268 -75.4307245 103.86869229 -73.68359375 102.2421875 C-72 101 -72 101 -69 101 C-69 100.34 -69 99.68 -69 99 C-68.030625 98.54625 -67.06125 98.0925 -66.0625 97.625 C-62.92920418 96.34213779 -62.92920418 96.34213779 -62 94 C-61.34 94 -60.68 94 -60 94 C-60 93.34 -60 92.68 -60 92 C-59.030625 91.87625 -58.06125 91.7525 -57.0625 91.625 C-55.5465625 91.315625 -55.5465625 91.315625 -54 91 C-53.67 90.34 -53.34 89.68 -53 89 C-50.67843403 88.59270772 -48.3431213 88.25561323 -46 88 C-46 87.34 -46 86.68 -46 86 C-43.03 85.505 -43.03 85.505 -40 85 C-40 84.34 -40 83.68 -40 83 C-38.95199219 82.70996094 -38.95199219 82.70996094 -37.8828125 82.4140625 C-36.97273437 82.15367187 -36.06265625 81.89328125 -35.125 81.625 C-34.22007812 81.36976563 -33.31515625 81.11453125 -32.3828125 80.8515625 C-29.85430274 80.1395685 -29.85430274 80.1395685 -28 78 C-26.34080104 77.63128912 -24.67225729 77.30404678 -23 77 C-20.99255385 76.35610218 -18.99054876 75.69437747 -17 75 C-17.33 74.01 -17.66 73.02 -18 72 C-18.66 71.67 -19.32 71.34 -20 71 C-20 70.34 -20 69.68 -20 69 C-20.556875 68.773125 -21.11375 68.54625 -21.6875 68.3125 C-26.75169526 65.43822702 -30.09077029 60.95646543 -33 56 C-33 55.01 -33 54.02 -33 53 C-33.66 53 -34.32 53 -35 53 C-36.46437735 43.69922492 -36.01602894 35.22628746 -31 27 C-29.4375 25.125 -29.4375 25.125 -28 24 C-27.34 24 -26.68 24 -26 24 C-25.01 21.525 -25.01 21.525 -24 19 C-22.68 19 -21.36 19 -20 19 C-20 18.01 -20 17.02 -20 16 C-18.68 15.67 -17.36 15.34 -16 15 C-16 14.34 -16 13.68 -16 13 C-15.34 13 -14.68 13 -14 13 C-14 12.34 -14 11.68 -14 11 C-13.34 11 -12.68 11 -12 11 C-12 10.01 -12 9.02 -12 8 C-11.01 8 -10.02 8 -9 8 C-8.67 7.01 -8.34 6.02 -8 5 C-7.34 5 -6.68 5 -6 5 C-6 4.34 -6 3.68 -6 3 C-7.97909398 2.97313447 -9.95828971 2.95366625 -11.9375 2.9375 C-13.59072266 2.92009766 -13.59072266 2.92009766 -15.27734375 2.90234375 C-17.91447634 2.68737429 -17.91447634 2.68737429 -19 4 C-21.33333333 4 -23.66666667 4 -26 4 C-26.99 4.33 -27.98 4.66 -29 5 C-30.60139483 5.17364522 -32.20626175 5.31660035 -33.8125 5.4375 C-37.81205757 5.80427165 -41.22865899 6.56329866 -45 8 C-46.32860925 8.35169068 -47.66158328 8.68770276 -49 9 C-49.59554687 9.1546875 -50.19109375 9.309375 -50.8046875 9.46875 C-54.03143712 10.24960044 -57.29659551 10.80990071 -60.5625 11.40234375 C-62.97194539 11.99312122 -64.81407129 12.84997325 -67 14 C-68.36491014 14.50719424 -69.74083927 14.98547703 -71.125 15.4375 C-71.91261719 15.6953125 -72.70023438 15.953125 -73.51171875 16.21875 C-75.97796531 16.99308173 -78.45474642 17.71808794 -80.9375 18.4375 C-90.92907132 21.40544731 -100.00393102 25.77520885 -109 31 C-112.24989948 32.8874962 -115.48178356 34.75215736 -118.875 36.375 C-123.14436897 38.59507186 -127.02574648 41.29566524 -131 44 C-132.52039416 45.00066759 -134.04122148 46.00067739 -135.5625 47 C-139.29581897 49.47577995 -142.85296071 52.1265751 -146.37109375 54.8984375 C-148 56 -148 56 -150 56 C-150 56.66 -150 57.32 -150 58 C-150.66 58 -151.32 58 -152 58 C-152.33 58.99 -152.66 59.98 -153 61 C-154.65848177 62.01351664 -156.32665961 63.01120795 -158 64 C-158.86625 64.86625 -159.7325 65.7325 -160.625 66.625 C-163 69 -163 69 -166 70 C-166.15210938 70.61359375 -166.30421875 71.2271875 -166.4609375 71.859375 C-167.16952554 74.67318838 -168.37475926 75.46023324 -170.625 77.25 C-174.84610692 80.77774821 -178.73094995 84.55613508 -182 89 C-182 89.66 -182 90.32 -182 91 C-182.721875 91.53625 -183.44375 92.0725 -184.1875 92.625 C-187.2901918 95.24505085 -188.89903226 97.80318693 -190.88671875 101.29296875 C-192 103 -192 103 -194 104 C-194.33 104.99 -194.66 105.98 -195 107 C-195.66 107 -196.32 107 -197 107 C-197 107.99 -197 108.98 -197 110 C-197.66 110 -198.32 110 -199 110 C-199 110.99 -199 111.98 -199 113 C-199.66 113 -200.32 113 -201 113 C-201.2578125 113.85722656 -201.515625 114.71445313 -201.78125 115.59765625 C-203.45462468 120.26916056 -205.89853407 124.37856316 -208.34375 128.68359375 C-210.07265484 132.14548104 -211.05536531 135.26396981 -212 139 C-212.66 139 -213.32 139 -214 139 C-214.66 142.3 -215.32 145.6 -216 149 C-216.66 149 -217.32 149 -218 149 C-218.495 149.99 -218.495 149.99 -219 151 C-217.65262634 143.27882282 -214.87749903 136.82933132 -211.4375 129.8125 C-210.89955811 128.70624268 -210.36161621 127.59998535 -209.80737305 126.46020508 C-205.73032039 118.20494572 -201.35910433 110.48900477 -196 103 C-194.94425781 101.50919922 -194.94425781 101.50919922 -193.8671875 99.98828125 C-180.3096096 81.40127929 -164.54865839 64.64179986 -146 51 C-145.42926758 50.57380371 -144.85853516 50.14760742 -144.27050781 49.70849609 C-135.52940274 43.19334079 -126.47393556 37.3884944 -117 32 C-116.36819824 31.63551758 -115.73639648 31.27103516 -115.08544922 30.89550781 C-88.6388877 15.7583751 -59.87748575 7.05277297 -30 2 C-29.21512207 1.86577637 -28.43024414 1.73155273 -27.62158203 1.59326172 C-18.3522024 0.05089595 -9.36764918 -0.23917402 0 0 Z " fill="#F0A40E" transform="translate(494,117)"/>
<path d="M0 0 C4.82252681 2.41126341 7.79132769 5.07296177 10 10 C11.46849735 22.61708949 11.46849735 22.61708949 8.25 27.6875 C7.5075 28.450625 6.765 29.21375 6 30 C5.443125 30.598125 4.88625 31.19625 4.3125 31.8125 C0.66747151 33.68427139 -2.9233845 34.11343626 -7 34 C-11.74217807 32.38944896 -14.2153254 30.12544386 -17 26 C-18.97025457 20.0892363 -18.80462101 13.37151456 -16.8125 7.5 C-12.34284002 1.33495174 -7.53981306 -0.99874389 0 0 Z " fill="#F69B0F" transform="translate(433,845)"/>
<path d="M0 0 C16.66666667 0 16.66666667 0 21.58203125 3.515625 C26.02192018 8.16344262 25.41395075 13.53065199 25.3125 19.63671875 C24.8917123 24.16544636 24.24151146 25.84379148 21 29 C15 32 15 32 0 32 C0 21.44 0 10.88 0 0 Z " fill="#F79D0E" transform="translate(110,846)"/>
<path d="M0 0 C2.66796875 1.828125 2.66796875 1.828125 5.1875 4.25 C6.44626953 5.43335938 6.44626953 5.43335938 7.73046875 6.640625 C8.47941406 7.41921875 9.22835937 8.1978125 10 9 C10.61488281 9.61359375 11.22976563 10.2271875 11.86328125 10.859375 C13.65977219 14.2424576 13.01338114 16.37686898 12 20 C10.30427797 22.25903684 8.8288163 23.97291506 6.8125 25.875 C6.34263672 26.3596875 5.87277344 26.844375 5.38867188 27.34375 C2.10808012 30.54825709 -0.39311298 31.95636237 -5 32 C-10.57124808 29.5523377 -16.6395558 23.61963493 -19 18 C-18.95074368 13.69007224 -18.45464113 11.58213309 -15.78515625 8.1640625 C-14.88667969 7.32617188 -13.98820312 6.48828125 -13.0625 5.625 C-12.16660156 4.77164063 -11.27070313 3.91828125 -10.34765625 3.0390625 C-6.78737657 -0.05322701 -4.70804592 -0.4828765 0 0 Z " fill="#19A6C0" transform="translate(515,219)"/>
<path d="M0 0 C2.660625 -0.061875 5.32125 -0.12375 8.0625 -0.1875 C8.8862915 -0.21481201 9.71008301 -0.24212402 10.55883789 -0.27026367 C15.80135928 -0.32864644 19.3635144 0.51198689 24 3 C26.8694861 6.23736893 27.9003512 8.20280958 28.4375 12.5 C27.94380259 16.4495793 27.2616669 18.71693515 25 22 C19.40704597 25.98570049 15.31399137 26.53066533 8.5625 26.25 C4.3240625 26.12625 4.3240625 26.12625 0 26 C0 17.42 0 8.84 0 0 Z " fill="#02101B" transform="translate(547,735)"/>
<path d="M0 0 C2.19876295 1.68495281 3.97277989 3.22583551 5.875 5.1875 C6.62136719 5.89229492 6.62136719 5.89229492 7.3828125 6.61132812 C9.81761363 9.06285179 10.94632525 10.67632501 11.515625 14.109375 C10.64136679 19.01051952 7.45185106 21.61078333 4 25 C3.46375 25.53496094 2.9275 26.06992187 2.375 26.62109375 C0.22034862 28.60180192 -1.43642805 29.90560403 -4.35546875 30.39453125 C-8.0117553 29.84905866 -9.52807964 28.21012718 -12.1875 25.6875 C-13.47720703 24.48673828 -13.47720703 24.48673828 -14.79296875 23.26171875 C-17.59751707 20.38767719 -18.90269704 18.70091118 -19.4609375 14.6796875 C-18.88296518 10.06570506 -16.94349558 8.09505355 -13.625 5.125 C-12.86316406 4.39796875 -12.86316406 4.39796875 -12.0859375 3.65625 C-7.71356545 -0.46298472 -5.93052628 -1.62196321 0 0 Z " fill="#19A8C2" transform="translate(516,601)"/>
<path d="M0 0 C3.35822255 0.84901923 5.04807184 2.49068211 7.55078125 4.86328125 C8.39898437 5.6521875 9.2471875 6.44109375 10.12109375 7.25390625 C15.25475475 12.50938294 15.25475475 12.50938294 15.8125 16.109375 C14.96639304 21.58770392 9.69368477 25.34537773 5.92578125 29.11328125 C2.48544908 31.17748055 0.39802713 31.05185729 -3.57421875 30.61328125 C-5.93911311 28.95994803 -7.57660566 27.59830755 -9.51171875 25.55078125 C-10.00478516 25.08478516 -10.49785156 24.61878906 -11.00585938 24.13867188 C-13.54758399 21.54759338 -14.554476 19.71520893 -15.24609375 16.14453125 C-14.34699253 11.41902249 -12.32184357 9.38538791 -8.88671875 6.17578125 C-8.35626953 5.63501953 -7.82582031 5.09425781 -7.27929688 4.53710938 C-4.97584888 2.30149297 -3.154545 0.75153803 0 0 Z " fill="#1BA8C2" transform="translate(446.57421875,268.38671875)"/>
<path d="M0 0 C2.19876295 1.68495281 3.97277989 3.22583551 5.875 5.1875 C6.62136719 5.89229492 6.62136719 5.89229492 7.3828125 6.61132812 C9.72008098 8.96464928 10.93578216 10.71662011 11.671875 13.96484375 C10.71822441 18.27290482 8.50073217 20.38227771 5.375 23.375 C4.85292969 23.92027344 4.33085938 24.46554687 3.79296875 25.02734375 C1.2145047 27.56760834 -0.42422651 28.86505309 -4 29.703125 C-8.26571421 28.70334823 -10.40053626 26.48166213 -13.375 23.375 C-13.92027344 22.85292969 -14.46554687 22.33085937 -15.02734375 21.79296875 C-17.58711977 19.19469986 -18.86917093 17.57758061 -19.6875 13.96484375 C-18.75959571 9.9632565 -16.56222978 7.86405064 -13.625 5.1875 C-13.11710938 4.69830078 -12.60921875 4.20910156 -12.0859375 3.70507812 C-7.71540022 -0.452683 -5.95968128 -1.62993693 0 0 Z " fill="#19A8C2" transform="translate(650,319)"/>
<path d="M0 0 C2.64 0 5.28 0 8 0 C11.3 6.6 14.6 13.2 18 20 C18 13.4 18 6.8 18 0 C20.31 0 22.62 0 25 0 C25 10.56 25 21.12 25 32 C22.36 32 19.72 32 17 32 C13.7 25.4 10.4 18.8 7 12 C7 18.6 7 25.2 7 32 C4.69 32 2.38 32 0 32 C0 21.44 0 10.88 0 0 Z " fill="#F79D0E" transform="translate(331,846)"/>
<path d="M0 0 C2.31 0 4.62 0 7 0 C8.64652364 2.95794964 10.29210108 5.9164246 11.9375 8.875 C12.40607422 9.71675781 12.87464844 10.55851563 13.35742188 11.42578125 C13.80537109 12.23144531 14.25332031 13.03710938 14.71484375 13.8671875 C15.12855225 14.61081543 15.54226074 15.35444336 15.96850586 16.12060547 C16.67082934 17.40024717 17.3471997 18.6943994 18 20 C18 13.4 18 6.8 18 0 C20.31 0 22.62 0 25 0 C25 10.56 25 21.12 25 32 C22.36 32 19.72 32 17 32 C15.51706418 29.23116804 14.03931138 26.4596027 12.5625 23.6875 C11.93118164 22.50897461 11.93118164 22.50897461 11.28710938 21.30664062 C10.88427734 20.54931641 10.48144531 19.79199219 10.06640625 19.01171875 C9.69459229 18.31522217 9.32277832 17.61872559 8.93969727 16.90112305 C8 15 8 15 7 12 C6.67 18.6 6.34 25.2 6 32 C4.02 32 2.04 32 0 32 C0 21.44 0 10.88 0 0 Z " fill="#F59D0F" transform="translate(515,846)"/>
<path d="M0 0 C2.31 0 4.62 0 7 0 C8.64616818 3.12482372 10.29187754 6.24988886 11.9375 9.375 C12.40607422 10.26445313 12.87464844 11.15390625 13.35742188 12.0703125 C13.80537109 12.92109375 14.25332031 13.771875 14.71484375 14.6484375 C15.12855225 15.43395996 15.54226074 16.21948242 15.96850586 17.02880859 C16.65788624 18.34621859 17.33504671 19.67009342 18 21 C18 14.07 18 7.14 18 0 C19.98 0 21.96 0 24 0 C24 10.56 24 21.12 24 32 C21.69 32 19.38 32 17 32 C13.7 25.73 10.4 19.46 7 13 C6.67 19.27 6.34 25.54 6 32 C4.02 32 2.04 32 0 32 C0 21.44 0 10.88 0 0 Z " fill="#F8A10F" transform="translate(835,846)"/>
<path d="M0 0 C2.97 0 5.94 0 9 0 C10.4279783 4.2345633 11.85204104 8.47041664 13.27246094 12.70751953 C13.75640691 14.14928877 14.24142839 15.59069746 14.72753906 17.03173828 C15.42534712 19.10095279 16.11929998 21.17142543 16.8125 23.2421875 C17.23144531 24.4885498 17.65039062 25.73491211 18.08203125 27.01904297 C19 30 19 30 19 32 C16.36 32 13.72 32 11 32 C10.34 29.69 9.68 27.38 9 25 C6.03 25 3.06 25 0 25 C-0.66 27.31 -1.32 29.62 -2 32 C-4.31 32 -6.62 32 -9 32 C-7.70575775 24.57492201 -5.72497079 17.52999236 -3.375 10.375 C-3.05015625 9.37082031 -2.7253125 8.36664062 -2.390625 7.33203125 C-1.59869492 4.88636483 -0.80176173 2.4424572 0 0 Z " fill="#F7A30E" transform="translate(202,846)"/>
<path d="M0 0 C2.5625 2.0625 2.5625 2.0625 4 4 C2.68 5.32 1.36 6.64 0 8 C-0.66 7.67 -1.32 7.34 -2 7 C-6.7057834 6.51881392 -6.7057834 6.51881392 -10.875 8.3125 C-13.38056929 12.07085394 -13.30218539 15.61831184 -13 20 C-11.25271222 23.72803465 -11.25271222 23.72803465 -8 26 C-6.00039988 26.039992 -3.99952758 26.04346799 -2 26 C-1.67 24.02 -1.34 22.04 -1 20 C-2.98 20 -4.96 20 -7 20 C-7 18.02 -7 16.04 -7 14 C-3.04 14 0.92 14 5 14 C5 18.95 5 23.9 5 29 C-0.26684486 32.16010692 -3.75893855 33.67989357 -9.890625 32.6015625 C-14.74310784 31.21770628 -17.29879101 29.16868165 -19.875 24.875 C-21.70580438 19.76628836 -22.0964363 14.1006747 -20.2734375 8.9453125 C-15.69622936 0.27466618 -9.1429287 -2.21146651 0 0 Z " fill="#F49C0F" transform="translate(769,846)"/>
<path d="M0 0 C6.6 0 13.2 0 20 0 C20 1.98 20 3.96 20 6 C15.71 6 11.42 6 7 6 C7 7.98 7 9.96 7 12 C10.63 12 14.26 12 18 12 C18 13.98 18 15.96 18 18 C14.37 18 10.74 18 7 18 C7 20.64 7 23.28 7 26 C11.62 26 16.24 26 21 26 C21 27.98 21 29.96 21 32 C14.07 32 7.14 32 0 32 C0 21.44 0 10.88 0 0 Z " fill="#EF9B0F" transform="translate(923,846)"/>
<path d="M0 0 C6.6 0 13.2 0 20 0 C20 1.98 20 3.96 20 6 C15.71 6 11.42 6 7 6 C7 7.98 7 9.96 7 12 C10.63 12 14.26 12 18 12 C18 13.98 18 15.96 18 18 C14.37 18 10.74 18 7 18 C7 20.64 7 23.28 7 26 C11.62 26 16.24 26 21 26 C21 27.98 21 29.96 21 32 C14.07 32 7.14 32 0 32 C0 21.44 0 10.88 0 0 Z " fill="#F79F0F" transform="translate(602,846)"/>
<path d="M0 0 C6.6 0 13.2 0 20 0 C20 1.98 20 3.96 20 6 C15.71 6 11.42 6 7 6 C7 7.98 7 9.96 7 12 C10.63 12 14.26 12 18 12 C18 13.98 18 15.96 18 18 C14.37 18 10.74 18 7 18 C7 20.64 7 23.28 7 26 C11.62 26 16.24 26 21 26 C21 27.98 21 29.96 21 32 C14.07 32 7.14 32 0 32 C0 21.44 0 10.88 0 0 Z " fill="#F19C0E" transform="translate(794,846)"/>
<path d="M0 0 C3.4375 1.5 3.4375 1.5 6 3 C6 6 6 6 4 9 C3.29875 8.67 2.5975 8.34 1.875 8 C-1.26003116 6.90955438 -3.70563182 6.84677357 -7 7 C-6.07134123 10.14274917 -5.54140819 11.65732483 -2.72265625 13.44140625 C-1.40587891 13.99634766 -1.40587891 13.99634766 -0.0625 14.5625 C3.6919098 16.16047413 5.96006334 17.38466671 8 21 C8 27.97368421 8 27.97368421 4.625 31.4375 C0.28963856 34.01807228 -3.00355847 34.3387418 -8 34 C-11.4375 32.5 -11.4375 32.5 -14 31 C-14 29.68 -14 28.36 -14 27 C-12.25 25.875 -12.25 25.875 -10 25 C-8.66666667 25.66666667 -7.33333333 26.33333333 -6 27 C-2.81477796 26.69196545 -2.81477796 26.69196545 0 26 C0 25.01 0 24.02 0 23 C-0.83144531 22.62488281 -1.66289062 22.24976563 -2.51953125 21.86328125 C-4.14955078 21.09564453 -4.14955078 21.09564453 -5.8125 20.3125 C-6.89144531 19.81363281 -7.97039062 19.31476562 -9.08203125 18.80078125 C-12.28697027 16.82290054 -13.48828298 15.41595003 -15 12 C-15 8.4375 -15 8.4375 -14 5 C-9.41696999 0.53448358 -6.35440641 -0.42362709 0 0 Z " fill="#F1990F" transform="translate(252,845)"/>
<path d="M0 0 C6.27 0 12.54 0 19 0 C19 1.98 19 3.96 19 6 C14.71 6 10.42 6 6 6 C6 8.31 6 10.62 6 13 C9.63 13 13.26 13 17 13 C17 14.65 17 16.3 17 18 C13.37 18 9.74 18 6 18 C6 20.64 6 23.28 6 26 C10.62 26 15.24 26 20 26 C20 27.98 20 29.96 20 32 C13.4 32 6.8 32 0 32 C0 21.44 0 10.88 0 0 Z " fill="#FBA20E" transform="translate(156,846)"/>
<path d="M0 0 C2.5625 2.0625 2.5625 2.0625 4 4 C3.01 5.32 2.02 6.64 1 8 C0.01 7.67 -0.98 7.34 -2 7 C-5.5 6.58333333 -5.5 6.58333333 -9 7 C-11.09435699 9.10883411 -11.91727344 10.4939081 -12.3984375 13.4375 C-12.39070312 14.283125 -12.38296875 15.12875 -12.375 16 C-12.38273438 16.845625 -12.39046875 17.69125 -12.3984375 18.5625 C-11.91754929 21.50440435 -11.09042646 22.89026244 -9 25 C-5.1345378 25.35140565 -1.70432927 25.18538537 2 24 C2.66 25.65 3.32 27.3 4 29 C0.79593131 32.20406869 -2.40141929 32.71944684 -6.75390625 33.0625 C-10.16988788 32.9674466 -12.22041129 31.93924794 -15 30 C-20.26486805 24.16595703 -20.35250694 20.16267853 -20.2734375 12.4296875 C-19.93039364 8.12693739 -19.1017052 6.0221743 -16 3 C-11.01216773 -1.19959971 -6.24212983 -1.94012143 0 0 Z " fill="#F19A0F" transform="translate(900,846)"/>
<path d="M0 0 C-2.05731504 1.67633077 -3.81902963 2.93152472 -6.3125 3.875 C-8.72138997 4.88337255 -10.31117408 5.89078483 -12.375 7.4375 C-15.13217081 9.47875307 -17.79188563 10.79633129 -20.9921875 12.06640625 C-25.59817956 14.20810295 -29.76977584 17.20769406 -34 20 C-34.80050781 20.52078125 -35.60101563 21.0415625 -36.42578125 21.578125 C-40.89127363 24.50884539 -45.17501268 27.59243424 -49.37109375 30.8984375 C-51 32 -51 32 -53 32 C-53 32.66 -53 33.32 -53 34 C-53.66 34 -54.32 34 -55 34 C-55.33 34.99 -55.66 35.98 -56 37 C-57.65848177 38.01351664 -59.32665961 39.01120795 -61 40 C-61.86625 40.86625 -62.7325 41.7325 -63.625 42.625 C-66 45 -66 45 -69 46 C-69.15210938 46.61359375 -69.30421875 47.2271875 -69.4609375 47.859375 C-70.16952554 50.67318838 -71.37475926 51.46023324 -73.625 53.25 C-77.84610692 56.77774821 -81.73094995 60.55613508 -85 65 C-85 65.66 -85 66.32 -85 67 C-85.721875 67.53625 -86.44375 68.0725 -87.1875 68.625 C-90.2901918 71.24505085 -91.89903226 73.80318693 -93.88671875 77.29296875 C-95 79 -95 79 -97 80 C-97.33 80.99 -97.66 81.98 -98 83 C-98.66 83 -99.32 83 -100 83 C-100 83.99 -100 84.98 -100 86 C-100.66 86 -101.32 86 -102 86 C-102 86.99 -102 87.98 -102 89 C-102.66 89 -103.32 89 -104 89 C-104.2578125 89.85722656 -104.515625 90.71445313 -104.78125 91.59765625 C-106.45462468 96.26916056 -108.89853407 100.37856316 -111.34375 104.68359375 C-113.07265484 108.14548104 -114.05536531 111.26396981 -115 115 C-115.66 115 -116.32 115 -117 115 C-117.99 119.95 -117.99 119.95 -119 125 C-119.66 125 -120.32 125 -121 125 C-121.495 125.99 -121.495 125.99 -122 127 C-120.65262634 119.27882282 -117.87749903 112.82933132 -114.4375 105.8125 C-113.89955811 104.70624268 -113.36161621 103.59998535 -112.80737305 102.46020508 C-108.73032039 94.20494572 -104.35910433 86.48900477 -99 79 C-97.94425781 77.50919922 -97.94425781 77.50919922 -96.8671875 75.98828125 C-83.3096096 57.40127929 -67.54865839 40.64179986 -49 27 C-48.42926758 26.57380371 -47.85853516 26.14760742 -47.27050781 25.70849609 C-35.68243216 17.07136018 -23.4376728 9.77355891 -10.75 2.875 C-9.65884888 2.2706311 -9.65884888 2.2706311 -8.5456543 1.65405273 C-3.35038913 -1.11679638 -3.35038913 -1.11679638 0 0 Z " fill="#F39E0F" transform="translate(397,141)"/>
<path d="M0 0 C0.33 0 0.66 0 1 0 C2.28473416 5.08958221 3.5664051 10.17992208 4.84521484 15.27099609 C5.28089149 17.00363112 5.71741174 18.73605424 6.15478516 20.46826172 C6.78248244 22.95485391 7.40716458 25.4421867 8.03125 27.9296875 C8.22811401 28.70682098 8.42497803 29.48395447 8.62780762 30.28463745 C10 35.77225659 10 35.77225659 10 38 C3.73 38 -2.54 38 -9 38 C-7.43046298 29.70840543 -5.44714965 21.55409475 -3.375 13.375 C-3.0466531 12.07167047 -2.71852663 10.76828538 -2.390625 9.46484375 C-1.59590679 6.30934499 -0.79898371 3.1544209 0 0 Z " fill="#05131C" transform="translate(467,735)"/>
<path d="M0 0 C8.25 0 16.5 0 25 0 C25 1.98 25 3.96 25 6 C22.36 6 19.72 6 17 6 C17 14.58 17 23.16 17 32 C14.36 32 11.72 32 9 32 C9 23.42 9 14.84 9 6 C6.03 6 3.06 6 0 6 C0 4.02 0 2.04 0 0 Z " fill="#ED980E" transform="translate(558,846)"/>
<path d="M0 0 C8.25 0 16.5 0 25 0 C25 1.98 25 3.96 25 6 C22.03 6 19.06 6 16 6 C16 14.58 16 23.16 16 32 C13.69 32 11.38 32 9 32 C9 23.42 9 14.84 9 6 C6.03 6 3.06 6 0 6 C0 4.02 0 2.04 0 0 Z " fill="#FCA20E" transform="translate(374,846)"/>
<path d="M0 0 C2.31 0 4.62 0 7 0 C7 8.58 7 17.16 7 26 C11.29 26 15.58 26 20 26 C20 27.98 20 29.96 20 32 C13.4 32 6.8 32 0 32 C0 21.44 0 10.88 0 0 Z " fill="#FCA80D" transform="translate(682,846)"/>
<path d="M0 0 C2.31 0 4.62 0 7 0 C7 8.58 7 17.16 7 26 C11.29 26 15.58 26 20 26 C20 27.98 20 29.96 20 32 C13.4 32 6.8 32 0 32 C0 21.44 0 10.88 0 0 Z " fill="#FBA20E" transform="translate(643,846)"/>
<path d="M0 0 C0.66 0.33 1.32 0.66 2 1 C-1.12666475 16.32029187 -4.58608117 31.56239057 -8.1184082 46.79345703 C-8.75455826 49.53843507 -9.38542677 52.28455018 -10.01196289 55.03173828 C-10.92650419 59.04170532 -11.85522739 63.04826043 -12.78515625 67.0546875 C-13.06335709 68.2817038 -13.34155792 69.50872009 -13.62818909 70.7729187 C-13.89534225 71.91246002 -14.16249542 73.05200134 -14.43774414 74.22607422 C-14.66772598 75.22355682 -14.89770782 76.22103943 -15.13465881 77.24874878 C-16.05222538 80.1660445 -17.32823507 82.44992411 -19 85 C-20.65 84.67 -22.3 84.34 -24 84 C-24.29132813 83.04480469 -24.58265625 82.08960938 -24.8828125 81.10546875 C-30.44712158 63.33982023 -38.37103133 50.3868197 -55 41 C-53.20922852 40.36010742 -53.20922852 40.36010742 -51 40 C-49.30834961 40.86450195 -49.30834961 40.86450195 -47.65234375 42.23828125 C-47.04712891 42.72876953 -46.44191406 43.21925781 -45.81835938 43.72460938 C-44.88733398 44.51061523 -44.88733398 44.51061523 -43.9375 45.3125 C-42.69717184 46.33010669 -41.45630559 47.34705795 -40.21484375 48.36328125 C-39.66948975 48.82001221 -39.12413574 49.27674316 -38.56225586 49.74731445 C-37.10515247 50.91568412 -35.55400579 51.96399614 -34 53 C-32.99609375 54.76171875 -32.99609375 54.76171875 -32 57 C-31.53722656 57.91394531 -31.07445312 58.82789063 -30.59765625 59.76953125 C-26.91637414 67.06652555 -23.47535277 74.19311819 -21 82 C-20.01 81.67 -19.02 81.34 -18 81 C-18.04125 79.80375 -18.0825 78.6075 -18.125 77.375 C-18.125 73.51481559 -17.29041835 70.65618533 -16 67 C-15.43478375 64.10479158 -14.94022593 61.20419348 -14.46484375 58.29296875 C-14 56 -14 56 -13 55 C-12.76227663 53.3698969 -12.52860861 51.73909009 -12.31640625 50.10546875 C-11.55044914 45.00854427 -10.26246291 39.99349171 -9 35 C-8.34 35 -7.68 35 -7 35 C-7.04125 33.824375 -7.0825 32.64875 -7.125 31.4375 C-7.11922786 28.11851679 -6.67084459 25.35931353 -5.63671875 22.18359375 C-4.41402242 17.99042046 -3.65098328 13.68010797 -2.78125 9.40234375 C-2.04085115 6.17790674 -1.10085289 3.11750151 0 0 Z " fill="#E84A1B" transform="translate(428,556)"/>
<path d="M0 0 C2.94737655 3.04562243 3.22906299 5.91984435 3.375 10 C3.22906299 14.08015565 2.94737655 16.95437757 0 20 C-2.9375 21.0625 -2.9375 21.0625 -6 21 C-8.34939689 19.15858081 -9.6699947 17.6600106 -11 15 C-11.43008598 10.3269504 -11.56413789 6.25648894 -9.625 1.9375 C-6.61070584 -1.65646611 -4.35046316 -1.24298948 0 0 Z " fill="#08101D" transform="translate(433,852)"/>
<path d="M0 0 C2.31 0 4.62 0 7 0 C7 10.56 7 21.12 7 32 C4.69 32 2.38 32 0 32 C0 21.44 0 10.88 0 0 Z " fill="#F19B0D" transform="translate(486,846)"/>
<path d="M0 0 C2.31 0 4.62 0 7 0 C7 10.56 7 21.12 7 32 C4.69 32 2.38 32 0 32 C0 21.44 0 10.88 0 0 Z " fill="#ED9A0E" transform="translate(81,846)"/>
<path d="M0 0 C2.31 0 4.62 0 7 0 C7 10.56 7 21.12 7 32 C4.69 32 2.38 32 0 32 C0 21.44 0 10.88 0 0 Z " fill="#FBA20D" transform="translate(721,846)"/>
<path d="M0 0 C2.31 0 4.62 0 7 0 C7 10.56 7 21.12 7 32 C4.69 32 2.38 32 0 32 C0 21.44 0 10.88 0 0 Z " fill="#EC970E" transform="translate(303,846)"/>
<path d="M0 0 C0.33 0 0.66 0 1 0 C0.62150685 4.76901365 0.15235238 8.90182374 -1.5625 13.375 C-4.35460679 21.47238678 -3.8272013 28.03518487 -0.0703125 35.75 C1.20636929 38.18872286 2.53706964 40.59449071 3.875 43 C4.57090218 44.29120653 5.26456625 45.58362165 5.95605469 46.87719727 C7.3266754 49.43387187 8.70851365 51.98384409 10.10253906 54.52783203 C12.53200082 58.97350948 14.89645298 63.45134121 17.25 67.9375 C17.82705688 69.02732178 17.82705688 69.02732178 18.41577148 70.13916016 C22.17938715 77.26615771 25.76837248 84.47952304 29.33496094 91.70678711 C31.07540563 95.22154356 32.76765299 98.63578036 34.87890625 101.9453125 C35.24886719 102.62335938 35.61882813 103.30140625 36 104 C35.505 105.485 35.505 105.485 35 107 C29.97318952 98.10007324 24.99102276 89.18403301 20.375 80.0625 C20.03275391 79.39541016 19.69050781 78.72832031 19.33789062 78.04101562 C17.8991956 75.16063452 17 73.26538828 17 70 C16.34 70 15.68 70 15 70 C14.43410156 68.85660156 13.86820313 67.71320313 13.28515625 66.53515625 C10.71387499 61.3914615 7.99644836 56.32897183 5.26757812 51.26757812 C-1 39.53321976 -1 39.53321976 -1 36 C-1.66 36 -2.32 36 -3 36 C-3.33 34.02 -3.66 32.04 -4 30 C-4.66 30 -5.32 30 -6 30 C-6.33 27.03 -6.66 24.06 -7 21 C-6.34 21 -5.68 21 -5 21 C-5 18.36 -5 15.72 -5 13 C-4.34 13 -3.68 13 -3 13 C-2.95101562 12.31292969 -2.90203125 11.62585938 -2.8515625 10.91796875 C-2.77679687 10.01691406 -2.70203125 9.11585938 -2.625 8.1875 C-2.55539062 7.29417969 -2.48578125 6.40085937 -2.4140625 5.48046875 C-2 3 -2 3 0 0 Z " fill="#0FABC6" transform="translate(755,317)"/>
<path d="M0 0 C6 0 6 0 8.875 1.875 C11.85297558 6.25437585 11.8946994 9.85125816 11 15 C9.4375 18.125 9.4375 18.125 7 20 C4.69 20 2.38 20 0 20 C0 13.4 0 6.8 0 0 Z " fill="#030D1D" transform="translate(117,852)"/>
<path d="M0 0 C1.72987291 0.04235509 3.45961245 0.09038124 5.18920898 0.14282227 C6.09783188 0.16643326 7.00645477 0.19004425 7.94261169 0.21437073 C10.85699319 0.29120702 13.77112217 0.37514488 16.68530273 0.45922852 C18.65599333 0.51242924 20.6266964 0.56516975 22.59741211 0.61743164 C27.43937019 0.74684904 32.28111327 0.88263757 37.12280273 1.02172852 C37.12280273 1.35172852 37.12280273 1.68172852 37.12280273 2.02172852 C23.92280273 2.02172852 10.72280273 2.02172852 -2.87719727 2.02172852 C-2.87719727 27.43172852 -2.87719727 52.84172852 -2.87719727 79.02172852 C-5.31459588 76.5843299 -5.11537424 75.28694609 -5.137146 71.9609375 C-5.13152649 71.25904297 -5.12590698 70.55714844 -5.12011719 69.83398438 C-5.12201553 69.09402725 -5.12391388 68.35407013 -5.12586975 67.59169006 C-5.12958188 65.13987719 -5.11886816 62.68835892 -5.10766602 60.23657227 C-5.10647446 58.53788793 -5.106021 56.83920292 -5.10627747 55.14051819 C-5.1047119 51.57866295 -5.09641602 48.01690811 -5.08300781 44.45507812 C-5.06600495 39.87927264 -5.06219379 35.30357747 -5.062953 30.7277441 C-5.06268167 27.22000568 -5.05720681 23.71229159 -5.04995155 20.20456123 C-5.04675971 18.51678209 -5.04479628 16.82900018 -5.04405785 15.14121819 C-5.04190045 12.78745658 -5.03316974 10.43381429 -5.02246094 8.08007812 C-5.02291412 7.37615936 -5.02336731 6.6722406 -5.02383423 5.94699097 C-4.98426327 0.02793271 -4.98426327 0.02793271 0 0 Z " fill="#141A22" transform="translate(528.877197265625,716.978271484375)"/>
<path d="M0 0 C0 4.24578043 -2.39551141 6.57745329 -4.8125 9.875 C-20.42715773 32.03544039 -29.23743288 56.42988872 -34 83 C-34.33 83 -34.66 83 -35 83 C-35.02709444 80.91673869 -35.04643873 78.83337559 -35.0625 76.75 C-35.07410156 75.58984375 -35.08570313 74.4296875 -35.09765625 73.234375 C-35.01782092 70.59022872 -34.78643778 68.50173909 -34 66 C-33.34 66 -32.68 66 -32 66 C-31.87625 64.989375 -31.7525 63.97875 -31.625 62.9375 C-30.57219752 56.30484441 -28.36661013 50.25451294 -26 44 C-25.46436351 42.57309685 -24.92920455 41.14601435 -24.39453125 39.71875 C-22.9296875 35.8125 -21.46484375 31.90625 -20 28 C-19.34 28 -18.68 28 -18 28 C-17.82984375 27.39671875 -17.6596875 26.7934375 -17.484375 26.171875 C-16.00890183 21.30595283 -14.75100677 18.51656885 -11 15 C-10.505 13.845 -10.01 12.69 -9.5 11.5 C-8.04154504 8.09693842 -6.85302846 6.3008294 -4 4 C-3.34 4 -2.68 4 -2 4 C-1.34 2.68 -0.68 1.36 0 0 Z " fill="#F19111" transform="translate(387,252)"/>
<path d="M0 0 C0.66 0.66 1.32 1.32 2 2 C1.3503125 2.69867188 0.700625 3.39734375 0.03125 4.1171875 C-0.8040625 5.02726563 -1.639375 5.93734375 -2.5 6.875 C-3.3353125 7.77992188 -4.170625 8.68484375 -5.03125 9.6171875 C-7.21231559 11.74181632 -7.21231559 11.74181632 -7 14 C-7.721875 14.53625 -8.44375 15.0725 -9.1875 15.625 C-12.2901918 18.24505085 -13.89903226 20.80318693 -15.88671875 24.29296875 C-17 26 -17 26 -19 27 C-19.33 27.99 -19.66 28.98 -20 30 C-20.66 30 -21.32 30 -22 30 C-22 30.99 -22 31.98 -22 33 C-22.66 33 -23.32 33 -24 33 C-24 33.99 -24 34.98 -24 36 C-24.66 36 -25.32 36 -26 36 C-26.2578125 36.85722656 -26.515625 37.71445313 -26.78125 38.59765625 C-28.45462468 43.26916056 -30.89853407 47.37856316 -33.34375 51.68359375 C-35.07265484 55.14548104 -36.05536531 58.26396981 -37 62 C-37.66 62 -38.32 62 -39 62 C-39.99 66.95 -39.99 66.95 -41 72 C-41.66 72 -42.32 72 -43 72 C-43.495 72.99 -43.495 72.99 -44 74 C-42.65262634 66.27882282 -39.87749903 59.82933132 -36.4375 52.8125 C-35.89955811 51.70624268 -35.36161621 50.59998535 -34.80737305 49.46020508 C-30.73032039 41.20494572 -26.35910433 33.48900477 -21 26 C-19.94425781 24.50919922 -19.94425781 24.50919922 -18.8671875 22.98828125 C-13.01077752 14.95933208 -6.53580979 7.47581628 0 0 Z " fill="#F08E13" transform="translate(319,194)"/>
<path d="M0 0 C2.31 0 4.62 0 7 0 C6.67 0.66 6.34 1.32 6 2 C4.35 1.67 2.7 1.34 1 1 C1.33 4.96 1.66 8.92 2 13 C2.33 12.01 2.66 11.02 3 10 C3.66 10 4.32 10 5 10 C6.20029908 12.40059817 6.11459743 13.89360649 6.09765625 16.5703125 C6.09282227 17.91416016 6.09282227 17.91416016 6.08789062 19.28515625 C6.07951172 20.22230469 6.07113281 21.15945313 6.0625 22.125 C6.05798828 23.06988281 6.05347656 24.01476562 6.04882812 24.98828125 C6.03702357 27.32558387 6.02055759 29.66276061 6 32 C4.02 32 2.04 32 0 32 C0 21.44 0 10.88 0 0 Z " fill="#FAA70E" transform="translate(835,846)"/>
<path d="M0 0 C3.8125 0.1875 3.8125 0.1875 6.82421875 0.69921875 C12.00552669 1.46735575 17.21345754 1.25379496 22.4375 1.1875 C24.47129957 1.1618854 26.5051637 1.14088983 28.5390625 1.125 C29.43189941 1.11339844 30.32473633 1.10179687 31.24462891 1.08984375 C33.86968936 1.18967491 36.24639364 1.64782185 38.8125 2.1875 C40.8121441 2.22522913 42.81304061 2.23399906 44.8125 2.1875 C44.8125 2.8475 44.8125 3.5075 44.8125 4.1875 C45.92625 3.878125 45.92625 3.878125 47.0625 3.5625 C50.13580841 3.14341249 51.24036866 3.56800989 53.8125 5.1875 C53.4825 5.8475 53.1525 6.5075 52.8125 7.1875 C52.1014209 7.04965088 51.3903418 6.91180176 50.65771484 6.76977539 C42.88885231 5.35731223 35.32245868 4.81367299 27.4375 4.625 C25.06244845 4.55244967 22.68744674 4.47824782 20.3125 4.40234375 C18.62833984 4.34989502 18.62833984 4.34989502 16.91015625 4.29638672 C9.49721721 4.0358121 2.07651916 3.77237691 -5.1875 2.1875 C-3.1875 0.1875 -3.1875 0.1875 0 0 Z " fill="#E2491B" transform="translate(311.1875,585.8125)"/>
<path d="M0 0 C0 0.66 0 1.32 0 2 C-2.31 2.66 -4.62 3.32 -7 4 C-7.0825 4.61875 -7.165 5.2375 -7.25 5.875 C-8 8 -8 8 -9.875 9 C-10.57625 9.33 -11.2775 9.66 -12 10 C-14.51836025 12.51836025 -14.97908906 13.63754379 -15.1875 17.25 C-15.125625 18.1575 -15.06375 19.065 -15 20 C-14.34 20 -13.68 20 -13 20 C-11.31267723 21.98260426 -9.64633943 23.9832342 -8 26 C-7.34 26.33 -6.68 26.66 -6 27 C-6.33 43.17 -6.66 59.34 -7 76 C-7.33 76 -7.66 76 -8 76 C-7.9969838 75.42894531 -7.99396759 74.85789062 -7.99085999 74.26953125 C-7.96620162 68.29872242 -7.99055073 62.3295079 -8.04272461 56.35888672 C-8.05582365 54.13399029 -8.05663605 51.90898489 -8.04467773 49.68408203 C-8.02960531 46.47580826 -8.05944381 43.27052903 -8.09765625 40.0625 C-8.08340103 39.07572266 -8.06914581 38.08894531 -8.05445862 37.07226562 C-8.21161129 29.49061357 -10.6892807 26.18291549 -16 21 C-18 18 -18 18 -18 15.25 C-15.8477417 8.25516052 -7.8626872 -1.15627753 0 0 Z " fill="#D47E11" transform="translate(599,335)"/>
<path d="M0 0 C2.04159095 -0.0272616 4.08328963 -0.04651345 6.125 -0.0625 C7.26195312 -0.07410156 8.39890625 -0.08570312 9.5703125 -0.09765625 C12.8129156 -0.005327 15.81932612 0.38610094 19 1 C19 1.33 19 1.66 19 2 C17.2300132 2.19532961 15.45895721 2.38098882 13.6875 2.5625 C12.70136719 2.66691406 11.71523438 2.77132812 10.69921875 2.87890625 C8 3 8 3 5 2 C10.57607632 8.59928078 16.59429022 14.61466774 22.859375 20.55664062 C28.48663634 26.04775855 33.18335319 31.5312681 34.62890625 39.44140625 C34.48090139 46.39763452 33.72039942 51.07061342 30 57 C29 55 29 55 29.55859375 53.08203125 C29.99365234 51.95861328 29.99365234 51.95861328 30.4375 50.8125 C32.59576683 44.58634775 32.7833609 39.36687622 30.22070312 33.14306641 C25.28217164 24.47298053 16.48738411 17.38393754 9.4375 10.4375 C7.64229344 8.66763157 5.84919376 6.89562256 4.05859375 5.12109375 C3.27798584 4.3520874 2.49737793 3.58308105 1.69311523 2.79077148 C0 1 0 1 0 0 Z " fill="#0B5B6F" transform="translate(530,117)"/>
<path d="M0 0 C0.99 0 1.98 0 3 0 C3.28875 0.78375 3.5775 1.5675 3.875 2.375 C4.84912254 5.09671632 4.84912254 5.09671632 7 7 C7.60713803 8.85483454 8.14131052 10.73421385 8.625 12.625 C9.01558594 14.12933594 9.01558594 14.12933594 9.4140625 15.6640625 C9.60742188 16.43492187 9.80078125 17.20578125 10 18 C7.36 18 4.72 18 2 18 C1.34 15.36 0.68 12.72 0 10 C-2.97 9.67 -5.94 9.34 -9 9 C-9 8.67 -9 8.34 -9 8 C-6.03 7.34 -3.06 6.68 0 6 C0 4.02 0 2.04 0 0 Z " fill="#F89B0F" transform="translate(211,860)"/>
<path d="M0 0 C0.33 0 0.66 0 1 0 C1.33 4.95 1.66 9.9 2 15 C8.93 15.495 8.93 15.495 16 16 C16 17.32 16 18.64 16 20 C10.06 20 4.12 20 -2 20 C-2.04125 17.07125 -2.0825 14.1425 -2.125 11.125 C-2.14320801 10.20348145 -2.16141602 9.28196289 -2.18017578 8.33251953 C-2.1851709 7.60661621 -2.19016602 6.88071289 -2.1953125 6.1328125 C-2.21102295 5.01737061 -2.21102295 5.01737061 -2.22705078 3.87939453 C-2 2 -2 2 0 0 Z " fill="#FA9710" transform="translate(686,857)"/>
<path d="M0 0 C4.875 1.875 4.875 1.875 6 3 C9.03334674 3.4572657 12.07208364 3.83648247 15.1171875 4.20703125 C18 5 18 5 19.9453125 6.76171875 C21.32897022 9.69814791 21.0886713 10.96592043 20 14 C18.4765625 16.09765625 18.4765625 16.09765625 16.625 18.0625 C13.14650182 21.80003527 10.16192613 25.34354372 8 30 C7.34 30 6.68 30 6 30 C6.42058067 24.88662454 7.681829 22.75569917 11.4375 19.3125 C14.02349322 16.90914514 16.03296107 14.95055839 18 12 C17.69159401 9.84725052 17.69159401 9.84725052 17 8 C16.11957031 7.91363281 15.23914063 7.82726562 14.33203125 7.73828125 C3.66450784 6.44775955 3.66450784 6.44775955 0.6875 3.375 C0.130625 2.59125 -0.42625 1.8075 -1 1 C-0.67 0.67 -0.34 0.34 0 0 Z " fill="#EA561A" transform="translate(258,485)"/>
<path d="M0 0 C0.66 0 1.32 0 2 0 C0.125 3.875 0.125 3.875 -1 5 C-1.12263388 6.56448383 -1.17779522 8.13432772 -1.20532227 9.70336914 C-1.22526749 10.70433121 -1.24521271 11.70529327 -1.26576233 12.73658752 C-1.28247482 13.8251152 -1.29918732 14.91364288 -1.31640625 16.03515625 C-1.33718735 17.14354355 -1.35796844 18.25193085 -1.37937927 19.39390564 C-1.44499623 22.95003808 -1.50381596 26.50624703 -1.5625 30.0625 C-1.60567368 32.46680493 -1.64928758 34.87110199 -1.69335938 37.27539062 C-1.80068992 43.18351185 -1.90243331 49.09170991 -2 55 C-2.66 55 -3.32 55 -4 55 C-4.14285332 48.2190033 -4.28522015 41.4379965 -4.42724609 34.65698242 C-4.47563612 32.34936287 -4.5241382 30.04174567 -4.57275391 27.73413086 C-4.64254631 24.42041624 -4.71193791 21.10669344 -4.78125 17.79296875 C-4.80312378 16.7585112 -4.82499756 15.72405365 -4.84753418 14.6582489 C-4.86755493 13.6974794 -4.88757568 12.7367099 -4.90820312 11.74682617 C-4.92596802 10.90077316 -4.94373291 10.05472015 -4.96203613 9.18302917 C-4.99207747 7.45556764 -5 5.72772274 -5 4 C-3.35 3.34 -1.7 2.68 0 2 C0 1.34 0 0.68 0 0 Z " fill="#DD8213" transform="translate(606,358)"/>
<path d="M0 0 C0.625 2.875 0.625 2.875 1 6 C0.34 6.66 -0.32 7.32 -1 8 C-1.02253443 10.44963177 -1.02253443 10.44963177 -0.625 13.125 C-0.51414063 14.03507813 -0.40328125 14.94515625 -0.2890625 15.8828125 C-0.19367188 16.58148437 -0.09828125 17.28015625 0 18 C-2.31 18 -4.62 18 -7 18 C-6.67 13.71 -6.34 9.42 -6 5 C-7.98 5.99 -7.98 5.99 -10 7 C-9.6875 4.625 -9.6875 4.625 -9 2 C-5.5647952 -0.29013653 -4.014669 -0.17842973 0 0 Z " fill="#F1950F" transform="translate(210,847)"/>
<path d="M0 0 C11.55 0.33 23.1 0.66 35 1 C35 1.99 35 2.98 35 4 C30.49765627 4.04944705 25.9954707 4.08574161 21.49291992 4.10986328 C19.96131639 4.11991935 18.42973205 4.133566 16.89819336 4.15087891 C14.69640364 4.17514498 12.49486781 4.18648688 10.29296875 4.1953125 C9.60849167 4.20563507 8.92401459 4.21595764 8.21879578 4.22659302 C4.56938339 4.22745382 3.12851498 4.08567666 0 2 C0 1.34 0 0.68 0 0 Z " fill="#CF341B" transform="translate(493,579)"/>
<path d="M0 0 C2.93713535 2.06987098 5.44036026 4.48766366 8 7 C8.99 7.845625 9.98 8.69125 11 9.5625 C13 12 13 12 13.75 14.8125 C12.61643718 19.63014199 9.5392603 22.64490935 6 26 C5.34 26.33 4.68 26.66 4 27 C5.17314036 24.22712279 6.65410934 22.17638712 8.625 19.9375 C11.31436107 17.24076887 11.31436107 17.24076887 11 14 C9.68662604 12.9739266 8.35335895 11.97272675 7 11 C7 10.34 7 9.68 7 9 C6.34 8.67 5.68 8.34 5 8 C4.38125 7.175 3.7625 6.35 3.125 5.5 C1.25059284 2.97392715 1.25059284 2.97392715 -0.9375 2 C-4.03970431 2 -5.53971793 3.15478844 -8 5 C-8.66 5.86625 -9.32 6.7325 -10 7.625 C-12 10 -12 10 -14.75 10.8125 C-15.4925 10.874375 -16.235 10.93625 -17 11 C-6.80811912 -1.46841785 -6.80811912 -1.46841785 0 0 Z " fill="#EF6519" transform="translate(515,469)"/>
<path d="M0 0 C0.66 0.33 1.32 0.66 2 1 C1.67 1.99 1.34 2.98 1 4 C0.34 4 -0.32 4 -1 4 C-1.12117187 4.59167969 -1.24234375 5.18335938 -1.3671875 5.79296875 C-2.26744643 10.03803585 -3.20456621 14.02439661 -5 18 C-5.66 18 -6.32 18 -7 18 C-6.67 18.99 -6.34 19.98 -6 21 C-6.45375 21.391875 -6.9075 21.78375 -7.375 22.1875 C-9.30892437 24.34456949 -9.95593607 26.29771687 -11 29 C-12.2763149 31.3702991 -13.63461949 33.67885313 -15 36 C-15.66 35.01 -16.32 34.02 -17 33 C-14.74220516 28.45974947 -12.48182126 23.92080122 -10.21899414 19.38305664 C-9.44906891 17.83816761 -8.67986101 16.29292088 -7.91137695 14.74731445 C-6.80867473 12.52982365 -5.70342586 10.31361874 -4.59765625 8.09765625 C-4.25283707 7.4028566 -3.90801788 6.70805695 -3.55274963 5.99220276 C-1.11387171 1.11387171 -1.11387171 1.11387171 0 0 Z " fill="#E7611A" transform="translate(250,390)"/>
<path d="M0 0 C1.32 0 2.64 0 4 0 C4 9.9 4 19.8 4 30 C3.67 30 3.34 30 3 30 C2.67 27.03 2.34 24.06 2 21 C1.01 20.67 0.02 20.34 -1 20 C-0.505 18.515 -0.505 18.515 0 17 C0.07973476 15.66474283 0.10771338 14.32587917 0.09765625 12.98828125 C0.09443359 12.23095703 0.09121094 11.47363281 0.08789062 10.69335938 C0.07532227 9.51483398 0.07532227 9.51483398 0.0625 8.3125 C0.05798828 7.51521484 0.05347656 6.71792969 0.04882812 5.89648438 C0.0370585 3.93095743 0.01912348 1.96546915 0 0 Z " fill="#F7930F" transform="translate(854,847)"/>
<path d="M0 0 C2 2 2 2 2 5 C5.3 4.67 8.6 4.34 12 4 C13.36952673 6.73905345 13.12621361 8.97087332 13 12 C12.67 12.66 12.34 13.32 12 14 C8.7 14 5.4 14 2 14 C2 15.32 2 16.64 2 18 C4.64 18 7.28 18 10 18 C10 18.66 10 19.32 10 20 C6.7 20 3.4 20 0 20 C0 17.36 0 14.72 0 12 C3.63 12 7.26 12 11 12 C11 10.02 11 8.04 11 6 C7.37 6 3.74 6 0 6 C0 4.02 0 2.04 0 0 Z " fill="#15111D" transform="translate(930,852)"/>
<path d="M0 0 C0.33 0 0.66 0 1 0 C1 8.58 1 17.16 1 26 C5.29 26 9.58 26 14 26 C14 27.98 14 29.96 14 32 C11.36 31.67 8.72 31.34 6 31 C6 30.34 6 29.68 6 29 C4.02 28.34 2.04 27.68 0 27 C0 18.09 0 9.18 0 0 Z " fill="#E59210" transform="translate(649,846)"/>
<path d="M0 0 C1.48700668 2.97401336 1.00619932 5.94818926 0.87890625 9.1953125 C0.85529526 9.90275604 0.83168427 10.61019958 0.80735779 11.33908081 C0.73071166 13.60125755 0.64669188 15.86309273 0.5625 18.125 C0.50928023 19.6575353 0.45653982 21.19008734 0.40429688 22.72265625 C0.27509533 26.48198761 0.13927963 30.24102908 0 34 C-0.33 34 -0.66 34 -1 34 C-1 23.44 -1 12.88 -1 2 C-2.98 2 -4.96 2 -7 2 C-7 6.62 -7 11.24 -7 16 C-9.35119399 12.47320901 -9.21443452 10.97120515 -9.125 6.8125 C-9.10695313 5.72582031 -9.08890625 4.63914062 -9.0703125 3.51953125 C-9.04710937 2.68808594 -9.02390625 1.85664062 -9 1 C-6.04335481 -0.4783226 -3.25770263 -0.06032783 0 0 Z " fill="#3D2819" transform="translate(860,844)"/>
<path d="M0 0 C0.33 0 0.66 0 1 0 C2.38248129 8.10697767 3.2689932 16.16967954 3.75 24.375 C3.80663818 25.20612305 3.86327637 26.03724609 3.92163086 26.89355469 C4.20129844 32.34734502 3.56477527 36.7640212 2 42 C1.67 42 1.34 42 1 42 C0.505 21.21 0.505 21.21 0 0 Z " fill="#0A9CB8" transform="translate(672,329)"/>
<path d="M0 0 C2.21573665 1.75730837 2.9402273 2.65698012 3.43359375 5.48828125 C3.44192405 11.51108472 3.21070908 15.33407913 -1 20 C-6.30054047 25.02156465 -11.72365159 26.18716234 -18.875 26.625 C-20.02742187 26.69976562 -21.17984375 26.77453125 -22.3671875 26.8515625 C-23.23601563 26.90054687 -24.10484375 26.94953125 -25 27 C-21.85103373 23.85103373 -17.40657632 23.9699088 -13.1171875 23.40820312 C-7.69067125 22.54581067 -4.83820618 20.98185162 -1 17 C1.25251162 13.10529416 1.1095731 10.09711523 0.625 5.6875 C0.51414062 4.61886719 0.40328125 3.55023438 0.2890625 2.44921875 C0.19367187 1.64097656 0.09828125 0.83273437 0 0 Z " fill="#09A0BC" transform="translate(791,425)"/>
<path d="M0 0 C2.5625 2.0625 2.5625 2.0625 4 4 C2.68 5.32 1.36 6.64 0 8 C-2.31 7.34 -4.62 6.68 -7 6 C-6.01 5.34 -5.02 4.68 -4 4 C-4 3.01 -4 2.02 -4 1 C-7.3 1.33 -10.6 1.66 -14 2 C-9.97499493 -2.02500507 -5.17344801 -1.25133941 0 0 Z " fill="#DB9010" transform="translate(769,846)"/>
<path d="M0 0 C3 1 3 1 4.875 3.4375 C7.18972665 6.22878802 8.6812712 6.77731044 12 8 C14 11 14 11 15 13 C16.65449105 13.38929201 18.32546201 13.708776 20 14 C22.33762223 14.65146849 24.67190457 15.31526605 27 16 C26.67 16.66 26.34 17.32 26 18 C16.445654 16.79343061 7.9359348 11.57999837 2 4 C1.29644052 2.68576019 0.6188682 1.35618007 0 0 Z " fill="#E74A1B" transform="translate(278,569)"/>
<path d="M0 0 C0.33 0 0.66 0 1 0 C1 1.98 1 3.96 1 6 C1.33 4.35 1.66 2.7 2 1 C9.75 1.75 9.75 1.75 12 4 C12.26991906 6.68839385 12.08737357 9.29141936 12 12 C11.67 12 11.34 12 11 12 C11 10.35 11 8.7 11 7 C7.37 7 3.74 7 0 7 C0 4.69 0 2.38 0 0 Z " fill="#31281B" transform="translate(162,852)"/>
<path d="M0 0 C0.99 0.33 1.98 0.66 3 1 C2.835 2.155 2.67 3.31 2.5 4.5 C1.65641938 11.43203201 1.79623128 17.25906037 4 24 C4.34135927 25.33130115 4.67925956 26.66358148 5 28 C4.01 28 3.02 28 2 28 C-0.13540594 21.9384737 -0.23853866 16.45123306 -0.125 10.0625 C-0.11597656 9.09248047 -0.10695313 8.12246094 -0.09765625 7.12304688 C-0.07426107 4.74843593 -0.04148176 2.37435224 0 0 Z " fill="#E94D1A" transform="translate(274,538)"/>
<path d="M0 0 C2.00293347 3.00440021 2.49271626 4.70993945 3.125 8.1875 C3.29257813 9.08855469 3.46015625 9.98960937 3.6328125 10.91796875 C3.75398437 11.60503906 3.87515625 12.29210937 4 13 C1.69 13 -0.62 13 -3 13 C-2.01 8.71 -1.02 4.42 0 0 Z " fill="#13111D" transform="translate(206,852)"/>
<path d="M0 0 C2.04159095 -0.0272616 4.08328963 -0.04651345 6.125 -0.0625 C7.26195312 -0.07410156 8.39890625 -0.08570312 9.5703125 -0.09765625 C12.8129156 -0.005327 15.81932612 0.38610094 19 1 C19 1.33 19 1.66 19 2 C17.2300132 2.19532961 15.45895721 2.38098882 13.6875 2.5625 C12.70136719 2.66691406 11.71523438 2.77132812 10.69921875 2.87890625 C8 3 8 3 5 2 C8.465 5.96 8.465 5.96 12 10 C9 10 9 10 6.73828125 8.06640625 C5.93777344 7.24011719 5.13726563 6.41382812 4.3125 5.5625 C3.50425781 4.73878906 2.69601562 3.91507812 1.86328125 3.06640625 C0 1 0 1 0 0 Z " fill="#0B4C5F" transform="translate(530,117)"/>
<path d="M0 0 C0.99 0 1.98 0 3 0 C4.9375 2.08203125 4.9375 2.08203125 7 4.8125 C9.69558707 8.38804345 9.69558707 8.38804345 12.69921875 11.6953125 C14.38291132 13.3840612 14.77189624 14.64292779 15 17 C13.66666667 18.33333333 12.33333333 19.66666667 11 21 C10 16 10 16 9.75 13.65234375 C8.75595433 10.13694264 6.94919644 8.37568579 4.4375 5.75 C0 1.07020281 0 1.07020281 0 0 Z " fill="#E54F1B" transform="translate(265,516)"/>
<path d="M0 0 C5.38659475 2.3350147 9.41374089 6.42546072 13 11 C13.82405892 15.64469575 13.60521661 17.09217509 11 21 C10.34 21 9.68 21 9 21 C9.33 17.37 9.66 13.74 10 10 C9.34 10 8.68 10 8 10 C6.36502637 8.25839766 4.92214608 6.40190406 3.4375 4.53125 C2.963125 4.0259375 2.48875 3.520625 2 3 C1.34 3 0.68 3 0 3 C0 2.01 0 1.02 0 0 Z " fill="#FAA20E" transform="translate(600,336)"/>
<path d="M0 0 C0.99 1.32 1.98 2.64 3 4 C2.55011719 4.68449219 2.10023438 5.36898437 1.63671875 6.07421875 C-0.14957556 9.2673797 -1.16005331 12.30500956 -2.1875 15.8125 C-2.53167969 16.97394531 -2.87585938 18.13539063 -3.23046875 19.33203125 C-3.48441406 20.21246094 -3.73835937 21.09289062 -4 22 C-4.66 22 -5.32 22 -6 22 C-4.20645194 14.59684417 -2.26858827 7.27235389 0 0 Z " fill="#EA9C10" transform="translate(199,855)"/>
<path d="M0 0 C0.99 0.33 1.98 0.66 3 1 C3 3.64 3 6.28 3 9 C3.66 9.33 4.32 9.66 5 10 C5.59765625 12.43359375 5.59765625 12.43359375 6.0625 15.4375 C6.62385918 19.34893189 6.62385918 19.34893189 8 23 C7.34 23.66 6.68 24.32 6 25 C3.72371337 16.71254868 1.51434102 8.46835441 0 0 Z " fill="#095F75" transform="translate(599,572)"/>
<path d="M0 0 C0.33 0 0.66 0 1 0 C2.64157274 6.56629097 1.49205039 12.73031766 -1 19 C-1.99 19.33 -2.98 19.66 -4 20 C-2.68 13.4 -1.36 6.8 0 0 Z " fill="#EA571A" transform="translate(436,518)"/>
<path d="M0 0 C1.92286539 6.1421024 -0.34472124 11.99204826 -3.125 17.5625 C-4.053125 19.2640625 -4.053125 19.2640625 -5 21 C-6.07406251 17.77781248 -5.97429379 17.12134594 -5.0390625 14.0234375 C-4.81476562 13.270625 -4.59046875 12.5178125 -4.359375 11.7421875 C-4.11703125 10.96101563 -3.8746875 10.17984375 -3.625 9.375 C-3.39039063 8.58609375 -3.15578125 7.7971875 -2.9140625 6.984375 C-1.14959206 1.14959206 -1.14959206 1.14959206 0 0 Z " fill="#0994AF" transform="translate(669,391)"/>
<path d="M0 0 C0 0.33 0 0.66 0 1 C-1.7015625 1.2165625 -1.7015625 1.2165625 -3.4375 1.4375 C-6.80777201 1.61171478 -6.80777201 1.61171478 -8 3 C-10.33333333 3 -12.66666667 3 -15 3 C-15.99 3.495 -15.99 3.495 -17 4 C-19.00800456 3.71887936 -21.01014051 3.38932033 -23 3 C-16.14906735 -1.11055959 -7.68193139 -0.11352608 0 0 Z " fill="#F6B00B" transform="translate(483,118)"/>
<path d="M0 0 C-0.33 2.31 -0.66 4.62 -1 7 C-1.66 7 -2.32 7 -3 7 C-3 9.97 -3 12.94 -3 16 C-6 13 -6 13 -6.1796875 10.87890625 C-4.74873524 0 -4.74873524 0 0 0 Z " fill="#FB9410" transform="translate(888,849)"/>
<path d="M0 0 C2 2 2 2 2.125 5.625 C2.08375 6.73875 2.0425 7.8525 2 9 C2.66 9 3.32 9 4 9 C3.67 10.32 3.34 11.64 3 13 C3.66 13.33 4.32 13.66 5 14 C5.4140625 16.50390625 5.4140625 16.50390625 5.625 19.5625 C5.69976563 20.57441406 5.77453125 21.58632813 5.8515625 22.62890625 C5.92503906 23.80259766 5.92503906 23.80259766 6 25 C3.62315926 22.62315926 3.41196445 21.27099756 2.67578125 18.02734375 C2.45212891 17.04572266 2.22847656 16.06410156 1.99804688 15.05273438 C1.77181641 14.02470703 1.54558594 12.99667969 1.3125 11.9375 C1.07466797 10.90560547 0.83683594 9.87371094 0.59179688 8.81054688 C-0.68248778 3.12671415 -0.68248778 3.12671415 -1 1 C-0.67 0.67 -0.34 0.34 0 0 Z " fill="#0B576A" transform="translate(606,597)"/>
<path d="M0 0 C1.32 0.33 2.64 0.66 4 1 C3.01 1.495 3.01 1.495 2 2 C1.53248212 4.35599235 1.53248212 4.35599235 1.375 7.0625 C1.30023438 7.98160156 1.22546875 8.90070313 1.1484375 9.84765625 C1.09945313 10.55792969 1.05046875 11.26820313 1 12 C-0.32 12.33 -1.64 12.66 -3 13 C-2.88490339 11.58249437 -2.75746342 10.16598831 -2.625 8.75 C-2.55539063 7.96109375 -2.48578125 7.1721875 -2.4140625 6.359375 C-1.98492887 3.914123 -1.21399362 2.15163097 0 0 Z " fill="#E6561B" transform="translate(257,470)"/>
<path d="M0 0 C0 0.66 0 1.32 0 2 C-5.94 2 -11.88 2 -18 2 C-17.67 1.34 -17.34 0.68 -17 0 C-14.48905397 -0.34091947 -12.0852383 -0.5593831 -9.5625 -0.6875 C-8.86833984 -0.73455078 -8.17417969 -0.78160156 -7.45898438 -0.83007812 C-2.27267316 -1.13633658 -2.27267316 -1.13633658 0 0 Z " fill="#02060B" transform="translate(477,771)"/>
<path d="M0 0 C2 2 2 2 2.01171875 4.2421875 C1.90472656 5.11101562 1.79773438 5.97984375 1.6875 6.875 C1.58824219 7.73867188 1.48898437 8.60234375 1.38671875 9.4921875 C1.04428665 11.71280777 0.5894344 13.83370263 0 16 C-0.66 16 -1.32 16 -2 16 C-1.85890014 13.89551062 -1.71195825 11.7914123 -1.5625 9.6875 C-1.48128906 8.51574219 -1.40007813 7.34398437 -1.31640625 6.13671875 C-1 3 -1 3 0 0 Z " fill="#0A95B0" transform="translate(672,374)"/>
<path d="M0 0 C2.91786964 0.28218081 5.833918 0.57534127 8.75 0.875 C9.575 0.95363281 10.4 1.03226562 11.25 1.11328125 C12.04921875 1.19707031 12.8484375 1.28085938 13.671875 1.3671875 C14.4050293 1.44050293 15.13818359 1.51381836 15.89355469 1.58935547 C18.19952905 2.03889753 19.95391841 2.8637373 22 4 C14.37685526 4.23576736 7.41430591 3.83717315 0 2 C0 1.34 0 0.68 0 0 Z " fill="#0B4C5F" transform="translate(550,118)"/>
<path d="M0 0 C3.63 0 7.26 0 11 0 C11 0.66 11 1.32 11 2 C8.03 2 5.06 2 2 2 C2 3.98 2 5.96 2 8 C1.34 8 0.68 8 0 8 C0 5.36 0 2.72 0 0 Z " fill="#221A1C" transform="translate(801,864)"/>
<path d="M0 0 C0 0.33 0 0.66 0 1 C-1.670625 1.4021875 -1.670625 1.4021875 -3.375 1.8125 C-7.21840951 2.65809019 -7.21840951 2.65809019 -9 6 C-9.24055468 8.05709596 -9.24055468 8.05709596 -9.125 10.1875 C-9.08375 11.445625 -9.0425 12.70375 -9 14 C-9.66 13.67 -10.32 13.34 -11 13 C-11.08121924 11.39667209 -11.13929134 9.79215974 -11.1875 8.1875 C-11.22230469 7.29417969 -11.25710938 6.40085937 -11.29296875 5.48046875 C-11 3 -11 3 -9.75 1.1875 C-6.65083803 -0.91550277 -3.64934583 -0.17947602 0 0 Z " fill="#000609" transform="translate(775,452)"/>
<path d="M0 0 C-5.28 0 -10.56 0 -16 0 C-16.33 -0.66 -16.66 -1.32 -17 -2 C-15.41773035 -2.19627391 -13.83410729 -2.38165538 -12.25 -2.5625 C-11.36828125 -2.66691406 -10.4865625 -2.77132812 -9.578125 -2.87890625 C-5.43726227 -3.07340132 -3.46544918 -2.31029945 0 0 Z " fill="#066379" transform="translate(696,590)"/>
<path d="M0 0 C0.99 0.99 1.98 1.98 3 3 C2.2575 3.556875 1.515 4.11375 0.75 4.6875 C-2.07544208 6.90826999 -2.07544208 6.90826999 -4.1875 9.75 C-5.0846875 10.86375 -5.0846875 10.86375 -6 12 C-6.66 12 -7.32 12 -8 12 C-7.61402985 9.20171644 -7.19863427 8.1794116 -5.0625 6.25 C-3 5 -3 5 -1 5 C-0.67 3.35 -0.34 1.7 0 0 Z " fill="#E4900F" transform="translate(403,232)"/>
<path d="M0 0 C0.99 0.66 1.98 1.32 3 2 C2.67 4.31 2.34 6.62 2 9 C0.68 9 -0.64 9 -2 9 C-1.51421457 5.87709365 -1.0013988 3.00419641 0 0 Z " fill="#FA950F" transform="translate(197,868)"/>
<path d="M0 0 C0.99 0.66 1.98 1.32 3 2 C2.67 3.32 2.34 4.64 2 6 C1.401875 5.79375 0.80375 5.5875 0.1875 5.375 C-2.28450846 4.69328085 -2.28450846 4.69328085 -5 7 C-8.1875 7.125 -8.1875 7.125 -11 7 C-11 6.67 -11 6.34 -11 6 C-9.88625 5.731875 -8.7725 5.46375 -7.625 5.1875 C-3.78159049 4.34190981 -3.78159049 4.34190981 -2 1 C-1.34 0.67 -0.68 0.34 0 0 Z " fill="#FDA70D" transform="translate(256,867)"/>
<path d="M0 0 C1.32 0 2.64 0 4 0 C4.66 3.96 5.32 7.92 6 12 C3.32289809 10.66144904 3.04870906 9.27941912 1.875 6.5625 C1.52179687 5.75941406 1.16859375 4.95632813 0.8046875 4.12890625 C0 2 0 2 0 0 Z " fill="#12101E" transform="translate(848,857)"/>
<path d="M0 0 C2.97 0 5.94 0 9 0 C9 0.66 9 1.32 9 2 C6.36 2 3.72 2 1 2 C0.67 3.98 0.34 5.96 0 8 C-0.66 7.67 -1.32 7.34 -2 7 C-1.34 4.69 -0.68 2.38 0 0 Z " fill="#18131D" transform="translate(202,870)"/>
<path d="M0 0 C-0.33 0.66 -0.66 1.32 -1 2 C-3.43359375 2.703125 -3.43359375 2.703125 -6.4375 3.25 C-7.42621094 3.44078125 -8.41492188 3.6315625 -9.43359375 3.828125 C-10.70396484 3.91320312 -10.70396484 3.91320312 -12 4 C-12.66 3.34 -13.32 2.68 -14 2 C-12.42085985 1.46658816 -10.83645613 0.94874237 -9.25 0.4375 C-8.36828125 0.14746094 -7.4865625 -0.14257812 -6.578125 -0.44140625 C-3.92165684 -1.01697435 -2.52968894 -0.89248371 0 0 Z " fill="#E79E0E" transform="translate(442,125)"/>
<path d="M0 0 C4.875 1.75 4.875 1.75 6 4 C4.68 5.32 3.36 6.64 2 8 C0.23537317 4.91190305 0 3.76687864 0 0 Z " fill="#F2A00E" transform="translate(767,846)"/>
<path d="M0 0 C0.66 0 1.32 0 2 0 C3.125 5.75 3.125 5.75 2 8 C2.66 8 3.32 8 4 8 C4.33 8.99 4.66 9.98 5 11 C4.34 11.66 3.68 12.32 3 13 C0.78145293 8.37802694 -0.38281159 5.23175837 0 0 Z " fill="#E2551C" transform="translate(230,431)"/>
<path d="M0 0 C0 0.66 0 1.32 0 2 C-1.6396875 2.4021875 -1.6396875 2.4021875 -3.3125 2.8125 C-6.61692663 3.87663739 -7.94960422 4.34654664 -10 7 C-10.33 5.35 -10.66 3.7 -11 2 C-7.17679443 0.57741188 -4.08718695 -0.24042276 0 0 Z " fill="#E49410" transform="translate(897,850)"/>
<path d="M0 0 C2 2 2 2 2.265625 4.09375 C2.25789063 5.28484375 2.25789063 5.28484375 2.25 6.5 C2.25515625 7.2940625 2.2603125 8.088125 2.265625 8.90625 C2 11 2 11 0 13 C-1.01097258 8.70336653 -2.04130598 4.08261196 0 0 Z " fill="#E6591C" transform="translate(261,455)"/>
<path d="M0 0 C2.5 1.375 2.5 1.375 5 3 C5 3.66 5 4.32 5 5 C7.31 5 9.62 5 12 5 C12.33 5.66 12.66 6.32 13 7 C10.61519919 7.83414558 9.36680914 8.11903995 6.9296875 7.328125 C6.25164062 6.97234375 5.57359375 6.6165625 4.875 6.25 C4.19179687 5.90453125 3.50859375 5.5590625 2.8046875 5.203125 C1 4 1 4 -1 1 C-0.67 0.67 -0.34 0.34 0 0 Z " fill="#EC591C" transform="translate(235,443)"/>
<path d="M0 0 C0.66 0.66 1.32 1.32 2 2 C1.7578125 4.8203125 1.7578125 4.8203125 1.125 8.125 C0.92132813 9.22070312 0.71765625 10.31640625 0.5078125 11.4453125 C0.34023438 12.28835938 0.17265625 13.13140625 0 14 C-0.33 14 -0.66 14 -1 14 C-1.02685938 11.85423363 -1.04633088 9.70837355 -1.0625 7.5625 C-1.07410156 6.36753906 -1.08570313 5.17257812 -1.09765625 3.94140625 C-1 1 -1 1 0 0 Z " fill="#EC8415" transform="translate(353,321)"/>
<path d="M0 0 C2 1 2 1 3.125 3.75 C3.91973395 6.70186896 4.17810598 8.97219837 4 12 C3.34 12 2.68 12 2 12 C1.66269158 10.56342755 1.33030409 9.12569907 1 7.6875 C0.814375 6.88699219 0.62875 6.08648437 0.4375 5.26171875 C0 3 0 3 0 0 Z " fill="#0998B3" transform="translate(748,265)"/>
<path d="M0 0 C-1 2 -1 2 -4 4 C-4.99 4 -5.98 4 -7 4 C-7 2.68 -7 1.36 -7 0 C-4.3333581 -1.33332095 -2.83319697 -0.67102033 0 0 Z " fill="#13121E" transform="translate(252,852)"/>
<path d="M0 0 C1.25 2.0625 1.25 2.0625 2 4 C1.01 4.495 1.01 4.495 0 5 C-0.66 4.01 -1.32 3.02 -2 2 C-4.42521494 1.41810734 -4.42521494 1.41810734 -7.125 1.3125 C-8.03507812 1.24675781 -8.94515625 1.18101562 -9.8828125 1.11328125 C-10.58148438 1.07589844 -11.28015625 1.03851563 -12 1 C-12 0.67 -12 0.34 -12 0 C-2.76923077 -1.38461538 -2.76923077 -1.38461538 0 0 Z " fill="#C84B1A" transform="translate(277,491)"/>
<path d="M0 0 C3.29967665 2.80472516 5.08459104 6.16918209 7 10 C6.67 10.99 6.34 11.98 6 13 C5.34 12.67 4.68 12.34 4 12 C3.375 8.9375 3.375 8.9375 3 6 C2.34 6 1.68 6 1 6 C0.67 4.02 0.34 2.04 0 0 Z " fill="#12B6D3" transform="translate(751,347)"/>
<path d="M0 0 C2.29576678 2.29576678 3.0638375 3.90346249 4 7 C3.625 9.8125 3.625 9.8125 3 12 C0.50494038 9.50494038 0.64051624 8.32671112 0.375 4.875 C0.30023437 3.96492188 0.22546875 3.05484375 0.1484375 2.1171875 C0.09945312 1.41851562 0.05046875 0.71984375 0 0 Z " fill="#0996B1" transform="translate(669,316)"/>
<path d="M0 0 C2.09715785 3.14573677 2.52004559 5.01456251 3.125 8.6875 C3.29257812 9.68136719 3.46015625 10.67523437 3.6328125 11.69921875 C3.75398437 12.45847656 3.87515625 13.21773437 4 14 C3.34 13.67 2.68 13.34 2 13 C1.11328125 10.3125 1.11328125 10.3125 0.3125 7 C0.04050781 5.906875 -0.23148438 4.81375 -0.51171875 3.6875 C-0.67285156 2.800625 -0.83398438 1.91375 -1 1 C-0.67 0.67 -0.34 0.34 0 0 Z " fill="#0C5063" transform="translate(613,626)"/>
<path d="M0 0 C3 2 3 2 3.75 4.875 C3.97649192 7.70614903 3.76097452 9.33658917 3 12 C2.49440092 10.56445975 1.9957251 9.1264798 1.5 7.6875 C1.2215625 6.88699219 0.943125 6.08648437 0.65625 5.26171875 C0 3 0 3 0 0 Z " fill="#0894B0" transform="translate(665,303)"/>
<path d="M0 0 C0.99 0.33 1.98 0.66 3 1 C2.34 2.98 1.68 4.96 1 7 C0.01 7 -0.98 7 -2 7 C-1.125 1.125 -1.125 1.125 0 0 Z " fill="#E14F1A" transform="translate(266,508)"/>
<path d="M0 0 C1.11375 0.1546875 1.11375 0.1546875 2.25 0.3125 C2.25 0.9725 2.25 1.6325 2.25 2.3125 C-2.205 3.7975 -2.205 3.7975 -6.75 5.3125 C-3.42692308 0.38942308 -3.42692308 0.38942308 0 0 Z " fill="#F39D0F" transform="translate(596.75,334.6875)"/>
<path d="M0 0 C0.66 0.33 1.32 0.66 2 1 C2.75 3.875 2.75 3.875 3 7 C2.01 8.485 2.01 8.485 1 10 C0.34 10 -0.32 10 -1 10 C-0.67 6.7 -0.34 3.4 0 0 Z " fill="#F09011" transform="translate(610,347)"/>
<path d="M0 0 C-1.0625 1.5 -1.0625 1.5 -3 3 C-6.6875 3.1875 -6.6875 3.1875 -10 3 C-6.88378718 -0.11621282 -4.21175599 -0.11383124 0 0 Z " fill="#F7AC0C" transform="translate(430,128)"/>
</svg>
