<?xml version="1.0" encoding="UTF-8"?>
<svg version="1.1" xmlns="http://www.w3.org/2000/svg" width="1024" height="1536">
<path d="M0 0 C337.92 0 675.84 0 1024 0 C1024 506.88 1024 1013.76 1024 1536 C686.08 1536 348.16 1536 0 1536 C0 1029.12 0 522.24 0 0 Z " fill="#00111E" transform="translate(0,0)"/>
<path d="M0 0 C-4.18415882 5.11397189 -8.69508687 9.77620056 -13.42089844 14.38378906 C-16.17248246 17.08821344 -18.77050072 19.85857755 -21.28125 22.7890625 C-26.19807279 28.47678035 -31.65159895 33.63129124 -37.06054688 38.84570312 C-46.43978851 48.06000206 -52.94895053 56.99450984 -53.4375 70.4375 C-53.08187725 82.20040625 -48.07036672 88.8991311 -40 97 C-38.68870617 98.33714553 -37.37751616 99.67439288 -36.06640625 101.01171875 C-27.35566763 109.8565358 -27.35566763 109.8565358 -18 118 C-19 120 -19 120 -20.67626953 120.55908203 C-21.40442871 120.70716309 -22.13258789 120.85524414 -22.8828125 121.0078125 C-23.70885986 121.18546143 -24.53490723 121.36311035 -25.38598633 121.54614258 C-26.7417981 121.832677 -26.7417981 121.832677 -28.125 122.125 C-45.25983393 125.99530014 -61.69527283 131.6307816 -77.15576172 140.00878906 C-79.01908299 141.01025641 -80.89830074 141.97339592 -82.78515625 142.9296875 C-112.16647962 157.95943732 -140.18849989 180.52683961 -160 207 C-160.48388184 207.6398584 -160.96776367 208.2797168 -161.46630859 208.93896484 C-187.87784013 244.01264459 -204.87370021 284.27374353 -210 328 C-210.09498779 328.75104004 -210.18997559 329.50208008 -210.2878418 330.27587891 C-217.13092694 389.48529296 -199.66676774 450.59450219 -164 498 C-163.5359375 498.62100586 -163.071875 499.24201172 -162.59375 499.88183594 C-155.92019581 508.75936931 -148.67068818 516.97510976 -141 525 C-140.36449219 525.67675781 -139.72898437 526.35351562 -139.07421875 527.05078125 C-134.12787784 532.18600391 -128.5760992 536.57256269 -123 541 C-122.02160156 541.79535156 -121.04320312 542.59070313 -120.03515625 543.41015625 C-106.94839955 553.82345193 -92.41010163 561.92351819 -77.77146912 569.93574524 C-77.06454139 570.32271733 -76.35761366 570.70968943 -75.62926388 571.10838795 C-75.0916068 571.40261992 -74.55394972 571.6968519 -74 572 C-76.67283331 584.30825647 -79.56746968 596.54381797 -82.640625 608.7578125 C-83.08477184 610.53068301 -83.52869994 612.30360833 -83.97242737 614.07658386 C-85.15190504 618.78696723 -86.33422971 623.49663141 -87.51715469 628.20615005 C-88.75358963 633.13074739 -89.98742506 638.05599587 -91.22143555 642.98120117 C-92.71779701 648.95289459 -94.21439135 654.92452914 -95.71220398 660.89585876 C-98.89396693 673.58097646 -102.06696043 686.2682469 -105.23121452 698.95774269 C-107.98388921 709.99666 -110.74400142 721.03367846 -113.51246643 732.06864929 C-115.083849 738.3341013 -116.64684618 744.60151912 -118.19941711 750.87165833 C-119.04168698 754.26537333 -119.89211496 757.65699598 -120.74545288 761.04794312 C-121.11605875 762.52799309 -121.48309578 764.0089425 -121.84609985 765.49087524 C-122.32141204 767.42988446 -122.81061129 769.3654746 -123.30078125 771.30078125 C-123.56028564 772.34403564 -123.81979004 773.38729004 -124.0871582 774.4621582 C-125.03317149 777.09222189 -125.72254689 778.39269401 -128 780 C-131.1875 779.6875 -131.1875 779.6875 -134 779 C-136.00360694 773.68608594 -137.8998782 768.3595457 -139.61328125 762.9453125 C-144.21630621 748.47088068 -149.24486169 737.97804274 -160 727 C-160.59167969 726.37222656 -161.18335938 725.74445312 -161.79296875 725.09765625 C-182.88872246 704.56073045 -217.30620243 704.66528183 -244.65478516 703.41870117 C-263.34387291 702.54414585 -281.80963633 700.93589232 -299 693 C-299.804375 692.63261719 -300.60875 692.26523437 -301.4375 691.88671875 C-313.91281444 685.58408594 -323.49635744 674.58037808 -328.22265625 661.4765625 C-332.36098597 648.29213516 -333.35670338 631.71340676 -327 619 C-326.49929679 615.62642666 -326.49929679 615.62642666 -327 612 C-328.62337668 610.01005439 -330.07103893 608.64645876 -332 607 C-333.59445855 605.44885442 -335.17704884 603.88545116 -336.75 602.3125 C-337.91789062 601.16201172 -337.91789062 601.16201172 -339.109375 599.98828125 C-342.47992945 596.44362791 -342.4663896 593.391494 -342.3984375 588.6484375 C-341.54826544 582.99729384 -337.41731291 579.50150971 -333.6328125 575.4921875 C-332.82585937 574.62851562 -332.01890625 573.76484375 -331.1875 572.875 C-330.41792969 572.08867188 -329.64835937 571.30234375 -328.85546875 570.4921875 C-326.3473809 567.1234295 -326 564.12775926 -326 560 C-326.83402344 559.97421875 -327.66804688 559.9484375 -328.52734375 559.921875 C-340.07902849 559.3396595 -348.01163431 556.59384084 -356 548 C-358.46442018 543.9953172 -358.7021187 539.59930971 -358 535 C-356.50877371 531.3685812 -354.56875785 528.05612378 -352.5625 524.6875 C-351.54120559 522.92159145 -350.5215968 521.15470665 -349.50390625 519.38671875 C-349.04830322 518.61545654 -348.5927002 517.84419434 -348.12329102 517.04956055 C-345.88621394 512.96778222 -345.52402049 509.60113529 -346 505 C-348.75887327 501.35185884 -350.33017605 500.13640792 -354.85546875 499.21484375 C-356.29831487 499.10572093 -357.74255267 499.01391932 -359.1875 498.9375 C-371.37514215 497.84980382 -379.68078458 494.43353234 -388 485 C-391.27398366 479.03929432 -392.95152153 473.86075316 -392 467 C-388.82879853 456.75309546 -383.77731043 447.33329095 -378.8125 437.875 C-378.04100653 436.39271645 -377.27009776 434.91012844 -376.49975586 433.42724609 C-372.34997579 425.44898899 -368.1680411 417.48728386 -363.95825195 409.54052734 C-361.18536613 404.29253074 -358.45971748 399.02098822 -355.74609375 393.7421875 C-355.36202866 392.99527145 -354.97796356 392.24835541 -354.58226013 391.47880554 C-352.59402562 387.60974833 -350.61044244 383.73838794 -348.63354492 379.86352539 C-345.38366506 373.50332061 -342.13713018 367.15795738 -338.6171875 360.94140625 C-338.1428125 360.09320312 -337.6684375 359.245 -337.1796875 358.37109375 C-336.35507603 356.91197585 -335.51101242 355.4635331 -334.640625 354.03125 C-329.17546365 344.30011738 -332.23368509 333.36547605 -334.9375 323.1875 C-340.61038226 301.14091579 -340.85145348 278.2930204 -336 256 C-335.82839355 255.17661133 -335.65678711 254.35322266 -335.47998047 253.50488281 C-326.67404693 211.74949105 -308.03544964 174.75125967 -281.375 141.625 C-280.89748291 141.03162842 -280.41996582 140.43825684 -279.92797852 139.8269043 C-271.70917117 129.81087397 -262.67651171 120.48973695 -253.52050781 111.33520508 C-251.99513287 109.80762584 -250.47799328 108.27216418 -248.9609375 106.73632812 C-242.63261018 100.37238253 -236.03405608 94.58922684 -229 89 C-227.96047697 88.12518178 -226.92533487 87.24507363 -225.8984375 86.35546875 C-211.11982602 73.65867406 -194.78700984 63.52514558 -177.98193359 53.73828125 C-176.1366378 52.66258893 -174.29502759 51.58051228 -172.45947266 50.48828125 C-137.70037509 29.82813918 -97.34559576 16.59076697 -58 8 C-56.91074219 7.76200684 -55.82148438 7.52401367 -54.69921875 7.27880859 C-17.93512506 -0.58752996 -17.93512506 -0.58752996 0 0 Z " fill="#ED7318" transform="translate(490,314)"/>
<path d="M0 0 C36.32565193 0.08081346 74.8390819 8.06999485 109 20 C109.90943359 20.31195313 110.81886719 20.62390625 111.75585938 20.9453125 C130.11034477 27.26470145 147.68568692 35.05486209 164.93554688 43.93896484 C166.3641165 44.67318476 167.79529096 45.40235031 169.22851562 46.12744141 C211.80292161 67.67468184 253.44706425 99.0685808 284 136 C284.83402344 136.98355469 285.66804688 137.96710938 286.52734375 138.98046875 C323.74661707 183.61797245 349.9612782 243.38371348 344.78173828 302.49072266 C343.60736136 311.8589069 341.10744919 321.04735092 338.6262207 330.13989258 C336.47869383 338.21633598 336.41967325 343.95364357 340.25 351.5625 C340.59029236 352.25270737 340.93058472 352.94291473 341.28118896 353.65403748 C344.23201281 359.57089186 347.36536318 365.36961216 350.5625 371.15625 C356.86081586 382.63236398 362.83232724 394.2617433 368.75 405.9375 C370.70118816 409.78093485 372.65450425 413.62328073 374.609375 417.46484375 C375.07464096 418.3800882 375.53990692 419.29533264 376.01927185 420.23831177 C378.77097406 425.63688944 381.58098651 430.99877246 384.45703125 436.33203125 C387.17783817 441.38237796 389.71352112 446.46053671 391.9375 451.75 C392.22689453 452.4203125 392.51628906 453.090625 392.81445312 453.78125 C396.21999045 461.71956545 397.60889019 469.31002251 395.19921875 477.83203125 C391.49747475 486.11325237 385.20823275 490.91714655 376.9375 494.3125 C371.58630395 496.11389273 366.18583754 496.73570369 360.57006836 497.05395508 C357.02130642 497.34400024 354.94836673 498.0340461 351.9609375 500.00390625 C349.56790508 503.66019283 349.55029596 505.40990953 350.2890625 509.61425781 C351.52898557 513.7751535 353.66513042 517.24298066 356 520.875 C356.91882312 522.35022157 357.83558135 523.82673177 358.75 525.3046875 C359.15734375 525.94390137 359.5646875 526.58311523 359.984375 527.24169922 C362.50611404 531.60745993 362.70479964 536.10599804 362 541 C359.20855668 547.60216885 354.92858559 551.66415394 348.4375 554.625 C343.91751628 556.22384702 339.27723631 556.84289897 334.5390625 557.47265625 C331.8440623 557.79024429 331.8440623 557.79024429 330 560 C329.73855054 564.18319128 330.27669287 566.0865834 332.90234375 569.40234375 C334.49154137 571.11846564 336.09084123 572.82527814 337.69921875 574.5234375 C341.90322758 579.04863546 345.19077201 583.18291575 345.6875 589.5 C345.22158906 596.82865321 339.89275587 601.33248985 334.6875 605.9375 C333.46176336 606.9624493 332.23347185 607.98437282 331 609 C329.22182131 610.77817869 329.7673121 613.1322942 329.671875 615.50390625 C329.92064417 618.24856724 329.92064417 618.24856724 331.4921875 621.54296875 C333.58021188 626.87400249 333.45202912 632.0892448 333.375 637.75 C333.36484863 638.81822998 333.35469727 639.88645996 333.34423828 640.98706055 C333.03107625 656.87942662 328.47080115 669.09460743 317.3984375 680.71875 C304.80483507 692.69702984 288.6658259 697.00848508 272 700 C271.06293213 700.17225098 270.12586426 700.34450195 269.16040039 700.52197266 C260.77394859 701.94792433 252.4844999 702.4280105 244.00375366 702.77603149 C212.67667943 704.11456957 182.88965653 707.20584288 160.10546875 730.9765625 C151.04261204 741.5737629 146.47772634 755.05959307 143.63427734 768.48754883 C143.45977051 769.29345459 143.28526367 770.09936035 143.10546875 770.9296875 C142.96262451 771.64366699 142.81978027 772.35764648 142.67260742 773.09326172 C141.85917272 775.39922361 140.91438588 776.49456599 139 778 C136.3125 778.1875 136.3125 778.1875 134 778 C131.10680669 771.89418927 129.50958816 765.67889988 127.91015625 759.12890625 C127.61376755 757.93636734 127.31737885 756.74382843 127.01200867 755.51515198 C126.36508728 752.9089318 125.72032626 750.30228811 125.07922363 747.69464111 C124.04376138 743.4830238 123.00056456 739.27334614 121.95605469 735.06396484 C120.8327948 730.53597633 119.71001114 726.00787312 118.58981323 721.47912598 C115.72197015 709.88788962 112.82596377 698.30387913 109.91796875 686.72265625 C94.94309071 627.06942526 94.94309071 627.06942526 88.52941895 600.53582764 C88.01584034 598.41189657 87.50050195 596.28839013 86.98327637 594.16534424 C86.29015529 591.31605773 85.60462982 588.46506684 84.921875 585.61328125 C84.72295654 584.79965622 84.52403809 583.98603119 84.3190918 583.14775085 C83.42447083 579.36829882 82.76173056 575.89124996 83 572 C83.55647217 571.7097998 84.11294434 571.41959961 84.6862793 571.12060547 C118.63784832 553.29958969 150.6672466 530.76497306 173 499 C173.53254395 498.25234375 174.06508789 497.5046875 174.61376953 496.734375 C197.15640648 464.84076531 211.518479 429.47592906 218 391 C218.17789063 389.98945557 218.17789063 389.98945557 218.359375 388.95849609 C223.84206449 356.42950355 221.04739566 319.26906077 211 288 C210.73815918 287.17854492 210.47631836 286.35708984 210.20654297 285.51074219 C206.57419544 274.28889004 202.3370784 263.51686486 197 253 C196.65710938 252.3184082 196.31421875 251.63681641 195.9609375 250.93457031 C190.88000354 240.89607039 185.33942151 231.2949806 179 222 C178.41049561 221.1322998 178.41049561 221.1322998 177.80908203 220.24707031 C164.5977251 200.93857364 148.67696417 183.17402486 130 169 C128.77843838 168.04974579 127.55710017 167.09920434 126.3359375 166.1484375 C117.24702243 159.13775655 107.87147545 152.84924204 98 147 C96.98462158 146.38560059 96.98462158 146.38560059 95.94873047 145.75878906 C72.86279765 131.85839896 47.25520105 123.55304809 21 118 C27.12722786 110.58282943 33.75287108 103.6209372 41.1875 97.5 C48.75189707 90.99431165 53.26416212 83.41735537 54.40625 73.45703125 C54.78918713 58.57035038 48.85852155 50.46856134 39 40 C35.90219941 36.80243049 32.75409301 33.65904011 29.58984375 30.52734375 C28.73693253 29.67821915 27.8840213 28.82909454 27.00526428 27.95423889 C24.31845729 25.27951734 21.62839234 22.60811106 18.9375 19.9375 C15.36045397 16.3869436 11.78666979 12.83315043 8.21484375 9.27734375 C6.9775779 8.05252541 6.9775779 8.05252541 5.71531677 6.80296326 C4.58767662 5.68027794 4.58767662 5.68027794 3.43725586 4.53491211 C2.77157089 3.87446396 2.10588593 3.21401581 1.42002869 2.53355408 C0 1 0 1 0 0 Z " fill="#00718A" transform="translate(535,314)"/>
<path d="M0 0 C5.90992683 3.93195943 10.48234266 9.59945024 15 15 C16.175625 16.2684375 16.175625 16.2684375 17.375 17.5625 C19.53399849 20.80099774 19.8396794 23.11941939 20 27 C18.41015625 29.80859375 18.41015625 29.80859375 16.0625 32.4375 C14.81919922 33.84322266 14.81919922 33.84322266 13.55078125 35.27734375 C12.70902344 36.17582031 11.86726563 37.07429687 11 38 C9.90751953 39.17755859 9.90751953 39.17755859 8.79296875 40.37890625 C0.6007418 48.88441148 0.6007418 48.88441148 -4.8125 49.125 C-9.87572272 47.33798022 -14.03580468 43.51597893 -17.33609009 39.28857422 C-21.06895493 35.11668121 -24.3186099 33.59019004 -29.94116783 33.17709351 C-34.03624301 33.02799259 -38.12167272 33.03213812 -42.21875 33.0703125 C-44.00419765 33.06559063 -45.7896409 33.05879159 -47.57507324 33.05001831 C-51.30748563 33.03972819 -55.03872113 33.05459808 -58.77099609 33.08740234 C-63.5396772 33.12728804 -68.30560054 33.10430781 -73.0741806 33.0623951 C-76.75824518 33.03701956 -80.44166292 33.04518673 -84.12574768 33.06328964 C-85.8831058 33.06793723 -87.64052391 33.06230624 -89.39781189 33.04593277 C-100.3325166 32.64786389 -100.3325166 32.64786389 -109.88867188 37.18310547 C-111.59861797 39.06110007 -111.59861797 39.06110007 -113 41 C-113.81855469 41.94472168 -114.63710938 42.88944336 -115.48046875 43.86279297 C-117.53608323 48.10679137 -117.48007633 51.54647706 -117.3125 56.1953125 C-117.28494629 57.50011063 -117.28494629 57.50011063 -117.25683594 58.83126831 C-117.21278888 60.66203593 -117.15839268 62.49258057 -117.09423828 64.32275391 C-117.00007288 67.12283295 -116.94900634 69.92142721 -116.90234375 72.72265625 C-116.85413822 74.50527985 -116.80344217 76.28783821 -116.75 78.0703125 C-116.73622314 78.9057962 -116.72244629 79.74127991 -116.70825195 80.6020813 C-116.54992753 84.39243634 -116.44952553 86.39476497 -114.14208984 89.50146484 C-111.35867407 91.44865039 -108.96031192 91.90912889 -105.625 92.5 C-97.80465776 94.12887308 -93.72967004 96.34342735 -89 103 C-87.81181906 105.37636188 -87.85456335 106.86994049 -87.82299805 109.5222168 C-87.80374519 110.92959358 -87.80374519 110.92959358 -87.78410339 112.36540222 C-87.77671646 113.38306168 -87.76932953 114.40072113 -87.76171875 115.44921875 C-87.753647 116.4951973 -87.74557526 117.54117584 -87.73725891 118.61885071 C-87.72340945 120.83727354 -87.71269117 123.05571777 -87.70483398 125.27416992 C-87.68765741 128.65650281 -87.64378238 132.0378492 -87.59960938 135.41992188 C-87.58947935 137.57551365 -87.58096422 139.73111373 -87.57421875 141.88671875 C-87.55671066 142.89425705 -87.53920258 143.90179535 -87.52116394 144.93986511 C-87.54034789 151.1956502 -88.31972173 154.89275268 -92 160 C-96.5144205 164.28291176 -100.84187217 166.24129585 -107.06225586 166.2746582 C-108.04354965 166.28419022 -109.02484344 166.29372223 -110.03587341 166.30354309 C-111.08493362 166.30263168 -112.13399384 166.30172028 -113.21484375 166.30078125 C-114.30334122 166.30506638 -115.39183868 166.3093515 -116.51332092 166.31376648 C-118.81217758 166.31950191 -121.11105239 166.32001585 -123.40991211 166.31567383 C-126.92137698 166.31251451 -130.43199864 166.33598156 -133.94335938 166.36132812 C-136.17968644 166.36360129 -138.41601576 166.36430453 -140.65234375 166.36328125 C-142.22289772 166.37709587 -142.22289772 166.37709587 -143.82518005 166.39118958 C-150.93167123 166.34622536 -155.26190642 165.31216791 -160.8125 160.625 C-163.95697158 156.66196756 -163.60676438 151.98570437 -163.6640625 147.12109375 C-164.03887751 143.63880084 -164.92844369 141.79407473 -167 139 C-170.40767908 137.29616046 -174.30220752 137.84356658 -178.05200195 137.83886719 C-178.99035889 137.83390228 -179.92871582 137.82893738 -180.89550781 137.82382202 C-184.009773 137.80917861 -187.12398724 137.80239453 -190.23828125 137.796875 C-192.39820864 137.79112505 -194.55813601 137.7853673 -196.71806335 137.77960205 C-201.25174193 137.76908566 -205.78540274 137.76324727 -210.3190918 137.75976562 C-216.12992347 137.7542816 -221.94052072 137.73025809 -227.75127888 137.70179367 C-232.21480496 137.6831738 -236.67827453 137.67796202 -241.14183617 137.67642975 C-243.28406238 137.67340089 -245.42628755 137.66536455 -247.56847572 137.65224457 C-250.56577013 137.63519898 -253.56249131 137.63706088 -256.55981445 137.64355469 C-257.44571762 137.6343399 -258.33162079 137.62512512 -259.24436951 137.6156311 C-265.8005648 137.66015002 -268.98918492 139.10321454 -273.82421875 143.6640625 C-274.78383585 144.64599628 -275.73820506 145.63308365 -276.6875 146.625 C-282.63025382 152.78084061 -282.63025382 152.78084061 -287.125 153.5 C-292.74350204 152.77503199 -295.10816436 149.92544389 -299 146 C-299.97155825 145.05095798 -300.94428248 144.10310861 -301.91796875 143.15625 C-310.83997059 134.40825884 -310.83997059 134.40825884 -311.3125 130.25 C-310.64050223 123.26122318 -304.76852051 118.45866461 -300 113.75 C-299.38382812 113.12609375 -298.76765625 112.5021875 -298.1328125 111.859375 C-297.53210938 111.26125 -296.93140625 110.663125 -296.3125 110.046875 C-295.77238281 109.50901367 -295.23226563 108.97115234 -294.67578125 108.41699219 C-291.93451788 106.09905911 -289.85697051 105.0194766 -286.25 104.9375 C-281.49425596 106.49226247 -278.58912503 109.61106521 -275 113 C-269.06095292 118.15415099 -265.80793015 119.14925809 -257.93212891 119.14526367 C-256.99216568 119.14862228 -256.05220245 119.1519809 -255.08375549 119.15544128 C-251.96467786 119.16496969 -248.8456538 119.16689539 -245.7265625 119.16796875 C-243.56423927 119.17118017 -241.40191627 119.17454415 -239.23959351 119.17805481 C-234.70171607 119.18405092 -230.16385769 119.18589423 -225.62597656 119.18530273 C-219.80613064 119.18520112 -213.98640673 119.19885064 -208.16658974 119.21607494 C-203.69881629 119.22718436 -199.23107244 119.22922226 -194.76328659 119.22869301 C-192.61745152 119.22987483 -190.47161573 119.23430786 -188.32579422 119.24202538 C-185.32599556 119.25180325 -182.32646293 119.24895581 -179.32666016 119.24291992 C-178.43716171 119.24853943 -177.54766327 119.25415894 -176.63121033 119.25994873 C-175.81242905 119.25575424 -174.99364777 119.25155975 -174.15005493 119.24723816 C-173.44102839 119.24778293 -172.73200184 119.24832769 -172.00148964 119.24888897 C-169.60345936 118.95068943 -168.02812088 118.3095969 -166 117 C-165.03838016 114.1404286 -165.03838016 114.1404286 -164.5625 110.8125 C-163.13223706 103.98487638 -161.7415488 99.48326993 -155.8046875 95.54296875 C-150.64919889 92.73896476 -145.97827993 91.37720847 -140.12890625 90.9453125 C-137.27233409 89.67688963 -136.75642952 87.88486933 -135.62858582 85.07757568 C-134.52713971 81.43712184 -134.49185847 77.8475407 -134.4609375 74.06640625 C-134.44240219 72.81125465 -134.44240219 72.81125465 -134.42349243 71.53074646 C-134.40402099 69.77016122 -134.39271091 68.00946863 -134.38916016 66.2487793 C-134.37505111 63.57219537 -134.3076126 60.90025879 -134.23828125 58.22460938 C-133.8083215 47.91156552 -133.8083215 47.91156552 -138.296875 39.01953125 C-140.15764054 37.34963243 -140.15764054 37.34963243 -142 36 C-143.07894531 34.89011719 -143.07894531 34.89011719 -144.1796875 33.7578125 C-145.01886719 32.94957031 -145.01886719 32.94957031 -145.875 32.125 C-148.5263103 29.56880397 -149.79515968 28.07541167 -150.5 24.375 C-149.73006367 19.17792976 -146.61757873 16.64235667 -143 13 C-142.05181781 12.02630016 -141.10391679 11.05232646 -140.15625 10.078125 C-131.44349829 1.20208976 -131.44349829 1.20208976 -126.875 0.5625 C-121.5643849 1.16208558 -118.94695003 3.57157085 -115 7 C-114.34257813 7.56074219 -113.68515625 8.12148438 -113.0078125 8.69921875 C-111.81219744 9.7236773 -110.62376084 10.75662121 -109.4453125 11.80078125 C-106.06064036 14.60914435 -102.56096003 14.17604614 -98.37255859 14.20874023 C-97.5853241 14.21852402 -96.7980896 14.2283078 -95.98699951 14.23838806 C-93.37416274 14.26836992 -90.76137744 14.28973943 -88.1484375 14.30859375 C-87.25558674 14.31516558 -86.36273598 14.3217374 -85.44282913 14.32850838 C-80.71336705 14.36112003 -75.98392761 14.38556205 -71.25439453 14.4050293 C-67.34520504 14.42281754 -63.43674029 14.45759466 -59.52783203 14.50756836 C-54.80514202 14.56787594 -50.0831222 14.59852014 -45.36006546 14.60820198 C-43.56355624 14.61674304 -41.76706426 14.63552793 -39.9707756 14.6649456 C-27.70144416 15.2199013 -27.70144416 15.2199013 -17.3347168 9.49398804 C-16.89426025 9.00097198 -16.45380371 8.50795593 -16 8 C-15.18789063 7.31292969 -14.37578125 6.62585938 -13.5390625 5.91796875 C-12.90742187 5.34691406 -12.27578125 4.77585937 -11.625 4.1875 C-7.70394948 0.6491815 -5.45947622 -0.80881129 0 0 Z " fill="#F7980D" transform="translate(640,539)"/>
<path d="M0 0 C2.91765651 2.07875316 5.43797547 4.50295435 8 7 C9.19109375 8.13308594 9.19109375 8.13308594 10.40625 9.2890625 C19.32066467 17.94299103 19.32066467 17.94299103 20.625 23.8125 C19.65391509 28.76503306 16.42759526 31.44643895 13 35 C11.69988963 36.45081078 10.40784048 37.9088966 9.125 39.375 C8.55007813 40.02210938 7.97515625 40.66921875 7.3828125 41.3359375 C4.62760489 44.65152632 4.86834287 47.14747379 4.85473633 51.38989258 C4.85137772 52.04539597 4.8480191 52.70089935 4.84455872 53.37626648 C4.83503972 55.54904055 4.83310494 57.7217376 4.83203125 59.89453125 C4.82881861 61.40427177 4.82545454 62.91401197 4.82194519 64.42375183 C4.81595105 67.59216025 4.81410551 70.76054139 4.81469727 73.92895508 C4.81479874 77.9842659 4.8011629 82.03940106 4.78392506 86.0946703 C4.77279104 89.21482645 4.77077851 92.33494038 4.77130699 95.45511436 C4.77012836 96.94980155 4.76571313 98.44448987 4.75797462 99.93915749 C4.74814918 102.0335368 4.75106297 104.1275381 4.75708008 106.22192383 C4.75494255 108.00823967 4.75494255 108.00823967 4.75276184 109.8306427 C5.11819335 114.51512597 6.38912695 117.80122763 9.78515625 121.04296875 C10.58083008 121.81737305 10.58083008 121.81737305 11.39257812 122.60742188 C12.21918945 123.38956055 12.21918945 123.38956055 13.0625 124.1875 C19.87789884 130.73376579 19.87789884 130.73376579 20.31640625 135.28125 C19.93842112 139.72374185 18.85156716 141.19187701 15.9375 144.5 C15.11636719 145.4384375 14.29523438 146.376875 13.44921875 147.34375 C12.23685547 148.65859375 12.23685547 148.65859375 11 150 C10.34644531 150.7115625 9.69289063 151.423125 9.01953125 152.15625 C1.60253762 159.88433166 1.60253762 159.88433166 -3.8125 160.125 C-8.49184889 158.4734651 -11.44058712 155.37388364 -15 152 C-16.26255263 150.86571467 -17.53285407 149.73996576 -18.8125 148.625 C-19.35519531 148.14289063 -19.89789062 147.66078125 -20.45703125 147.1640625 C-24.11104142 144.40736622 -28.29540118 144.81929297 -32.64916992 144.77539062 C-33.42679688 144.76400055 -34.20442383 144.75261047 -35.00561523 144.74087524 C-43.13451266 144.63028889 -51.2643079 144.58280787 -59.39379883 144.54003906 C-63.24776786 144.51777118 -67.10076742 144.4760114 -70.9543457 144.41699219 C-75.61338064 144.34578351 -80.27150391 144.30918987 -84.93105507 144.29692078 C-86.70247814 144.28654109 -88.47387478 144.26416636 -90.24498558 144.22932434 C-101.36458242 143.67732031 -101.36458242 143.67732031 -111.00683594 148.40869141 C-112.04294637 149.57272678 -113.04791387 150.76629211 -114 152 C-120.910299 158.59136213 -120.910299 158.59136213 -125.5 160.3125 C-131.30136097 159.79452134 -134.90081786 156.38498628 -138.6640625 152.109375 C-139.62863117 150.93210657 -140.57081594 149.73582394 -141.48046875 148.515625 C-144.68371284 145.32061547 -148.58816483 144.74996108 -152.95797729 144.73930359 C-153.93077637 144.73221878 -154.90357544 144.72513397 -155.90585327 144.71783447 C-157.48942123 144.7215506 -157.48942123 144.7215506 -159.10498047 144.7253418 C-160.78633087 144.7176754 -160.78633087 144.7176754 -162.50164795 144.70985413 C-166.20688212 144.69595455 -169.91193035 144.69691529 -173.6171875 144.69921875 C-176.19402129 144.69533189 -178.77085445 144.69099723 -181.34768677 144.68623352 C-186.74955595 144.6787704 -192.1513531 144.67892478 -197.55322266 144.68432617 C-203.78634839 144.6903632 -210.01924823 144.67805972 -216.25233543 144.6567561 C-222.26073014 144.63697974 -228.269007 144.63397072 -234.27743912 144.63749123 C-236.82829443 144.63697805 -239.37915335 144.63174098 -241.92998886 144.62167931 C-245.49891253 144.60933023 -249.06731501 144.61609816 -252.63623047 144.62768555 C-253.68789398 144.62004181 -254.7395575 144.61239807 -255.8230896 144.60452271 C-262.38239868 144.65154562 -267.38903342 145.28170454 -272.77270508 149.33447266 C-273.18415771 149.7732373 -273.59561035 150.21200195 -274.01953125 150.6640625 C-274.7165918 151.38722656 -274.7165918 151.38722656 -275.42773438 152.125 C-276.11319336 152.8675 -276.11319336 152.8675 -276.8125 153.625 C-282.59970016 159.73327622 -282.59970016 159.73327622 -286.625 160.5 C-291.860214 159.72441274 -294.3124921 156.62831837 -298 153 C-299.13253345 151.96051428 -300.26677616 150.92288901 -301.40234375 149.88671875 C-302.6030702 148.75941625 -303.80228363 147.63050008 -305 146.5 C-305.8828064 145.70009644 -305.8828064 145.70009644 -306.78344727 144.8840332 C-309.81042774 141.95087796 -310.90707906 140.62456147 -311.546875 136.32421875 C-310.98711285 132.92166454 -310.60842598 131.72146368 -308.25 129.3125 C-307.30060547 128.33023438 -307.30060547 128.33023438 -306.33203125 127.328125 C-305.56246094 126.55984375 -304.79289062 125.7915625 -304 125 C-303.02247749 123.95523692 -302.04737279 122.90820833 -301.07421875 121.859375 C-300.03007898 120.75905491 -298.98450287 119.66009607 -297.9375 118.5625 C-297.4434668 118.02987549 -296.94943359 117.49725098 -296.44042969 116.94848633 C-293.12388963 113.56115976 -290.76350289 112.16079335 -286 112 C-281.43566315 113.80171191 -278.36358362 117.54844325 -275.0625 121.0625 C-271.24816283 124.64566522 -268.06897202 126.36548735 -262.80992126 126.44151306 C-261.78544891 126.46297897 -260.76097656 126.48444489 -259.70545959 126.50656128 C-258.59214767 126.51462799 -257.47883575 126.5226947 -256.33178711 126.53100586 C-255.15064331 126.55071945 -253.96949951 126.57043304 -252.75256348 126.59074402 C-248.84421554 126.64986516 -244.935989 126.6849374 -241.02734375 126.71484375 C-239.67639045 126.7269967 -238.32543892 126.73934776 -236.97448921 126.751894 C-230.62281378 126.80900958 -224.27124176 126.85170327 -217.91935915 126.87672991 C-210.61367935 126.90599788 -203.31073881 126.98482349 -196.00602335 127.10623258 C-190.34291502 127.19708905 -184.68058602 127.24117097 -179.01676375 127.25107294 C-175.64161389 127.25808683 -172.26939334 127.28442773 -168.89503288 127.36045647 C-152.84824358 128.36061138 -152.84824358 128.36061138 -139.01622105 121.7151041 C-137.57922533 120.12602655 -136.28966018 118.51058391 -135.03468323 116.77540588 C-133.06947438 114.0947664 -132.09919926 113.01611759 -129 112 C-125.24650065 111.85563464 -122.92406449 112.21781943 -120.015625 114.6796875 C-118.70838274 116.02239757 -117.42983475 117.39389352 -116.1875 118.796875 C-111.49099137 123.52693012 -107.62277103 126.54605409 -100.79039001 126.66653442 C-99.64770409 126.64899612 -99.64770409 126.64899612 -98.48193359 126.63110352 C-97.65988937 126.63825882 -96.83784515 126.64541412 -95.9908905 126.65278625 C-93.2928287 126.66959828 -90.59644586 126.65031913 -87.8984375 126.62890625 C-86.01469791 126.62973548 -84.13095839 126.63219692 -82.2472229 126.63621521 C-78.30814721 126.63906786 -74.36964183 126.62442138 -70.43066406 126.59692383 C-65.38540137 126.56279498 -60.34115489 126.56887988 -55.29584312 126.5875864 C-51.4095718 126.5981597 -47.52353652 126.58921636 -43.63728714 126.57420158 C-41.77698086 126.5690249 -39.91664988 126.56949534 -38.05634689 126.57574654 C-35.45678494 126.58120466 -32.85867388 126.56080731 -30.25927734 126.53344727 C-29.11051872 126.54323608 -29.11051872 126.54323608 -27.93855286 126.55322266 C-22.99978566 126.46495491 -20.46818856 125.51746395 -17 122 C-13.37476606 116.82109437 -12.87542505 112.71926594 -12.83886719 106.47485352 C-12.83390228 105.82881165 -12.82893738 105.18276978 -12.82382202 104.51715088 C-12.80926017 102.38772504 -12.80240937 100.25837362 -12.796875 98.12890625 C-12.79111977 96.64444477 -12.78536208 95.15998331 -12.77960205 93.67552185 C-12.76910988 90.56614843 -12.76325518 87.45680073 -12.75976562 84.34741211 C-12.75427665 80.36830985 -12.73023281 76.38954903 -12.70179367 72.41055393 C-12.68314959 69.34530142 -12.67796082 66.280131 -12.67642975 63.21482658 C-12.673408 61.74803737 -12.66539554 60.28124944 -12.65224457 58.81451607 C-12.63514199 56.76092777 -12.63707364 54.70817212 -12.64355469 52.65454102 C-12.63990906 51.48746109 -12.63626343 50.32038116 -12.63250732 49.11793518 C-13.35768874 42.96524478 -17.3248338 39.42789343 -21.625 35.3125 C-27.81571297 29.33608094 -27.81571297 29.33608094 -28.5 24.375 C-28.38643755 18.62461058 -24.91915148 15.83161029 -21 12 C-19.62714844 10.57494141 -19.62714844 10.57494141 -18.2265625 9.12109375 C-7.12002351 -2.3277 -7.12002351 -2.3277 0 0 Z " fill="#F08015" transform="translate(640,636)"/>
<path d="M0 0 C3.05959444 1.92129371 5.45420943 4.45420943 8 7 C9.04449351 7.96612272 10.09154138 8.92948851 11.140625 9.890625 C12.24094105 10.92564185 13.33989993 11.96210339 14.4375 13 C14.97012451 13.4856543 15.50274902 13.97130859 16.05151367 14.47167969 C19.78401698 18.10199718 20.89580521 20.81477694 21 26 C18.49128237 31.2455005 14.21001835 34.88752416 10.0234375 38.8515625 C6.84778523 42.22339406 5.75068599 44.88799541 5.74121094 49.50561523 C5.73490662 50.39010849 5.72860229 51.27460175 5.72210693 52.18589783 C5.7261554 53.13388748 5.73020386 54.08187714 5.734375 55.05859375 C5.73246155 56.03989761 5.7305481 57.02120148 5.72857666 58.03224182 C5.72721675 60.10588843 5.73089964 62.17954361 5.73925781 64.25317383 C5.7499485 67.42223313 5.73936174 70.59072408 5.7265625 73.75976562 C5.72788435 75.77604292 5.73044728 77.79231985 5.734375 79.80859375 C5.73032654 80.75455917 5.72627808 81.7005246 5.72210693 82.67515564 C5.72514345 89.08322262 5.72514345 89.08322262 8 95 C11.51436178 96.97606847 14.9090685 97.29090685 18.875 97.6875 C24.29032432 98.52780895 27.04935722 100.01483573 30.6953125 104.05078125 C33.24808073 107.86464755 34.24827594 111.37613419 34.30639648 115.9387207 C34.32238388 116.89353836 34.33837128 117.84835602 34.35484314 118.83210754 C34.36020584 119.85301987 34.36556854 120.87393219 34.37109375 121.92578125 C34.38012222 122.98733932 34.3891507 124.0488974 34.39845276 125.1426239 C34.41294149 127.38598822 34.42183857 129.62939467 34.42553711 131.87280273 C34.43742273 135.290282 34.48661524 138.70594894 34.53710938 142.12304688 C34.54657552 144.30728289 34.55380964 146.49152996 34.55859375 148.67578125 C34.57812607 149.69062088 34.59765839 150.70546051 34.61778259 151.75105286 C34.57593166 158.39099627 33.38045769 162.90230885 29 168 C22.37501871 173.35636785 16.02233747 174.31399949 7.796875 174.3359375 C6.48012787 174.3459227 6.48012787 174.3459227 5.13677979 174.35610962 C3.28440433 174.36620257 1.43199276 174.37092768 -0.42041016 174.37060547 C-3.22751147 174.37496507 -6.03302152 174.41128206 -8.83984375 174.44921875 C-28.75762671 174.57560794 -28.75762671 174.57560794 -35.61816406 168.58764648 C-41.13315828 162.50069086 -41.31778234 156.52301581 -41.3359375 148.73046875 C-41.3425943 147.73549881 -41.3492511 146.74052887 -41.35610962 145.71540833 C-41.36621898 143.61326949 -41.37092717 141.51109867 -41.37060547 139.40893555 C-41.37497077 136.20892828 -41.41128761 133.01030962 -41.44921875 129.81054688 C-41.45508899 127.76302552 -41.459057 125.71549765 -41.4609375 123.66796875 C-41.48249405 122.24414131 -41.48249405 122.24414131 -41.50448608 120.79154968 C-41.45881289 114.07994514 -40.26356079 108.52295141 -35.58798218 103.47575378 C-30.29981723 98.79329409 -25.08490327 97.72641475 -18.3046875 96.7578125 C-15.3304975 95.7798585 -14.62624106 94.64166917 -13 92 C-12.52497752 89.72409891 -12.52497752 89.72409891 -12.54833984 87.26660156 C-12.5259726 86.33172913 -12.50360535 85.39685669 -12.4805603 84.43365479 C-12.47408478 83.42945496 -12.46760925 82.42525513 -12.4609375 81.390625 C-12.44858063 80.34984802 -12.43622375 79.30907104 -12.42349243 78.23675537 C-12.40392939 76.03452167 -12.39269466 73.83220056 -12.38916016 71.62988281 C-12.37510553 68.27519007 -12.30780575 64.92425337 -12.23828125 61.5703125 C-12.22587826 59.42709984 -12.21666102 57.28386591 -12.2109375 55.140625 C-12.18421967 54.14452209 -12.15750183 53.14841919 -12.12997437 52.12213135 C-12.1935042 45.54675802 -13.61003996 42.24166986 -18.28363037 37.58493042 C-19.13323334 36.80038986 -19.13323334 36.80038986 -20 36 C-26.5509434 29.02641509 -26.5509434 29.02641509 -28.3125 25 C-27.33759682 15.64092943 -15.53185838 7.14391652 -9 1 C-5.73952371 -0.63023814 -3.62198965 -0.4673535 0 0 Z " fill="#E04F20" transform="translate(517,833)"/>
<path d="M0 0 C3.0453803 1.94440772 5.46388742 4.44194873 8 7 C8.9598323 7.93733098 9.92083692 8.87346253 10.8828125 9.80859375 C20.76396434 19.4952727 20.76396434 19.4952727 21.5 24.1875 C20.20913502 34.03034544 9.31715582 42.87290072 1.8125 48.6875 C-2.10423448 50.51530942 -3.88674191 50.34744662 -8 49 C-14.89929211 44.42004439 -24.25689841 35.48620317 -28 28 C-28.40644736 24.32139417 -28.31356427 22.50778139 -26.34765625 19.32421875 C-25.59355469 18.45410156 -24.83945312 17.58398438 -24.0625 16.6875 C-23.24652344 15.74390625 -22.43054688 14.8003125 -21.58984375 13.828125 C-7.86425565 -1.16030001 -7.86425565 -1.16030001 0 0 Z " fill="#0092B2" transform="translate(517,467)"/>
<path d="M0 0 C5.32558068 1.10184428 7.86444326 3.95789496 11.625 7.75 C12.67084826 8.77318596 13.71779864 9.79524613 14.765625 10.81640625 C24.32058774 20.20026488 24.32058774 20.20026488 25.3125 25.25 C25.2889564 28.49901714 24.70955965 29.64479981 22.640625 32.21875 C20.89112137 33.93644447 19.11096672 35.62336199 17.3046875 37.28125 C14.29925321 40.05010492 11.71042898 43.02349056 9.09765625 46.15625 C6.58298807 48.87769461 4.69634842 49.73623101 1.0625 50.4375 C-5.28302376 50.32042392 -9.22231749 44.99528092 -13.375 40.75 C-14.23931641 39.93789062 -14.23931641 39.93789062 -15.12109375 39.109375 C-16.25670871 38.04131787 -17.32632763 36.90353961 -18.375 35.75 C-18.375 35.09 -18.375 34.43 -18.375 33.75 C-19.035 33.75 -19.695 33.75 -20.375 33.75 C-23.06313192 30.60104547 -24.36579173 28.70420683 -24.40625 24.51171875 C-23.01291525 19.42921358 -20.34734195 16.79603413 -16.6875 13.125 C-16.07455078 12.48304687 -15.46160156 11.84109375 -14.83007812 11.1796875 C-5.12980551 1.13995678 -5.12980551 1.13995678 0 0 Z " fill="#0098B8" transform="translate(513.375,1032.25)"/>
<path d="M0 0 C3.05909316 1.92097893 5.46493956 4.44367228 8 7 C9.04584826 8.02318596 10.09279864 9.04524613 11.140625 10.06640625 C20.70693504 19.46140898 20.70693504 19.46140898 21.5 23.625 C20.72409598 28.86235213 17.62623697 31.30858556 14 35 C12.97194332 36.13228832 11.94605834 37.26655069 10.921875 38.40234375 C9.80370527 39.60307496 8.68390355 40.8022884 7.5625 42 C7.03760986 42.5885376 6.51271973 43.1770752 5.97192383 43.78344727 C3.07718187 46.78909887 1.0945386 48.3876928 -3.171875 48.55078125 C-6.91578939 48.01211602 -8.21975288 47.78024712 -10.8125 45.1875 C-11.46089844 44.55714844 -12.10929688 43.92679688 -12.77734375 43.27734375 C-13.51082031 42.52582031 -14.24429688 41.77429688 -15 41 C-15.95768729 40.06180933 -16.91744589 39.12572988 -17.87890625 38.19140625 C-27.97439481 28.30586448 -27.97439481 28.30586448 -28.0625 23.8125 C-26.59397937 18.54310245 -23.79941796 15.8258487 -20 12 C-19.0531431 11.02757964 -18.10654359 10.05490861 -17.16015625 9.08203125 C-7.31809091 -0.94426979 -7.31809091 -0.94426979 0 0 Z " fill="#009FBD" transform="translate(714,609)"/>
<path d="M0 0 C3.05959444 1.92129371 5.45420943 4.45420943 8 7 C9.04449351 7.96612272 10.09154138 8.92948851 11.140625 9.890625 C12.24094105 10.92564185 13.33989993 11.96210339 14.4375 13 C14.97012451 13.4856543 15.50274902 13.97130859 16.05151367 14.47167969 C18.72736639 17.07427481 19.98772502 18.95775555 21.03515625 22.5625 C20.95880092 30.02835478 14.94952523 34.32217325 9.9375 39.25 C9.20466797 39.9821875 8.47183594 40.714375 7.71679688 41.46875 C1.34871199 47.78420608 1.34871199 47.78420608 -3.125 48.5 C-8.74350204 47.77503199 -11.10816436 44.92544389 -15 41 C-15.97155825 40.05095798 -16.94428248 39.10310861 -17.91796875 38.15625 C-26.72911579 29.51695157 -26.72911579 29.51695157 -27.625 24.5 C-27.54337554 18.05166787 -22.31500386 14.22402487 -18 10 C-17.1646875 9.14148438 -16.329375 8.28296875 -15.46875 7.3984375 C-7.31218173 -0.94350732 -7.31218173 -0.94350732 0 0 Z " fill="#00A0BE" transform="translate(425,540)"/>
<path d="M0 0 C-3.48484265 3.20605524 -6.39102543 3.39554432 -11 4 C-13.32459209 4.69109495 -15.6017506 5.4695384 -17.88671875 6.28125 C-20 7 -20 7 -22.0546875 7.5 C-24.29859094 8.0217229 -24.29859094 8.0217229 -27.4375 9.5 C-30.47058843 10.77708987 -32.81718657 11.38264395 -36 12 C-38.3599291 12.62444859 -40.7138616 13.27184313 -43.0625 13.9375 C-44.27035156 14.27652344 -45.47820312 14.61554688 -46.72265625 14.96484375 C-49.37503083 15.80260211 -51.56313021 16.70810437 -54 18 C-56.50987545 19.02969249 -59.03527788 20.01376698 -61.5625 21 C-64.87934479 22.36075684 -67.44851114 23.44851114 -70 26 C-70.99 26 -71.98 26 -73 26 C-78.01467719 26.67765908 -82.3896671 28.3896671 -86 32 C-87.97984481 32.72433347 -89.98583438 33.37743972 -92 34 C-93.62605793 34.53848248 -95.25102587 35.08026537 -96.875 35.625 C-98.25 36.08333333 -99.625 36.54166667 -101 37 C-101 37.66 -101 38.32 -101 39 C-103.28929053 40.17154293 -105.58118362 41.33738074 -107.875 42.5 C-108.52597656 42.83386719 -109.17695313 43.16773438 -109.84765625 43.51171875 C-114.7734375 46 -114.7734375 46 -117 46 C-117 46.66 -117 47.32 -117 48 C-123 51 -123 51 -124.93359375 51.87890625 C-130.58437634 54.51153206 -135.18860774 57.91298104 -139.39453125 62.53125 C-141.38867938 64.35558016 -143.42598971 65.30232046 -145.875 66.4375 C-148.9562295 67.91308152 -151.25784778 69.20847267 -153.9375 71.375 C-154.618125 71.91125 -155.29875 72.4475 -156 73 C-156.99 72.67 -157.98 72.34 -159 72 C-139.16683468 54.65133487 -114.846081 41.01266695 -91 30 C-90.1239209 29.59217285 -89.2478418 29.1843457 -88.34521484 28.76416016 C-63.00992806 17.05550714 -36.93174712 8.19420156 -10 1 C-9.29294922 0.80543213 -8.58589844 0.61086426 -7.85742188 0.41040039 C-5.22939099 -0.17026732 -2.68027029 -0.06091523 0 0 Z " fill="#F2A40C" transform="translate(429,324)"/>
<path d="M0 0 C0.99 0 1.98 0 3 0 C3.67031719 1.9570868 4.33614683 3.91571113 5 5.875 C5.556875 7.51082031 5.556875 7.51082031 6.125 9.1796875 C7 12 7 12 7 14 C7.99 14.33 8.98 14.66 10 15 C11.6875 16.4375 11.6875 16.4375 13 18 C13 18.66 13 19.32 13 20 C13.66 20.33 14.32 20.66 15 21 C14.67 21.66 14.34 22.32 14 23 C14.99 23.33 15.98 23.66 17 24 C17.70125 24.763125 18.4025 25.52625 19.125 26.3125 C22.72308189 29.67592438 26.45750837 31.22852723 31 33 C31 33.66 31 34.32 31 35 C32.03125 35.12375 33.0625 35.2475 34.125 35.375 C37.63739522 35.94151536 40.65312599 36.83586991 44 38 C45.66014616 38.36442233 47.32706064 38.69972883 49 39 C50.66666667 39.33333333 52.33333333 39.66666667 54 40 C54 40.66 54 41.32 54 42 C54.53625 41.62875 55.0725 41.2575 55.625 40.875 C58.98347617 39.63766667 60.63916564 40.81748421 64 42 C70.31866651 43.00108345 76.61661054 43.10295789 83 43 C83 43.66 83 44.32 83 45 C84.134375 44.835 85.26875 44.67 86.4375 44.5 C93.34999245 43.64810832 99.97253795 43.91641591 106.8671875 44.78125 C109.26440488 45.06376804 109.26440488 45.06376804 112.75 45 C115.69716705 45 118.13765555 45.38111471 121 46 C122.32 46 123.64 46 125 46 C125 46.66 125 47.32 125 48 C125.57492187 47.81566406 126.14984375 47.63132812 126.7421875 47.44140625 C129.26842143 46.94752315 130.67408198 47.22459039 133.125 47.9375 C136.01911548 48.7657149 136.01911548 48.7657149 139 49 C139 49.66 139 50.32 139 51 C139.53625 50.7525 140.0725 50.505 140.625 50.25 C144.26584059 49.86675362 146.09432315 51.94181223 149 54 C151.02463255 54.65213292 151.02463255 54.65213292 153 55 C154.6744239 55.6469365 156.34302621 56.30959426 158 57 C158 57.66 158 58.32 158 59 C158.598125 59.103125 159.19625 59.20625 159.8125 59.3125 C162.3982798 60.12517365 163.20480175 60.98937796 165 63 C165.845625 63.804375 166.69125 64.60875 167.5625 65.4375 C169.69472786 67.67907288 170.7374035 69.25952557 172 72 C171.113125 71.175 170.22625 70.35 169.3125 69.5 C149.42946022 52.5432947 125.61413782 48.64867015 100.421875 47.2890625 C98.88228119 47.20572914 98.88228119 47.20572914 97.31158447 47.12071228 C93.06313878 46.89534628 88.81456929 46.67559275 84.56494141 46.47363281 C65.81462849 45.56687195 47.24779282 43.96240435 30 36 C29.195625 35.63261719 28.39125 35.26523437 27.5625 34.88671875 C14.72418298 28.40069401 5.66021105 17.33578822 0.62890625 4.03125 C0 2 0 2 0 0 Z " fill="#E55422" transform="translate(161,971)"/>
<path d="M0 0 C1.32 0.66 2.64 1.32 4 2 C4 2.99 4 3.98 4 5 C2.12634766 5.4021875 2.12634766 5.4021875 0.21484375 5.8125 C-18.74321401 10.0211041 -37.03719091 15.73227038 -54.15576172 25.00878906 C-56.01908299 26.01025641 -57.89830074 26.97339592 -59.78515625 27.9296875 C-73.02502762 34.70325759 -85.08673107 43.1331595 -97 52 C-97.66 51.67 -98.32 51.34 -99 51 C-92.64449432 44.00894375 -84.54331526 39.22518725 -76.453125 34.48046875 C-73.24755239 32.54589547 -70.17501795 30.43922454 -67.10546875 28.296875 C-65 27 -65 27 -62.42578125 26.015625 C-59.90992895 24.96228909 -58.88316116 23.90282864 -57 22 C-54.66015625 20.83203125 -54.66015625 20.83203125 -52.0625 19.8125 C-51.20785156 19.46832031 -50.35320312 19.12414062 -49.47265625 18.76953125 C-47 18 -47 18 -43 18 C-43 17.34 -43 16.68 -43 16 C-41.9790625 15.5978125 -41.9790625 15.5978125 -40.9375 15.1875 C-38.84498485 14.34158962 -36.78415368 13.4154585 -34.75 12.4375 C-30.62460236 10.63434606 -26.4555724 10.29299682 -22 10 C-22 9.34 -22 8.68 -22 8 C-21.44828125 7.87753906 -20.8965625 7.75507813 -20.328125 7.62890625 C-17.70408745 6.92006389 -15.2663047 5.96388744 -12.75 4.9375 C-11.41195312 4.39416016 -11.41195312 4.39416016 -10.046875 3.83984375 C-9.37140625 3.56269531 -8.6959375 3.28554688 -8 3 C-8 3.66 -8 4.32 -8 5 C-6.02463255 4.65213292 -6.02463255 4.65213292 -4 4 C-3.67 3.34 -3.34 2.68 -3 2 C-2.01 2 -1.02 2 0 2 C0 1.34 0 0.68 0 0 Z " fill="#F2A70C" transform="translate(467,429)"/>
<path d="M0 0 C0 3 0 3 -1.74072266 5.03369141 C-2.94027588 6.1810376 -2.94027588 6.1810376 -4.1640625 7.3515625 C-5.03933594 8.20363281 -5.91460937 9.05570312 -6.81640625 9.93359375 C-8.66487614 11.70493694 -10.51382181 13.47578378 -12.36328125 15.24609375 C-22.05438063 24.6825365 -28.93345405 33.56810663 -29.4375 47.4375 C-29.0822313 59.18869559 -24.0767775 65.91571852 -16 74 C-15.02039307 74.99 -15.02039307 74.99 -14.02099609 76 C-9.37420155 80.69394353 -4.69844552 85.35778703 0 90 C-0.99 90.495 -0.99 90.495 -2 91 C-2.763125 90.195625 -3.52625 89.39125 -4.3125 88.5625 C-6.79430898 85.83200976 -6.79430898 85.83200976 -10 85 C-11.38671875 83.37109375 -11.38671875 83.37109375 -12.6875 81.4375 C-13.12449219 80.79683594 -13.56148438 80.15617187 -14.01171875 79.49609375 C-14.33785156 79.00238281 -14.66398437 78.50867188 -15 78 C-16.485 78.495 -16.485 78.495 -18 79 C-18.12375 77.8553125 -18.12375 77.8553125 -18.25 76.6875 C-19.15495191 73.44475565 -20.28773348 72.83734184 -23 71 C-23 70.34 -23 69.68 -23 69 C-23.99 68.67 -24.98 68.34 -26 68 C-27.3515625 65.96875 -27.3515625 65.96875 -28.625 63.5 C-30.04019652 60.55480881 -30.04019652 60.55480881 -32 58 C-32.26085401 56.1943106 -32.45961049 54.37942194 -32.625 52.5625 C-32.76808594 51.07943359 -32.76808594 51.07943359 -32.9140625 49.56640625 C-33 47 -33 47 -32 45 C-31.84729357 43.58605156 -31.72632547 42.16855652 -31.625 40.75 C-31.20508404 36.59749774 -30.11636345 33.64014513 -28 30 C-27.608125 29.21625 -27.21625 28.4325 -26.8125 27.625 C-26.544375 27.08875 -26.27625 26.5525 -26 26 C-25.34 26 -24.68 26 -24 26 C-24 25.01 -24 24.02 -24 23 C-23.34 23 -22.68 23 -22 23 C-21.34 21.68 -20.68 20.36 -20 19 C-19.34 19 -18.68 19 -18 19 C-18 18.34 -18 17.68 -18 17 C-17.34 17 -16.68 17 -16 17 C-16 16.34 -16 15.68 -16 15 C-15.34 15 -14.68 15 -14 15 C-14 14.34 -14 13.68 -14 13 C-13.34 13 -12.68 13 -12 13 C-11.67 12.01 -11.34 11.02 -11 10 C-9.51171875 8.53515625 -9.51171875 8.53515625 -7.6875 7.0625 C-4.97828318 4.8271174 -2.43784342 2.53535716 0 0 Z " fill="#F2AB0A" transform="translate(466,337)"/>
<path d="M0 0 C3.05959444 1.92129371 5.45420943 4.45420943 8 7 C9.04449351 7.96612272 10.09154138 8.92948851 11.140625 9.890625 C12.24094105 10.92564185 13.33989993 11.96210339 14.4375 13 C14.97012451 13.4856543 15.50274902 13.97130859 16.05151367 14.47167969 C19.78401698 18.10199718 20.89580521 20.81477694 21 26 C18.49128237 31.2455005 14.21001835 34.88752416 10.0234375 38.8515625 C6.76445568 42.31187138 5.7574089 45.04064824 5.68115234 49.76855469 C5.66128265 50.70922791 5.64141296 51.64990112 5.62094116 52.61907959 C5.60361435 54.13021332 5.60361435 54.13021332 5.5859375 55.671875 C5.56657135 56.70942932 5.5472052 57.74698364 5.5272522 58.815979 C5.46751158 62.12723592 5.4210927 65.43852771 5.375 68.75 C5.33681518 70.99610884 5.29776315 73.24220312 5.2578125 75.48828125 C5.16181458 80.99205815 5.07675084 86.49592288 5 92 C4.67 92 4.34 92 4 92 C3.8984007 85.27405734 3.82845089 78.54831332 3.78027344 71.82177734 C3.76018483 69.53459274 3.73290872 67.24745932 3.69824219 64.96044922 C3.64960442 61.66881666 3.62700321 58.37786443 3.609375 55.0859375 C3.58872986 54.06696381 3.56808472 53.04799011 3.54681396 51.99813843 C3.54439065 44.29368393 5.0633263 41.13903273 10.32421875 35.515625 C11.10410156 34.76796875 11.88398437 34.0203125 12.6875 33.25 C17.00929442 29.21873181 17.00929442 29.21873181 18.3125 23.625 C18.33202264 19.98939199 18.33202264 19.98939199 16.1875 17.6875 C14.5077142 16.39166524 12.76521545 15.1768103 11 14 C10.175 12.989375 9.35 11.97875 8.5 10.9375 C6.2683071 7.80193204 6.2683071 7.80193204 3 7 C2.67 6.01 2.34 5.02 2 4 C-2.71599818 3.07529447 -5.67265609 2.77076223 -10 5 C-10 5.66 -10 6.32 -10 7 C-10.61875 7.061875 -11.2375 7.12375 -11.875 7.1875 C-12.57625 7.455625 -13.2775 7.72375 -14 8 C-14.433125 9.11375 -14.433125 9.11375 -14.875 10.25 C-16.39303611 13.96075494 -18.92352041 15.50036033 -22 18 C-23.37254588 20.14980497 -23.37254588 20.14980497 -24 22 C-24.99 21.67 -25.98 21.34 -27 21 C-23.87369073 15.88636348 -20.14484263 11.87370654 -15.875 7.6875 C-14.92560547 6.73907227 -14.92560547 6.73907227 -13.95703125 5.77148438 C-9.29540895 1.15439986 -6.95904723 -0.89794158 0 0 Z " fill="#F3761B" transform="translate(517,833)"/>
<path d="M0 0 C-4.3152632 5.27421057 -8.99115903 10.06625664 -13.86035156 14.82324219 C-16.20085753 17.12491398 -18.17141634 19.25712451 -20 22 C-20.66 22 -21.32 22 -22 22 C-21.52492969 17.72436721 -19.04697466 15.83439503 -16 13 C-15.278125 12.236875 -14.55625 11.47375 -13.8125 10.6875 C-12 9 -12 9 -10 9 C-10.66 7.35 -11.32 5.7 -12 4 C-16.50508528 4.56293975 -16.50508528 4.56293975 -20.9296875 5.5390625 C-23.32336777 6.07199509 -25.42683442 6.02520687 -27.875 5.9375 C-32.02117273 5.88270477 -35.09294941 6.54621374 -39 8 C-40.66617115 8.04063832 -42.33388095 8.042721 -44 8 C-46.45270048 8.40878341 -48.8395244 8.95841589 -51.24609375 9.58203125 C-52.05175781 9.78183594 -52.85742188 9.98164063 -53.6875 10.1875 C-54.45449219 10.38730469 -55.22148437 10.58710938 -56.01171875 10.79296875 C-56.66785156 10.86128906 -57.32398438 10.92960937 -58 11 C-58.66 10.34 -59.32 9.68 -60 9 C-55.67301598 7.97115557 -51.33841067 6.97949684 -47 6 C-45.91460937 5.74863281 -44.82921875 5.49726563 -43.7109375 5.23828125 C-35.33512807 3.41870886 -26.94757453 2.30129073 -18.4375 1.3125 C-17.30675049 1.18101562 -16.17600098 1.04953125 -15.01098633 0.9140625 C-9.9708502 0.35325172 -5.07703161 -0.0661793 0 0 Z " fill="#EEA60B" transform="translate(490,314)"/>
<path d="M0 0 C2.82764638 2.48727667 4.30112766 5.19223508 6.00390625 8.53125 C6.57447754 9.64209961 7.14504883 10.75294922 7.73291016 11.89746094 C8.342797 13.09829532 8.95265974 14.29914196 9.5625 15.5 C10.19513831 16.73504009 10.82844477 17.96973814 11.46240234 19.20410156 C12.41671279 21.06242822 13.37061952 22.92094842 14.3223877 24.78057861 C16.88642406 29.79014829 19.49351925 34.77561387 22.125 39.75 C26.28787634 47.63520946 30.41871548 55.5368135 34.53295898 63.44750977 C36.88789841 67.97140257 39.25353006 72.48800737 41.66796875 76.98046875 C46.06212526 85.17179533 50.24935356 93.42401246 54.125 101.875 C54.51582764 102.71377686 54.90665527 103.55255371 55.30932617 104.41674805 C58.54923551 111.62383317 58.54923551 111.62383317 58 116 C56.7014583 113.44808326 55.50141087 110.88180109 54.375 108.25 C51.53669738 101.83251429 48.3316858 95.59620181 45.17236328 89.33300781 C43.91845951 86.83773408 42.67504388 84.3374293 41.43359375 81.8359375 C40.99805176 80.95977783 40.56250977 80.08361816 40.11376953 79.1809082 C39.27087398 77.48483789 38.42931629 75.78810179 37.58935547 74.09057617 C35.24532613 69.38383807 32.7908472 64.76169782 30.21655273 60.17700195 C25.23554851 51.26357337 20.54622594 42.17307939 15.9375 33.0625 C15.36902344 31.93972656 14.80054688 30.81695313 14.21484375 29.66015625 C13 27 13 27 13 25 C12.34 25 11.68 25 11 25 C9.66042079 22.21128823 8.32941565 19.41856938 7 16.625 C6.6184375 15.8309375 6.236875 15.036875 5.84375 14.21875 C5.4828125 13.45820312 5.121875 12.69765625 4.75 11.9140625 C4.41484375 11.2123291 4.0796875 10.5105957 3.734375 9.78759766 C3 8 3 8 3 6 C2.34 6 1.68 6 1 6 C0.67 4.02 0.34 2.04 0 0 Z " fill="#0095B3" transform="translate(872,662)"/>
<path d="M0 0 C0.99 0.495 0.99 0.495 2 1 C-0.93715507 4.86057883 -3.68892296 8.01920664 -7.9375 10.4375 C-11.86893966 12.70850208 -14.28715329 15.47514886 -17.1484375 18.95703125 C-19.74947387 21.82695113 -22.76503129 23.96947573 -25.86328125 26.2734375 C-28.50802488 28.41050639 -30.54041519 30.80541943 -32.6640625 33.4453125 C-34 35 -34 35 -36.625 37.0625 C-39.45537351 39.37148892 -41.04308867 41.93417224 -43 45 C-44.5625 46.6875 -44.5625 46.6875 -46 48 C-46.474375 48.474375 -46.94875 48.94875 -47.4375 49.4375 C-48.58352271 50.58352271 -49.75393389 51.70529299 -50.9375 52.8125 C-53.32474247 55.34442383 -55.08645911 58.0988251 -57 61 C-58.5625 62.6875 -58.5625 62.6875 -60 64 C-60.556875 64.556875 -61.11375 65.11375 -61.6875 65.6875 C-62.120625 66.120625 -62.55375 66.55375 -63 67 C-63.66 66.67 -64.32 66.34 -65 66 C-63.06759431 63.57911656 -61.12920086 61.1634135 -59.1875 58.75 C-58.65962891 58.08742188 -58.13175781 57.42484375 -57.58789062 56.7421875 C-49.2102469 46.35586897 -39.94932393 36.7625053 -30.52050781 27.33520508 C-28.99513287 25.80762584 -27.47799328 24.27216418 -25.9609375 22.73632812 C-19.62365444 16.36357889 -13.05826611 10.57722828 -6 5 C-4.76707135 3.98371346 -3.53716492 2.96372962 -2.3125 1.9375 C-1.1678125 0.9784375 -1.1678125 0.9784375 0 0 Z " fill="#F59D0E" transform="translate(267,398)"/>
<path d="M0 0 C2.61513337 2.12479586 3.86113839 3.44455357 4.6875 6.75 C3.63509917 11.72498573 0.45816247 14.41474839 -3 18 C-4.30011037 19.45081078 -5.59215952 20.9088966 -6.875 22.375 C-7.73738281 23.34566406 -7.73738281 23.34566406 -8.6171875 24.3359375 C-11.39722323 27.68140423 -11.15082907 30.27942657 -11.20532227 34.56103516 C-11.21522186 35.23432358 -11.22512146 35.907612 -11.23532104 36.6013031 C-11.26695115 38.83052026 -11.29169934 41.05975874 -11.31640625 43.2890625 C-11.33697448 44.83320678 -11.35797092 46.37734541 -11.37937927 47.92147827 C-11.43461349 51.98864167 -11.48401678 56.05585599 -11.53222656 60.12310791 C-11.58243175 64.27222229 -11.63812293 68.42126259 -11.69335938 72.5703125 C-11.80095746 80.71347905 -11.90239874 88.85670752 -12 97 C-12.33 97 -12.66 97 -13 97 C-13.0928022 87.97682722 -13.1638165 78.95381948 -13.20724869 69.93027306 C-13.22809718 65.73996462 -13.25636416 61.54998341 -13.30175781 57.35986328 C-13.34531419 53.31387758 -13.3691577 49.26820605 -13.37950897 45.22200394 C-13.38688286 43.68065065 -13.40128257 42.13931398 -13.42292023 40.59809494 C-13.45208611 38.43400064 -13.45595076 36.27119375 -13.45410156 34.10693359 C-13.46298401 32.87671478 -13.47186646 31.64649597 -13.48101807 30.3789978 C-12.59814064 24.17706672 -8.78606958 20.61259058 -4.25 16.625 C-1.06384824 13.62942613 -1.06384824 13.62942613 0.58203125 9.71484375 C0.61299536 7.31576782 0.61299536 7.31576782 0 4 C0 2.66666667 0 1.33333333 0 0 Z " fill="#FEB30C" transform="translate(656,653)"/>
<path d="M0 0 C0.66 0.66 1.32 1.32 2 2 C-6.2492945 8.49412546 -13.90314125 10.36208646 -24.32788086 11.00268555 C-27.90051834 11.31882886 -30.03926287 12.02587322 -33.046875 14.0078125 C-35.43391239 17.66475378 -35.44863539 19.43713888 -34.7109375 23.640625 C-33.490094 27.69221552 -31.33572041 31.0029075 -29 34.5 C-25.00763659 40.47745521 -23.34227102 44.75526343 -23 52 C-24.18948882 49.6239165 -25.37313131 47.24527849 -26.55078125 44.86328125 C-27.13214844 43.69152344 -27.71351563 42.51976562 -28.3125 41.3125 C-28.61937744 40.68964111 -28.92625488 40.06678223 -29.24243164 39.42504883 C-30.99292525 35.90263071 -32.86998478 32.53096747 -34.9375 29.1875 C-37.38907313 24.82824579 -38.02192223 20.91859765 -37 16 C-35.13585721 12.63020342 -33.78920506 11.36707212 -30.3125 9.75 C-26.91598595 8.98097795 -23.61386224 8.54399868 -20.1484375 8.24609375 C-18.02619651 8.00300069 -16.06852478 7.51925931 -14 7 C-12.33376361 6.96213099 -10.66602403 6.95372155 -9 7 C-9 6.34 -9 5.68 -9 5 C-8.43410156 4.89042969 -7.86820313 4.78085937 -7.28515625 4.66796875 C-6.18494141 4.43013672 -6.18494141 4.43013672 -5.0625 4.1875 C-4.33160156 4.03667969 -3.60070312 3.88585937 -2.84765625 3.73046875 C-1.93306641 3.36888672 -1.93306641 3.36888672 -1 3 C-0.67 2.01 -0.34 1.02 0 0 Z " fill="#008EAA" transform="translate(920,800)"/>
<path d="M0 0 C4.67242622 3.36450768 8.61254231 7.34224568 12 12 C11.01 12 10.02 12 9 12 C7.13651431 10.06144498 5.55720772 7.9747415 3.9140625 5.84765625 C1.52762015 3.54400884 0.2939932 3.22308023 -3 3 C-8.14196981 3.15174939 -10.87640528 4.1578957 -14.52539062 7.8515625 C-14.99138672 8.35429688 -15.45738281 8.85703125 -15.9375 9.375 C-16.43056641 9.87 -16.92363281 10.365 -17.43164062 10.875 C-20.4374367 13.88957229 -20.4374367 13.88957229 -21 18 C-22.0209375 18.8971875 -22.0209375 18.8971875 -23.0625 19.8125 C-23.701875 20.534375 -24.34125 21.25625 -25 22 C-24.85650653 25.19954954 -24.85650653 25.19954954 -24 28 C-24.99 28.66 -25.98 29.32 -27 30 C-28.6559361 26.6881278 -28.73848946 23.55358605 -28 20 C-26.1018286 16.90364733 -23.58710814 14.5293205 -21 12 C-20.08476563 11.04996094 -19.16953125 10.09992187 -18.2265625 9.12109375 C-7.12002351 -2.3277 -7.12002351 -2.3277 0 0 Z " fill="#F09E0D" transform="translate(640,636)"/>
<path d="M0 0 C0.33 0 0.66 0 1 0 C2.30235628 5.779206 3.11904639 11.04768039 3 17 C3.1647583 17.58233398 3.3295166 18.16466797 3.49926758 18.76464844 C4.61076389 23.72655005 3.92960867 29.04178709 3.75805664 34.10693359 C3.68820199 36.22867797 3.63358962 38.35044478 3.58007812 40.47265625 C3.38053785 47.22183003 3.05199874 53.53411011 1 60 C0.67 60 0.34 60 0 60 C0 40.2 0 20.4 0 0 Z " fill="#008EAB" transform="translate(755,639)"/>
<path d="M0 0 C1.82355768 3.05581198 2.21106756 4.66034917 1.35668945 8.11010742 C1.16601395 8.90740768 0.97533844 9.70470795 0.77888489 10.52616882 C0.55923569 11.3773378 0.33958649 12.22850677 0.11328125 13.10546875 C-0.10439407 13.98527908 -0.3220694 14.86508942 -0.54634094 15.77156067 C-1.00958861 17.62833247 -1.4799161 19.4833502 -1.95678711 21.33666992 C-2.68625492 24.18264242 -3.38653385 27.0347053 -4.08398438 29.88867188 C-4.53733169 31.69054052 -4.99235284 33.49198903 -5.44921875 35.29296875 C-5.76351082 36.57883125 -5.76351082 36.57883125 -6.08415222 37.89067078 C-6.6251151 39.95520217 -7.30094011 41.98350652 -8 44 C-9.485 44.495 -9.485 44.495 -11 45 C-11 42.69 -11 40.38 -11 38 C-10.34 38 -9.68 38 -9 38 C-8.96261719 37.443125 -8.92523438 36.88625 -8.88671875 36.3125 C-8.46684334 31.43865207 -7.54259145 27.41852019 -5.69140625 22.90234375 C-4.63960971 20.00841768 -4.38748245 17.044505 -4 14 C-3.37212429 11.65593068 -2.70491267 9.32206525 -2 7 C-1.6226272 5.68818026 -1.24755652 4.37569568 -0.875 3.0625 C-0.58625 2.051875 -0.2975 1.04125 0 0 Z " fill="#E65421" transform="translate(389,984)"/>
<path d="M0 0 C0.66 0.33 1.32 0.66 2 1 C1.37851697 3.70918332 0.75293439 6.41731127 0.125 9.125 C-0.04902344 9.88554688 -0.22304688 10.64609375 -0.40234375 11.4296875 C-1.39798428 15.70725424 -2.52971389 19.85405809 -4 24 C-6.8125 24.6875 -6.8125 24.6875 -10 25 C-13.24488169 22.71235841 -14.02230023 19.611674 -15.1875 15.9375 C-15.53167969 14.87402344 -15.87585938 13.81054688 -16.23046875 12.71484375 C-17 10 -17 10 -17 8 C-16.01 8 -15.02 8 -14 8 C-13.86722656 8.67546875 -13.73445313 9.3509375 -13.59765625 10.046875 C-13.42105469 10.93890625 -13.24445313 11.8309375 -13.0625 12.75 C-12.88847656 13.63171875 -12.71445312 14.5134375 -12.53515625 15.421875 C-12.07631512 17.63235053 -11.56663926 19.81512068 -11 22 C-9.02 22 -7.04 22 -5 22 C-4.896875 20.7625 -4.79375 19.525 -4.6875 18.25 C-3.01341682 3.01341682 -3.01341682 3.01341682 0 0 Z " fill="#E74F21" transform="translate(368,1069)"/>
<path d="M0 0 C0.66 0 1.32 0 2 0 C0.71621734 4.34314533 -0.94637013 7.72964128 -3.4375 11.5 C-9.39323862 20.92169332 -14.12600948 30.98917931 -19 41 C-20.45983949 36.62048152 -19.50080178 33.30050375 -18 29 C-16.26437655 25.79465641 -14.39647586 22.75464481 -12 20 C-11.34 20 -10.68 20 -10 20 C-9.01 16.535 -9.01 16.535 -8 13 C-7.34 13 -6.68 13 -6 13 C-5.71125 12.278125 -5.4225 11.55625 -5.125 10.8125 C-3.5625 6.90625 -3.5625 6.90625 -2 3 C-1.34 3 -0.68 3 0 3 C0 2.01 0 1.02 0 0 Z " fill="#EE9112" transform="translate(316,535)"/>
<path d="M0 0 C2.475 0.495 2.475 0.495 5 1 C5.11021484 1.85078125 5.11021484 1.85078125 5.22265625 2.71875 C6.27811343 5.81617208 8.05836008 7.27693166 10.4375 9.5 C16.74775614 15.41523208 16.74775614 15.41523208 17.20254517 20.07550049 C17.16923599 21.18136505 17.16923599 21.18136505 17.13525391 22.30957031 C17.11508209 23.15013977 17.09491028 23.99070923 17.0741272 24.85675049 C17.02583267 26.20383087 17.02583267 26.20383087 16.9765625 27.578125 C16.95153656 28.5046991 16.92651062 29.43127319 16.90072632 30.38592529 C16.81865313 33.34099601 16.72201432 36.29538574 16.625 39.25 C16.5667475 41.25518065 16.50944449 43.26038913 16.453125 45.265625 C16.31309308 50.17747395 16.15999782 55.08876251 16 60 C15.67 60 15.34 60 15 60 C15.00636475 58.73929688 15.01272949 57.47859375 15.01928711 56.1796875 C15.03378275 51.47526995 15.00226808 46.77206472 14.95727539 42.06787109 C14.94418439 40.0369887 14.94335657 38.00598699 14.95532227 35.97509766 C14.97041249 33.04471964 14.94053144 30.11761095 14.90234375 27.1875 C14.91659897 26.28821777 14.93085419 25.38893555 14.94554138 24.46240234 C14.80344189 18.19078947 13.12364268 15.0846929 8.71582031 10.63560486 C8.14959961 10.09585526 7.58337891 9.55610565 7 9 C5.6875 7.52083333 4.375 6.04166667 3.0625 4.5625 C2.47597656 3.90378906 1.88945312 3.24507812 1.28515625 2.56640625 C0 1 0 1 0 0 Z " fill="#F6701D" transform="translate(490,860)"/>
<path d="M0 0 C0.66 0.33 1.32 0.66 2 1 C-2.16693145 5.79931129 -6.39461487 10.45467628 -10.97265625 14.86328125 C-11.65706787 15.52642334 -12.34147949 16.18956543 -13.04663086 16.87280273 C-14.42383187 18.19952956 -15.81132498 19.51566109 -17.20922852 20.82055664 C-18.16140259 21.74082642 -18.16140259 21.74082642 -19.1328125 22.6796875 C-19.70918457 23.22351074 -20.28555664 23.76733398 -20.87939453 24.32763672 C-22.25520773 25.97682867 -22.25520773 25.97682867 -21.67919922 28.20751953 C-21.45506348 28.79903809 -21.23092773 29.39055664 -21 30 C-23.31 29.67 -25.62 29.34 -28 29 C-21.23498861 20.81077568 -13.76745512 13.4346985 -5.6953125 6.5390625 C-3.51592019 4.56053584 -1.72873089 2.37700497 0 0 Z " fill="#005C73" transform="translate(584,403)"/>
<path d="M0 0 C1.98 0 3.96 0 6 0 C3.41291523 3.31470237 0.84113747 6.22695619 -2.375 8.9375 C-6.77487379 12.68459868 -10.84990217 16.7321343 -14.9375 20.8125 C-15.61280762 21.48337646 -16.28811523 22.15425293 -16.98388672 22.84545898 C-17.61697754 23.48040283 -18.25006836 24.11534668 -18.90234375 24.76953125 C-19.47460693 25.34292236 -20.04687012 25.91631348 -20.63647461 26.50708008 C-22.10062576 27.97377378 -22.10062576 27.97377378 -23 30 C-23.66 30 -24.32 30 -25 30 C-25 27 -25 27 -23.3203125 25.28125 C-22.59585937 24.6934375 -21.87140625 24.105625 -21.125 23.5 C-18.51805546 21.36959371 -16.89331428 19.83997143 -15 17 C-14.34 17 -13.68 17 -13 17 C-13 16.34 -13 15.68 -13 15 C-12.34 15 -11.68 15 -11 15 C-10.67 14.01 -10.34 13.02 -10 12 C-9.34 11.01 -8.68 10.02 -8 9 C-7.34 9 -6.68 9 -6 9 C-6 8.34 -6 7.68 -6 7 C-5.195625 6.54625 -4.39125 6.0925 -3.5625 5.625 C-0.84763807 4.26579005 -0.84763807 4.26579005 -0.1875 1.8125 C-0.0946875 0.9153125 -0.0946875 0.9153125 0 0 Z " fill="#F69F0D" transform="translate(361,482)"/>
<path d="M0 0 C1.37310272 4.11930817 -0.13753421 6.84130443 -1.5625 10.75 C-5.38579585 21.65583201 -8.20391845 32.79469569 -11 44 C-11.33 44 -11.66 44 -12 44 C-11.76256022 41.86304199 -11.52424527 39.72617717 -11.28125 37.58984375 C-11.09733741 35.89631536 -10.92996823 34.20088743 -10.78125 32.50390625 C-10.7090625 31.71886719 -10.636875 30.93382812 -10.5625 30.125 C-10.50191406 29.40570312 -10.44132812 28.68640625 -10.37890625 27.9453125 C-10 26 -10 26 -8 23 C-7.60828247 21.34608154 -7.27942455 19.67654729 -7 18 C-6.42306794 14.53840765 -5.99913515 12.99870273 -4 10 C-3.32060826 8.00428677 -2.65438441 6.00405227 -2 4 C-1.36184656 2.65278717 -0.70674629 1.31252882 0 0 Z " fill="#F29012" transform="translate(293,581)"/>
<path d="M0 0 C3.54719623 3.70142216 3.68134851 7.06090186 4 12 C3.67 12.66 3.34 13.32 3 14 C3.99 14 4.98 14 6 14 C6.804375 15.6396875 6.804375 15.6396875 7.625 17.3125 C9.72529475 21.04467844 11.969086 22.44260141 16 24 C16 24.66 16 25.32 16 26 C17.65 26.33 19.3 26.66 21 27 C20.67 27.66 20.34 28.32 20 29 C15.31966476 27.71547004 12.39179285 26.01298325 8.8125 22.75 C7.97332031 22.00234375 7.13414063 21.2546875 6.26953125 20.484375 C0.49476241 14.1629413 -0.13541464 8.12487836 0 0 Z " fill="#E56220" transform="translate(98,781)"/>
<path d="M0 0 C0.33 0.66 0.66 1.32 1 2 C0.12904139 4.40479698 -0.7992594 6.71859754 -1.8125 9.0625 C-3.66091327 13.46433708 -5.3298203 17.66763441 -6.25 22.375 C-6.4975 23.57125 -6.745 24.7675 -7 26 C-7.66 26.33 -8.32 26.66 -9 27 C-9.34541851 29.33157492 -9.67794257 31.66508361 -10 34 C-12 37 -12 37 -14 39 C-13.48822395 31.79176448 -11.27327264 25.65223439 -8.6875 18.9375 C-8.29626953 17.88755859 -7.90503906 16.83761719 -7.50195312 15.75585938 C-5.39191109 10.19556619 -3.13455476 5.0568904 0 0 Z " fill="#EE8717" transform="translate(174,511)"/>
<path d="M0 0 C1.32 0.33 2.64 0.66 4 1 C4 1.66 4 2.32 4 3 C4.66 3 5.32 3 6 3 C6 3.66 6 4.32 6 5 C7.32 5.33 8.64 5.66 10 6 C10 6.66 10 7.32 10 8 C10.66 8 11.32 8 12 8 C14.86032344 10.92966462 16.79154081 13.91137979 17.5625 17.9375 C16.80488924 22.0622697 15.06022685 25.37620814 13 29 C12.34 28.67 11.68 28.34 11 28 C11.33 26.989375 11.66 25.97875 12 24.9375 C13.04543382 21.16020263 13.51023313 17.93608411 13 14 C10.98246784 11.39545381 10.98246784 11.39545381 8 9 C6.55162158 7.59445717 5.11462135 6.17712135 3.6875 4.75 C2.99011719 4.06421875 2.29273438 3.3784375 1.57421875 2.671875 C0 1 0 1 0 0 Z " fill="#E75B21" transform="translate(150,912)"/>
<path d="M0 0 C3.82675111 1.55904675 6.18007783 4.03166087 9 7 C9.66 7.66 10.32 8.32 11 9 C12.40611266 12.10516546 13.69747147 15.23935683 14.95703125 18.40625 C15.65662734 20.1460695 16.37303993 21.87921425 17.10546875 23.60546875 C17.64107422 24.88357422 17.64107422 24.88357422 18.1875 26.1875 C18.55230469 27.04730469 18.91710937 27.90710937 19.29296875 28.79296875 C20 31 20 31 19 33 C15.76205454 31.38102727 15.42254151 27.88533151 14.3125 24.625 C10.98449798 15.29556344 6.24961781 7.68239046 0 0 Z " fill="#E45021" transform="translate(333,1043)"/>
<path d="M0 0 C0.99 0.33 1.98 0.66 3 1 C2.6596875 2.2375 2.6596875 2.2375 2.3125 3.5 C1.82915279 8.91348874 3.47866107 13.05898136 6.8125 17.3125 C9.38758092 19.29899099 12.04464129 20.65665513 15 22 C14.67 22.66 14.34 23.32 14 24 C8.00568095 22.31409777 2.73575108 17.8205955 -0.5 12.5625 C-1.30256514 8.44935366 -1.9179456 3.8358912 0 0 Z " fill="#E86020" transform="translate(133,847)"/>
<path d="M0 0 C0.66 0.33 1.32 0.66 2 1 C-0.19684492 11.03634737 -2.42525462 21.05212014 -5 31 C-5.99 31 -6.98 31 -8 31 C-6.40909091 21.22727273 -6.40909091 21.22727273 -5 17 C-4.34 17 -3.68 17 -3 17 C-3.061875 15.5459375 -3.061875 15.5459375 -3.125 14.0625 C-3.13416789 9.579403 -2.26217577 5.29324021 -1 1 C-0.67 0.67 -0.34 0.34 0 0 Z " fill="#E34F21" transform="translate(376,1037)"/>
<path d="M0 0 C0.99 0.33 1.98 0.66 3 1 C-0.15587135 4.83822192 -3.30802435 8.41718407 -6.9375 11.8125 C-9.32474247 14.34442383 -11.08645911 17.0988251 -13 20 C-14.5625 21.6875 -14.5625 21.6875 -16 23 C-16.556875 23.556875 -17.11375 24.11375 -17.6875 24.6875 C-18.120625 25.120625 -18.55375 25.55375 -19 26 C-19.66 25.67 -20.32 25.34 -21 25 C-7.13062381 7.75536124 -7.13062381 7.75536124 0 0 Z " fill="#F39710" transform="translate(223,439)"/>
<path d="M0 0 C0.33 0.99 0.66 1.98 1 3 C-0.58203125 5.33984375 -0.58203125 5.33984375 -2.8125 7.9375 C-8.03083667 14.04986444 -8.03083667 14.04986444 -9.125 21.75 C-9.10695312 22.54921875 -9.08890625 23.3484375 -9.0703125 24.171875 C-9.04710937 24.77515625 -9.02390625 25.3784375 -9 26 C-9.66 26.33 -10.32 26.66 -11 27 C-12.88711894 23.22576213 -12.63227375 19.10074692 -12 15 C-10.41768371 11.92844486 -8.32402376 9.53862956 -6 7 C-4.87347233 5.66795714 -3.74838793 4.33469185 -2.625 3 C-1.75875 2.01 -0.8925 1.02 0 0 Z " fill="#E75E1F" transform="translate(160,885)"/>
<path d="M0 0 C0 5.9343074 -6.51230487 10.55592334 -10.5 14.625 C-13.85339046 17.9327661 -17.38831283 20.97797604 -21 24 C-21.66 23.67 -22.32 23.34 -23 23 C-15.41 15.41 -7.82 7.82 0 0 Z " fill="#007D97" transform="translate(697,827)"/>
<path d="M0 0 C2.61513337 2.12479586 3.86113839 3.44455357 4.6875 6.75 C3.63455643 11.7275514 0.45584488 14.41020765 -3 18 C-4.27812349 19.45194828 -5.54926891 20.91007656 -6.8125 22.375 C-8.50038119 24.31393903 -10.18150549 26.18150549 -12 28 C-11.64581947 22.95973865 -9.03155761 20.83321339 -5.4375 17.6875 C-1.56262527 14.18122711 -1.56262527 14.18122711 0.7265625 9.578125 C0.74682021 7.20323543 0.74682021 7.20323543 0 4 C0 2.66666667 0 1.33333333 0 0 Z " fill="#F49A0F" transform="translate(656,653)"/>
<path d="M0 0 C0 3.78538263 -1.13026949 5.72797162 -3 9 C-3.66 9.639375 -4.32 10.27875 -5 10.9375 C-7.62064904 13.64004432 -8.64584868 16.51789661 -10 20 C-10.33 20.66 -10.66 21.32 -11 22 C-11.99 22 -12.98 22 -14 22 C-14.99 24.475 -14.99 24.475 -16 27 C-16.33 26.34 -16.66 25.68 -17 25 C-15.62890625 22.34765625 -15.62890625 22.34765625 -13.5625 19.0625 C-13.0219397 18.20156738 -13.0219397 18.20156738 -12.47045898 17.32324219 C-4.00331551 4.00331551 -4.00331551 4.00331551 0 0 Z " fill="#F19113" transform="translate(201,466)"/>
<path d="M0 0 C0.79019531 0.00902344 1.58039063 0.01804687 2.39453125 0.02734375 C3.28205078 0.04474609 3.28205078 0.04474609 4.1875 0.0625 C3.8575 0.7225 3.5275 1.3825 3.1875 2.0625 C1.078125 2.44140625 1.078125 2.44140625 -1.5625 2.625 C-5.85300976 2.97697958 -9.86759982 3.55750837 -14.0390625 4.640625 C-14.85117187 4.84171875 -15.66328125 5.0428125 -16.5 5.25 C-17.26699219 5.44980469 -18.03398437 5.64960938 -18.82421875 5.85546875 C-19.48035156 5.92378906 -20.13648438 5.99210937 -20.8125 6.0625 C-21.4725 5.4025 -22.1325 4.7425 -22.8125 4.0625 C-20.75021534 3.58240738 -18.68766299 3.10346456 -16.625 2.625 C-14.90216797 2.22474609 -14.90216797 2.22474609 -13.14453125 1.81640625 C-8.66538601 0.80295369 -4.60532955 -0.06873626 0 0 Z " fill="#F7AB0A" transform="translate(452.8125,318.9375)"/>
<path d="M0 0 C11.45629812 1.44152096 22.69973441 3.65809385 34 6 C34 6.66 34 7.32 34 8 C29.44647756 7.3725362 24.9285568 6.65174026 20.41015625 5.80859375 C19.21455078 5.58623047 18.01894531 5.36386719 16.78710938 5.13476562 C15.55798828 4.90466797 14.32886719 4.67457031 13.0625 4.4375 C11.80630859 4.20353516 10.55011719 3.96957031 9.25585938 3.72851562 C6.17032779 3.15364472 3.08505289 2.57743333 0 2 C0 1.34 0 0.68 0 0 Z " fill="#005C74" transform="translate(574,318)"/>
<path d="M0 0 C2.51132593 2.57706744 2.99088309 3.87512596 3.2578125 7.53125 C3.21398437 8.8409375 3.17015625 10.150625 3.125 11.5 C2.86613991 17.33453876 2.86613991 17.33453876 4 23 C3.01 22.67 2.02 22.34 1 22 C0.02700844 17.14270355 -0.12038805 12.5499375 -0.0625 7.625 C-0.05798828 6.88894531 -0.05347656 6.15289063 -0.04882812 5.39453125 C-0.03715142 3.59631842 -0.01922011 1.79814803 0 0 Z " fill="#E15521" transform="translate(159,947)"/>
<path d="M0 0 C0.66 0.33 1.32 0.66 2 1 C0.68 6.94 -0.64 12.88 -2 19 C-2.99 19 -3.98 19 -5 19 C-3.83795007 12.45150687 -2.26616615 6.25461856 0 0 Z " fill="#E35A20" transform="translate(401,937)"/>
<path d="M0 0 C3.40728883 4.29630651 5.44845233 8.96302886 7.6875 13.9375 C8.10322266 14.83146484 8.51894531 15.72542969 8.94726562 16.64648438 C9.33978516 17.51466797 9.73230469 18.38285156 10.13671875 19.27734375 C10.49467529 20.06359131 10.85263184 20.84983887 11.22143555 21.65991211 C12.07782407 24.23391148 12.14233269 26.30522741 12 29 C10.65955084 26.36613498 9.42143898 23.71280606 8.25 21 C6.11162003 16.11574576 3.6610889 11.41270546 1.171875 6.69921875 C0 4 0 4 0 0 Z " fill="#0090AD" transform="translate(918,749)"/>
<path d="M0 0 C0.66 0.99 1.32 1.98 2 3 C-0.31 7.29 -2.62 11.58 -5 16 C-5.66 16 -6.32 16 -7 16 C-7.33 16.99 -7.66 17.98 -8 19 C-8.33 18.34 -8.66 17.68 -9 17 C-8.28735352 15.21240234 -8.28735352 15.21240234 -7.12890625 13.0859375 C-6.71962891 12.32539062 -6.31035156 11.56484375 -5.88867188 10.78125 C-5.45103516 9.9871875 -5.01339844 9.193125 -4.5625 8.375 C-4.12873047 7.57320312 -3.69496094 6.77140625 -3.24804688 5.9453125 C-2.17243012 3.95955849 -1.08952787 1.9781454 0 0 Z " fill="#E7671F" transform="translate(110,755)"/>
<path d="M0 0 C1.35668113 4.37738806 0.26040618 7.87154897 -0.875 12.1875 C-2.3663043 18.13689265 -3.55386235 23.86560738 -4 30 C-4.33 30 -4.66 30 -5 30 C-5.11381955 23.23405981 -4.88021369 16.71162938 -4 10 C-3.34 10 -2.68 10 -2 10 C-2.04125 9.0925 -2.0825 8.185 -2.125 7.25 C-2.00468444 4.1217954 -1.6085292 2.61385994 0 0 Z " fill="#009BB8" transform="translate(875,630)"/>
<path d="M0 0 C2.93230193 1.32120828 4.98664899 2.74638197 7.234375 5.0390625 C8.09482422 5.90917969 8.09482422 5.90917969 8.97265625 6.796875 C9.55917969 7.40015625 10.14570313 8.0034375 10.75 8.625 C11.35199219 9.23601562 11.95398438 9.84703125 12.57421875 10.4765625 C14.05405305 11.97988624 15.52764676 13.48934856 17 15 C16.01 15.495 16.01 15.495 15 16 C14.236875 15.195625 13.47375 14.39125 12.6875 13.5625 C10.20569102 10.83200976 10.20569102 10.83200976 7 10 C5.61328125 8.37109375 5.61328125 8.37109375 4.3125 6.4375 C3.87550781 5.79683594 3.43851562 5.15617187 2.98828125 4.49609375 C2.66214844 4.00238281 2.33601563 3.50867188 2 3 C1.01 3.33 0.02 3.66 -1 4 C-0.67 2.68 -0.34 1.36 0 0 Z " fill="#FAB109" transform="translate(449,412)"/>
<path d="M0 0 C0.66 0.33 1.32 0.66 2 1 C-4.33333333 7.33333333 -10.66666667 13.66666667 -17 20 C-17.66 19.67 -18.32 19.34 -19 19 C-12.73 12.73 -6.46 6.46 0 0 Z " fill="#FBA30F" transform="translate(243,419)"/>
<path d="M0 0 C4.28674913 1.8371782 6.84877709 4.77682566 10 8.125 C11.97340092 9.97506336 13.46880122 11.07322249 16 12 C19.68203915 11.68873287 19.68203915 11.68873287 23 11 C23 11.66 23 12.32 23 13 C20.05124123 14.47437939 18.30820503 14.36089509 15 14 C9.56352856 11.76418154 5.53044323 9.482627 3 4 C2.01755155 2.65368175 1.02323436 1.31558703 0 0 Z " fill="#060424" transform="translate(618,575)"/>
<path d="M0 0 C0.66 0.33 1.32 0.66 2 1 C1.51999942 5.8282411 0.30807161 8.50213781 -2.75 12.25 C-3.42546875 13.10078125 -4.1009375 13.9515625 -4.796875 14.828125 C-7.11486828 17.11323894 -8.9222027 18.03146239 -12 19 C-11.62488281 18.56429687 -11.24976563 18.12859375 -10.86328125 17.6796875 C-9.79306823 16.43425068 -8.72690319 15.18532793 -7.6640625 13.93359375 C-6.63777804 12.74108011 -5.59411622 11.56297699 -4.5234375 10.41015625 C-1.46085206 7.03414833 -0.3247148 4.54600718 0 0 Z " fill="#050620" transform="translate(660,657)"/>
<path d="M0 0 C0.66 0.66 1.32 1.32 2 2 C1.319375 2.53625 0.63875 3.0725 -0.0625 3.625 C-2.38259327 5.91162152 -2.38259327 5.91162152 -1.75 9.25 C-1.5025 10.1575 -1.255 11.065 -1 12 C-1.99 12.66 -2.98 13.32 -4 14 C-5.5635348 10.87293041 -5.39958487 7.42017557 -5 4 C-3 1 -3 1 0 0 Z " fill="#EE9210" transform="translate(617,652)"/>
<path d="M0 0 C7.26 0.33 14.52 0.66 22 1 C16.31994974 3.84002513 11.05910821 3.51477705 5 2 C5 2.66 5 3.32 5 4 C1.125 2.25 1.125 2.25 0 0 Z " fill="#005B72" transform="translate(535,314)"/>
<path d="M0 0 C0.99 0 1.98 0 3 0 C2.01 4.62 1.02 9.24 0 14 C-0.99 14 -1.98 14 -3 14 C-2.01 9.38 -1.02 4.76 0 0 Z " fill="#E9611F" transform="translate(411,894)"/>
<path d="M0 0 C0 3 0 3 -1.57421875 4.8671875 C-2.27160156 5.52976562 -2.96898437 6.19234375 -3.6875 6.875 C-4.41710937 7.57625 -5.14671875 8.2775 -5.8984375 9 C-6.59195312 9.66 -7.28546875 10.32 -8 11 C-8.94078351 11.95511016 -9.87895245 12.91281602 -10.8125 13.875 C-13 16 -13 16 -16 18 C-14.6415798 14.95667235 -13.11536976 12.87690849 -10.7421875 10.546875 C-10.11699219 9.928125 -9.49179687 9.309375 -8.84765625 8.671875 C-8.19667969 8.03765625 -7.54570312 7.4034375 -6.875 6.75 C-6.21628906 6.1003125 -5.55757813 5.450625 -4.87890625 4.78125 C-3.25703357 3.18288273 -1.6306719 1.58938103 0 0 Z " fill="#010322" transform="translate(465,340)"/>
<path d="M0 0 C-4.14724358 4.14724358 -9.37313721 4.63102539 -15 5 C-15.66 4.34 -16.32 3.68 -17 3 C-11.10261508 0.70657253 -6.33393082 -0.34548714 0 0 Z " fill="#E89F0D" transform="translate(405,331)"/>
<path d="M0 0 C0.99 0 1.98 0 3 0 C2.01 4.62 1.02 9.24 0 14 C-0.99 13.01 -1.98 12.02 -3 11 C-2.01 7.37 -1.02 3.74 0 0 Z " fill="#E95E1F" transform="translate(405,918)"/>
<path d="M0 0 C0.33 0 0.66 0 1 0 C1.38999191 7.59762024 0.60758587 13.84466021 -2 21 C-2.33 21 -2.66 21 -3 21 C-2.48462048 13.86606248 -1.55994099 6.98187183 0 0 Z " fill="#0092AF" transform="translate(754,701)"/>
<path d="M0 0 C-1.0818758 2.52437686 -1.97435171 3.9774606 -4.0625 5.8125 C-6.65259178 8.73679717 -6.70614003 11.17982042 -7 15 C-7.66 14.67 -8.32 14.34 -9 14 C-8.76641617 8.27719624 -7.27521439 5.53617333 -3.47265625 1.28515625 C-2 0 -2 0 0 0 Z " fill="#00A2C4" transform="translate(498,1046)"/>
<path d="M0 0 C0.99 0.33 1.98 0.66 3 1 C1.73046875 2.49739583 0.4609375 3.99479167 -0.80859375 5.4921875 C-2.0878152 7.00594079 -2.0878152 7.00594079 -3 9 C-3.66 8.67 -4.32 8.34 -5 8 C-4.45773019 4.20411134 -2.79872437 2.52788007 0 0 Z " fill="#E88C11" transform="translate(223,439)"/>
<path d="M0 0 C-1.01176437 3.40320742 -1.64843582 4.75725331 -4.625 6.8125 C-5.40875 7.204375 -6.1925 7.59625 -7 8 C-7 5 -7 5 -4.625 2.3125 C-2 0 -2 0 0 0 Z " fill="#ED930E" transform="translate(252,412)"/>
<path d="M0 0 C0 3 0 3 -1 5 C-1.66 5 -2.32 5 -3 5 C-3.268125 5.61875 -3.53625 6.2375 -3.8125 6.875 C-5 9 -5 9 -8 11 C-8 8 -8 8 -6.25 5.95703125 C-5.5075 5.24933594 -4.765 4.54164063 -4 3.8125 C-2.88625 2.73935547 -2.88625 2.73935547 -1.75 1.64453125 C-1.1725 1.10183594 -0.595 0.55914063 0 0 Z " fill="#080B22" transform="translate(368,680)"/>
<path d="M0 0 C3.96 1.98 7.92 3.96 12 6 C12 6.33 12 6.66 12 7 C10.02 7 8.04 7 6 7 C5.67 6.01 5.34 5.02 5 4 C2.49552484 2.78130071 2.49552484 2.78130071 0 2 C0 1.34 0 0.68 0 0 Z " fill="#E7651E" transform="translate(390,872)"/>
<path d="M0 0 C2.97 0.33 5.94 0.66 9 1 C8.67 1.66 8.34 2.32 8 3 C5.36 3 2.72 3 0 3 C0 2.01 0 1.02 0 0 Z " fill="#E45C20" transform="translate(151,870)"/>
<path d="M0 0 C0.99 0.33 1.98 0.66 3 1 C2.525625 1.350625 2.05125 1.70125 1.5625 2.0625 C-0.67873825 4.84163543 -0.67117658 7.5144717 -1 11 C-1.66 11 -2.32 11 -3 11 C-3.32613618 6.32538149 -2.70582788 3.83325617 0 0 Z " fill="#100F20" transform="translate(647,676)"/>
<path d="M0 0 C1.98 0 3.96 0 6 0 C4.35 1.98 2.7 3.96 1 6 C0.34 5.34 -0.32 4.68 -1 4 C-0.625 1.875 -0.625 1.875 0 0 Z " fill="#F9990A" transform="translate(480,316)"/>
<path d="M0 0 C0.66 0.66 1.32 1.32 2 2 C0.35 4.64 -1.3 7.28 -3 10 C-3.66 9.34 -4.32 8.68 -5 8 C-3.35 5.36 -1.7 2.72 0 0 Z " fill="#EA631F" transform="translate(140,835)"/>
<path d="M0 0 C1.79133978 -0.05391993 3.58313899 -0.09275571 5.375 -0.125 C6.37273437 -0.14820313 7.37046875 -0.17140625 8.3984375 -0.1953125 C11 0 11 0 13 2 C7.06 2.495 7.06 2.495 1 3 C0.67 2.01 0.34 1.02 0 0 Z " fill="#DE5C20" transform="translate(126,810)"/>
<path d="M0 0 C1.92578125 0.3046875 1.92578125 0.3046875 4.3125 0.875 C5.09238281 1.05804688 5.87226562 1.24109375 6.67578125 1.4296875 C8.78535255 1.9473302 10.89355761 2.46977423 13 3 C13 3.66 13 4.32 13 5 C11.04020573 4.71831703 9.08217622 4.42433283 7.125 4.125 C5.48917969 3.88136719 5.48917969 3.88136719 3.8203125 3.6328125 C1 3 1 3 -1 1 C-0.67 0.67 -0.34 0.34 0 0 Z " fill="#00576F" transform="translate(619,327)"/>
<path d="M0 0 C1.36741555 2.25221384 2.04066478 3.52557758 1.8125 6.1875 C1.4103125 7.0846875 1.4103125 7.0846875 1 8 C0.01 8.33 -0.98 8.66 -2 9 C-2 6.69 -2 4.38 -2 2 C-1.34 2 -0.68 2 0 2 C0 1.34 0 0.68 0 0 Z " fill="#E25820" transform="translate(394,964)"/>
<path d="M0 0 C2.03144641 0.93446535 4.03533587 1.93224776 6 3 C6 3.66 6 4.32 6 5 C5.01 5.33 4.02 5.66 3 6 C1.35 4.35 -0.3 2.7 -2 1 C-1.34 0.67 -0.68 0.34 0 0 Z " fill="#E9611F" transform="translate(410,883)"/>
<path d="M0 0 C0.66 0.66 1.32 1.32 2 2 C1.52949219 2.39832031 1.05898438 2.79664063 0.57421875 3.20703125 C-0.35970703 4.00173828 -0.35970703 4.00173828 -1.3125 4.8125 C-1.92738281 5.33457031 -2.54226563 5.85664063 -3.17578125 6.39453125 C-4.85424679 7.87172469 -6.43882034 9.40039131 -8 11 C-7.43040847 7.37386801 -6.07625466 5.74482259 -3.4375 3.25 C-2.79683594 2.63640625 -2.15617187 2.0228125 -1.49609375 1.390625 C-1.00238281 0.93171875 -0.50867188 0.4728125 0 0 Z " fill="#020423" transform="translate(350,498)"/>
<path d="M0 0 C-1.28716647 1.00578589 -2.57988658 2.00446798 -3.875 3 C-4.95394531 3.8353125 -4.95394531 3.8353125 -6.0546875 4.6875 C-8 6 -8 6 -10 6 C-8.20404732 1.26521567 -5.07984355 -1.69328118 0 0 Z " fill="#FAA80B" transform="translate(389,467)"/>
<path d="M0 0 C1.134375 0.020625 2.26875 0.04125 3.4375 0.0625 C0.58443203 2.38722205 -2.10324837 3.8133258 -5.5625 5.0625 C-4.43693182 0.07784091 -4.43693182 0.07784091 0 0 Z " fill="#E59C0E" transform="translate(413.5625,450.9375)"/>
<path d="M0 0 C0.33 1.32 0.66 2.64 1 4 C-2.75 5.125 -2.75 5.125 -5 4 C-5 3.34 -5 2.68 -5 2 C-5.66 1.67 -6.32 1.34 -7 1 C-2.25 0 -2.25 0 0 0 Z " fill="#171921" transform="translate(468,434)"/>
<path d="M0 0 C0 4.38968456 -2.12805101 5.76905739 -5 9 C-5.99 8.67 -6.98 8.34 -8 8 C-5.36 5.36 -2.72 2.72 0 0 Z " fill="#201920" transform="translate(479,325)"/>
<path d="M0 0 C1.04449911 3.13349732 0.93423645 3.98968256 0 7 C-0.66 7 -1.32 7 -2 7 C-2.33 8.32 -2.66 9.64 -3 11 C-4 8 -4 8 -3.22265625 5.95703125 C-2.83980469 5.24933594 -2.45695313 4.54164063 -2.0625 3.8125 C-1.68222656 3.09707031 -1.30195312 2.38164063 -0.91015625 1.64453125 C-0.60980469 1.10183594 -0.30945313 0.55914063 0 0 Z " fill="#008AA6" transform="translate(740,756)"/>
<path d="M0 0 C0 3.58912412 -0.66436554 4.10857029 -3 6.6875 C-3.556875 7.31011719 -4.11375 7.93273437 -4.6875 8.57421875 C-5.120625 9.04472656 -5.55375 9.51523437 -6 10 C-6 7 -6 7 -5 4 C-3.37667033 2.61423077 -1.71275535 1.27358732 0 0 Z " fill="#F59F0F" transform="translate(334,513)"/>
<path d="M0 0 C0.33 0 0.66 0 1 0 C1.36923077 6.4 1.36923077 6.4 -0.5 9.4375 C-0.995 9.953125 -1.49 10.46875 -2 11 C-1.85892253 9.54119891 -1.71197585 8.08296449 -1.5625 6.625 C-1.48128906 5.81289063 -1.40007813 5.00078125 -1.31640625 4.1640625 C-1 2 -1 2 0 0 Z " fill="#008FAB" transform="translate(750,723)"/>
<path d="M0 0 C0.99 0.33 1.98 0.66 3 1 C4.6875 4.5625 4.6875 4.5625 6 8 C5.34 8.66 4.68 9.32 4 10 C2.68 6.7 1.36 3.4 0 0 Z " fill="#008EA9" transform="translate(898,713)"/>
<path d="M0 0 C3.81684226 1.55500981 6.19195732 4.03595495 9 7 C8.01 7.495 8.01 7.495 7 8 C6.401875 7.38125 5.80375 6.7625 5.1875 6.125 C2.99188856 3.86323046 2.99188856 3.86323046 0 2 C0 1.34 0 0.68 0 0 Z " fill="#0B0B21" transform="translate(153,917)"/>
<path d="M0 0 C3.36720387 1.39332574 4.9859524 2.9789286 7 6 C4 6 4 6 1.8125 4.125 C0 2 0 2 0 0 Z " fill="#DB870F" transform="translate(620,671)"/>
</svg>
